<?xml version="1.0" encoding="UTF-8"?>
<svg version="1.1" xmlns="http://www.w3.org/2000/svg" width="64" height="64">
<path d="M0 0 C21.12 0 42.24 0 64 0 C64 21.12 64 42.24 64 64 C42.88 64 21.76 64 0 64 C0 42.88 0 21.76 0 0 Z " fill="#EFEEF4" transform="translate(0,0)"/>
<path d="M0 0 C5.09090909 2.09090909 5.09090909 2.09090909 7 4 C7.07179964 5.51928038 7.08392007 7.04167482 7.0625 8.5625 C7.05347656 9.38878906 7.04445312 10.21507812 7.03515625 11.06640625 C7.02355469 11.70449219 7.01195312 12.34257812 7 13 C4 9.25 4 9.25 4 7 C0.37 7.33 -3.26 7.66 -7 8 C-7.33 8.99 -7.66 9.98 -8 11 C-7.360625 11.515625 -6.72125 12.03125 -6.0625 12.5625 C-3.41452704 15.69192259 -3.3597393 17.97091983 -3 22 C-2.6422386 24.27650745 -2.6422386 24.27650745 -2 26 C-1.34 26.33 -0.68 26.66 0 27 C-0.495 28.485 -0.495 28.485 -1 30 C-0.01 30.33 0.98 30.66 2 31 C2 32.98 2 34.96 2 37 C4.17038477 36.20700294 4.17038477 36.20700294 4.6328125 34.15234375 C4.79523437 33.42144531 4.95765625 32.69054688 5.125 31.9375 C5.29257812 31.20402344 5.46015625 30.47054687 5.6328125 29.71484375 C5.81457031 28.86599609 5.81457031 28.86599609 6 28 C8.31 28.99 10.62 29.98 13 31 C13 31.66 13 32.32 13 33 C13.97839844 33.04253906 13.97839844 33.04253906 14.9765625 33.0859375 C19.08276469 33.53410706 21.9931048 34.00687094 25 36.97265625 C29.59201451 43.93794749 29 46.5577681 29 56 C8.54 56 -11.92 56 -33 56 C-32.01 53.03 -31.02 50.06 -30 47 C-29.73058594 46.04480469 -29.46117187 45.08960938 -29.18359375 44.10546875 C-27.44556576 41.0137292 -25.33981288 40.50822264 -22.0625 39.3125 C-18.69865341 38.05769939 -15.99801817 36.99867878 -13 35 C-12.20402724 32.88391641 -12.20402724 32.88391641 -11.8125 30.5 C-11.57466797 29.30890625 -11.57466797 29.30890625 -11.33203125 28.09375 C-10.9477917 26.02409955 -10.9477917 26.02409955 -11 24 C-11.99 23.67 -12.98 23.34 -14 23 C-15.14544249 19.56367253 -15.2397802 16.74568045 -15.3125 13.125 C-15.34988281 11.91070312 -15.38726563 10.69640625 -15.42578125 9.4453125 C-14.92772309 5.41515381 -13.83027718 3.84603011 -11 1 C-7.55151396 -0.72424302 -3.77792422 -0.37398914 0 0 Z " fill="#0E2E32" transform="translate(35,8)"/>
<path d="M0 0 C0.99 0 1.98 0 3 0 C3 17.49 3 34.98 3 53 C-0.76687864 49.23312136 -1.67652988 47.85272378 -3 43 C-3.71027344 42.95101562 -4.42054687 42.90203125 -5.15234375 42.8515625 C-6.07144531 42.77679688 -6.99054687 42.70203125 -7.9375 42.625 C-8.85402344 42.55539063 -9.77054688 42.48578125 -10.71484375 42.4140625 C-11.46894531 42.27742188 -12.22304688 42.14078125 -13 42 C-13.33 41.34 -13.66 40.68 -14 40 C-15.64142963 38.9590934 -17.30712215 37.95495674 -19 37 C-19.99 39.64 -20.98 42.28 -22 45 C-22.66 45 -23.32 45 -24 45 C-24 43.02 -24 41.04 -24 39 C-25.32 38.67 -26.64 38.34 -28 38 C-27.34 37.01 -26.68 36.02 -26 35 C-26.99 34.67 -27.98 34.34 -29 34 C-29.14695312 32.87851563 -29.14695312 32.87851563 -29.296875 31.734375 C-30.1242422 25.58820798 -30.1242422 25.58820798 -33.125 20.3125 C-34.053125 19.6628125 -34.053125 19.6628125 -35 19 C-34.34 17.68 -33.68 16.36 -33 15 C-22.92704704 14.37478223 -22.92704704 14.37478223 -19.3125 16.8125 C-18 19 -18 19 -18 22 C-15.87248504 20.08523654 -14.59499634 18.34676829 -13.0625 15.875 C-11 13 -11 13 -8.9375 12.5625 C-8.298125 12.376875 -7.65875 12.19125 -7 12 C-5.94952356 9.68895182 -4.94992562 7.35416349 -4 5 C-3.01 4.34 -2.02 3.68 -1 3 C-0.67 2.01 -0.34 1.02 0 0 Z " fill="#D6B1BF" transform="translate(61,0)"/>
<path d="M0 0 C0 0.99 0 1.98 0 3 C0.99 3 1.98 3 3 3 C3.04125 3.556875 3.0825 4.11375 3.125 4.6875 C4.21550043 7.56953686 5.98406466 8.83951675 8.37109375 10.703125 C11.34808331 13.07329414 14.28669046 15.57338091 16 19 C3.46 19 -9.08 19 -22 19 C-21.01 16.03 -20.02 13.06 -19 10 C-18.72800781 9.04738281 -18.45601562 8.09476563 -18.17578125 7.11328125 C-16.46302474 4.0348717 -14.42412814 3.4446367 -11.1875 2.1875 C-9.63095703 1.55908203 -9.63095703 1.55908203 -8.04296875 0.91796875 C-5.15772846 0.04758176 -2.98633073 -0.19320069 0 0 Z " fill="#0E2C2F" transform="translate(24,45)"/>
<path d="M0 0 C1.66611905 -0.042721 3.33382885 -0.04063832 5 0 C6 1 6 1 6.11352539 4.69360352 C6.11336624 6.33871292 6.10766988 7.98382731 6.09765625 9.62890625 C6.0962413 10.49313705 6.09482635 11.35736786 6.09336853 12.24778748 C6.08775239 15.01939292 6.07519719 17.7909188 6.0625 20.5625 C6.05748708 22.4368478 6.05292381 24.31119685 6.04882812 26.18554688 C6.03777772 30.79039544 6.0205023 35.39518421 6 40 C2.61866005 36.8385846 1.22662199 34.49761395 0 30 C-0.71027344 29.95101562 -1.42054687 29.90203125 -2.15234375 29.8515625 C-3.07144531 29.77679688 -3.99054687 29.70203125 -4.9375 29.625 C-5.85402344 29.55539063 -6.77054688 29.48578125 -7.71484375 29.4140625 C-8.46894531 29.27742188 -9.22304688 29.14078125 -10 29 C-10.33 28.34 -10.66 27.68 -11 27 C-11.825 26.525625 -12.65 26.05125 -13.5 25.5625 C-16 24 -16 24 -17 21 C-16.67 19.68 -16.34 18.36 -16 17 C-9.565 16.505 -9.565 16.505 -3 16 C-3.99 15.01 -4.98 14.02 -6 13 C-6 12.34 -6 11.68 -6 11 C-4.35 11 -2.7 11 -1 11 C-1 10.34 -1 9.68 -1 9 C-0.38125 8.54625 0.2375 8.0925 0.875 7.625 C3.13442278 5.89720611 3.92750301 4.59186772 5 2 C3.35 2 1.7 2 0 2 C0 1.34 0 0.68 0 0 Z " fill="#BBB59D" transform="translate(58,13)"/>
<path d="M0 0 C5.09090909 2.09090909 5.09090909 2.09090909 7 4 C7.07179964 5.51928038 7.08392007 7.04167482 7.0625 8.5625 C7.05347656 9.38878906 7.04445313 10.21507812 7.03515625 11.06640625 C7.02355469 11.70449219 7.01195313 12.34257812 7 13 C4 9.25 4 9.25 4 7 C-1.445 7.495 -1.445 7.495 -7 8 C-7.33 8.99 -7.66 9.98 -8 11 C-7.360625 11.515625 -6.72125 12.03125 -6.0625 12.5625 C-3.41452704 15.69192259 -3.3597393 17.97091983 -3 22 C-2.6422386 24.27650745 -2.6422386 24.27650745 -2 26 C-1.34 26.33 -0.68 26.66 0 27 C-0.33 27.99 -0.66 28.98 -1 30 C-0.01 30.33 0.98 30.66 2 31 C2 32.98 2 34.96 2 37 C3.485 36.505 3.485 36.505 5 36 C5 36.66 5 37.32 5 38 C3.35 37.67 1.7 37.34 0 37 C0 35.68 0 34.36 0 33 C-0.721875 32.731875 -1.44375 32.46375 -2.1875 32.1875 C-5.02988053 30.98738377 -7.49642861 29.80813489 -10 28 C-10.625 25.875 -10.625 25.875 -11 24 C-11.99 23.67 -12.98 23.34 -14 23 C-15.14544249 19.56367253 -15.2397802 16.74568045 -15.3125 13.125 C-15.34988281 11.91070312 -15.38726563 10.69640625 -15.42578125 9.4453125 C-14.92772309 5.41515381 -13.83027718 3.84603011 -11 1 C-7.55151396 -0.72424302 -3.77792422 -0.37398914 0 0 Z " fill="#947B7A" transform="translate(35,8)"/>
<path d="M0 0 C4.95 0.99 4.95 0.99 10 2 C10 2.99 10 3.98 10 5 C10.99 5.33 11.98 5.66 13 6 C13 6.66 13 7.32 13 8 C14.98 8 16.96 8 19 8 C19 9.32 19 10.64 19 12 C9.58997722 14.29612756 9.58997722 14.29612756 5 14 C5 14.66 5 15.32 5 16 C3.68 16 2.36 16 1 16 C1 17.32 1 18.64 1 20 C1.86625 19.938125 2.7325 19.87625 3.625 19.8125 C7.61355142 20.03408619 9.75353679 20.65952652 13 23 C13.875 26.6875 13.875 26.6875 14 30 C12.68 30 11.36 30 10 30 C10 29.34 10 28.68 10 28 C7.69 28.33 5.38 28.66 3 29 C3 29.66 3 30.32 3 31 C2.01 31 1.02 31 0 31 C0 20.77 0 10.54 0 0 Z " fill="#59775D" transform="translate(0,11)"/>
<path d="M0 0 C0.33 0.66 0.66 1.32 1 2 C3.35599235 2.46751788 3.35599235 2.46751788 6.0625 2.625 C7.44115234 2.73714844 7.44115234 2.73714844 8.84765625 2.8515625 C9.55792969 2.90054688 10.26820312 2.94953125 11 3 C10.17719683 7.75397385 9.89613662 9.35478163 5.875 12.25 C3.87588384 13.26210483 2.03765534 13.99020685 -0.1328125 14.5546875 C-2.38657704 15.16179013 -4.0664927 15.67891582 -6 17 C-7.20712822 19.52555195 -7.8516903 21.8896893 -8.4296875 24.625 C-9 27 -9 27 -11 30 C-11.66 30 -12.32 30 -13 30 C-13 22.74 -13 15.48 -13 8 C-12.01 8 -11.02 8 -10 8 C-10 7.34 -10 6.68 -10 6 C-6.535 5.505 -6.535 5.505 -3 5 C-3 5.66 -3 6.32 -3 7 C-1.68 7 -0.36 7 1 7 C0.67 4.69 0.34 2.38 0 0 Z " fill="#CFC4CA" transform="translate(13,34)"/>
<path d="M0 0 C0.99 0 1.98 0 3 0 C3 4.62 3 9.24 3 14 C0.03 13.505 0.03 13.505 -3 13 C-3 13.66 -3 14.32 -3 15 C-1.35 15 0.3 15 2 15 C1.814375 15.61875 1.62875 16.2375 1.4375 16.875 C0.76313824 19.04160178 0.76313824 19.04160178 2 21 C0.02 21.33 -1.96 21.66 -4 22 C-4 22.66 -4 23.32 -4 24 C-5.98 24 -7.96 24 -10 24 C-10 25.65 -10 27.3 -10 29 C-12.31 29 -14.62 29 -17 29 C-17.77289995 22.94561706 -16.06223061 19.82504056 -12.703125 14.8203125 C-10.75640413 12.73964295 -9.68344947 12.6473476 -7 12 C-5.94952356 9.68895182 -4.94992562 7.35416349 -4 5 C-3.01 4.34 -2.02 3.68 -1 3 C-0.67 2.01 -0.34 1.02 0 0 Z " fill="#E8E3E9" transform="translate(61,0)"/>
<path d="M0 0 C4.75 0.75 4.75 0.75 7 3 C9.57061311 3.64767793 9.57061311 3.64767793 12 4 C11.34 6.97 10.68 9.94 10 13 C12.97 13.495 12.97 13.495 16 14 C16 14.33 16 14.66 16 15 C15.030625 14.979375 14.06125 14.95875 13.0625 14.9375 C10.12534105 14.64381501 10.12534105 14.64381501 9 16 C9.78375 16.28875 10.5675 16.5775 11.375 16.875 C14 18 14 18 16 20 C16.66 20.33 17.32 20.66 18 21 C17.67 22.98 17.34 24.96 17 27 C17.99 27 18.98 27 20 27 C20.33 26.34 20.66 25.68 21 25 C21 25.99 21 26.98 21 28 C18.37428995 28.38613383 16.6156121 28.38493778 14.33203125 26.95703125 C12.6875 25.625 12.6875 25.625 10 23 C10 22.34 10 21.68 10 21 C8.68 20.34 7.36 19.68 6 19 C6 18.34 6 17.68 6 17 C5.01 16.67 4.02 16.34 3 16 C3 14.68 3 13.36 3 12 C2.01 12 1.02 12 0 12 C-0.33 11.34 -0.66 10.68 -1 10 C-1.99 9.67 -2.98 9.34 -4 9 C-3.34 8.34 -2.68 7.68 -2 7 C-1.28072705 4.68234271 -0.6090107 2.34904126 0 0 Z " fill="#193C45" transform="translate(24,36)"/>
<path d="M0 0 C3.465 1.485 3.465 1.485 7 3 C6.979375 4.093125 6.95875 5.18625 6.9375 6.3125 C6.81455548 9.94384191 6.81455548 9.94384191 8 13 C7.51171875 15.59375 7.51171875 15.59375 6.6875 18.5 C6.42324219 19.4590625 6.15898438 20.418125 5.88671875 21.40625 C5 24 5 24 3 27 C2.01 27 1.02 27 0 27 C-0.5534764 24.92446352 -1 23.15634036 -1 21 C-1.66 20.67 -2.32 20.34 -3 20 C-3 19.34 -3 18.68 -3 18 C-4.98 17.67 -6.96 17.34 -9 17 C-8.01 16.01 -7.02 15.02 -6 14 C-6.33 13.67 -6.66 13.34 -7 13 C-6.34 11.68 -5.68 10.36 -5 9 C-3.68 9.33 -2.36 9.66 -1 10 C-0.67 6.7 -0.34 3.4 0 0 Z " fill="#2C454D" transform="translate(41,36)"/>
<path d="M0 0 C0.33 0 0.66 0 1 0 C1.10957031 0.83144531 1.21914063 1.66289062 1.33203125 2.51953125 C1.49058594 3.60621094 1.64914063 4.69289063 1.8125 5.8125 C1.96332031 6.89144531 2.11414063 7.97039063 2.26953125 9.08203125 C3.01612403 12.06440991 3.62075684 13.14223479 6 15 C5.67 15.99 5.34 16.98 5 18 C-1.625 18.125 -1.625 18.125 -5 17 C-5 16.34 -5 15.68 -5 15 C-9.29 14.01 -13.58 13.02 -18 12 C-18 10.68 -18 9.36 -18 8 C-16.68 8 -15.36 8 -14 8 C-14 7.34 -14 6.68 -14 6 C-9.15758367 4.66416101 -5.06562383 3.74671881 0 4 C0 2.68 0 1.36 0 0 Z " fill="#EEEBF1" transform="translate(19,19)"/>
<path d="M0 0 C0.33 0 0.66 0 1 0 C1 8.91 1 17.82 1 27 C-2.76687864 23.23312136 -3.67652988 21.85272378 -5 17 C-6.299375 16.87625 -7.59875 16.7525 -8.9375 16.625 C-11.15234375 16.4140625 -11.15234375 16.4140625 -13 16 C-13.33 15.34 -13.66 14.68 -14 14 C-13.67 13.34 -13.34 12.68 -13 12 C-14.32 12 -15.64 12 -17 12 C-16.67 11.01 -16.34 10.02 -16 9 C-12.73045798 9.56371414 -11.17424117 10.49962266 -9 13 C-8.34 11.68 -7.68 10.36 -7 9 C-8.32 8.67 -9.64 8.34 -11 8 C-11 7.34 -11 6.68 -11 6 C-8.03 6.495 -8.03 6.495 -5 7 C-5 7.66 -5 8.32 -5 9 C-4.01 9 -3.02 9 -2 9 C-1.7834375 7.88625 -1.7834375 7.88625 -1.5625 6.75 C-1.09812508 4.47972261 -0.58136431 2.24240521 0 0 Z " fill="#A5A48B" transform="translate(63,26)"/>
<path d="M0 0 C5.09090909 2.09090909 5.09090909 2.09090909 7 4 C7.07179964 5.51928038 7.08392007 7.04167482 7.0625 8.5625 C7.05347656 9.38878906 7.04445313 10.21507812 7.03515625 11.06640625 C7.02355469 11.70449219 7.01195313 12.34257812 7 13 C4 9.375 4 9.375 4 6 C2.08249714 6.08743331 0.16593335 6.1956189 -1.75 6.3125 C-2.81734375 6.37050781 -3.8846875 6.42851562 -4.984375 6.48828125 C-8.22205905 7.037681 -9.71259327 7.66860468 -12 10 C-12.33397787 13.12586875 -12.33397787 13.12586875 -12 16 C-12.66 16.33 -13.32 16.66 -14 17 C-14.76870092 6.28943381 -14.76870092 6.28943381 -12.0625 1.75 C-7.90903837 -0.62340665 -4.67714855 -0.78089475 0 0 Z " fill="#435664" transform="translate(35,8)"/>
<path d="M0 0 C0 0.33 0 0.66 0 1 C-1.65 1 -3.3 1 -5 1 C-5 1.66 -5 2.32 -5 3 C-6.32 3 -7.64 3 -9 3 C-9 4.32 -9 5.64 -9 7 C-8.13375 6.938125 -7.2675 6.87625 -6.375 6.8125 C-2.38644858 7.03408619 -0.24646321 7.65952652 3 10 C3.875 13.6875 3.875 13.6875 4 17 C2.68 17 1.36 17 0 17 C0 16.34 0 15.68 0 15 C-2.31 15.33 -4.62 15.66 -7 16 C-7 16.66 -7 17.32 -7 18 C-7.99 18 -8.98 18 -10 18 C-10 12.39 -10 6.78 -10 1 C-6.78548731 -0.60725635 -3.56387464 -0.05748185 0 0 Z " fill="#65794E" transform="translate(10,24)"/>
<path d="M0 0 C2.64 0 5.28 0 8 0 C8 0.66 8 1.32 8 2 C10.475 2.99 10.475 2.99 13 4 C10 6 10 6 7 7 C6.04407732 9.22982093 6.04407732 9.22982093 5.4375 11.875 C4.58467634 15.18029394 3.92685016 17.10972477 2 20 C1.34 20 0.68 20 0 20 C0 13.4 0 6.8 0 0 Z " fill="#CDBCB6" transform="translate(0,44)"/>
<path d="M0 0 C0.99 0 1.98 0 3 0 C3 4.62 3 9.24 3 14 C0.03 13.505 0.03 13.505 -3 13 C-3 13.66 -3 14.32 -3 15 C-1.35 15 0.3 15 2 15 C1.814375 15.61875 1.62875 16.2375 1.4375 16.875 C0.76313824 19.04160178 0.76313824 19.04160178 2 21 C1.01 21 0.02 21 -1 21 C-1 20.34 -1 19.68 -1 19 C-3.97 18.67 -6.94 18.34 -10 18 C-10 17.34 -10 16.68 -10 16 C-8.02 16.33 -6.04 16.66 -4 17 C-4.20238281 16.40832031 -4.40476562 15.81664062 -4.61328125 15.20703125 C-5.3315484 12.74726722 -5.87078659 10.56273267 -6 8 C-3.6875 5.125 -3.6875 5.125 -1 3 C-0.67 2.01 -0.34 1.02 0 0 Z " fill="#AEAEA5" transform="translate(61,0)"/>
<path d="M0 0 C2 1.3125 2 1.3125 4 4 C4.36089448 7.68855385 4.22933459 11.3051649 4 15 C0.7 15 -2.6 15 -6 15 C-5.70703125 12.72135417 -5.4140625 10.44270833 -5.12109375 8.1640625 C-4.81762672 5.95100814 -4.81762672 5.95100814 -6 4 C-4.68 3.34 -3.36 2.68 -2 2 C-2 2.66 -2 3.32 -2 4 C-1.34 3.34 -0.68 2.68 0 2 C0 1.34 0 0.68 0 0 Z " fill="#1B363A" transform="translate(60,49)"/>
<path d="M0 0 C1.66611905 -0.042721 3.33382885 -0.04063832 5 0 C6.75141618 1.75141618 6.21395448 4.1209954 6.25 6.5 C6.22281723 12.18119984 5.20968084 16.79146659 3 22 C2.01 22 1.02 22 0 22 C0 21.34 0 20.68 0 20 C-1.32 20 -2.64 20 -4 20 C-4 19.34 -4 18.68 -4 18 C-2.35 18 -0.7 18 1 18 C0.67 17.01 0.34 16.02 0 15 C-3.00847418 13.77479736 -3.00847418 13.77479736 -6 13 C-6 12.34 -6 11.68 -6 11 C-4.35 11 -2.7 11 -1 11 C-1 10.34 -1 9.68 -1 9 C-0.38125 8.54625 0.2375 8.0925 0.875 7.625 C3.13442278 5.89720611 3.92750301 4.59186772 5 2 C3.35 2 1.7 2 0 2 C0 1.34 0 0.68 0 0 Z " fill="#707F68" transform="translate(58,13)"/>
<path d="M0 0 C0.33 0.66 0.66 1.32 1 2 C1.99 2.33 2.98 2.66 4 3 C4 3.66 4 4.32 4 5 C0.98509443 6.00496852 -1.04181692 6.10335303 -4.1875 6.0625 C-5.08855469 6.05347656 -5.98960938 6.04445313 -6.91796875 6.03515625 C-7.60503906 6.02355469 -8.29210938 6.01195312 -9 6 C-9.04898438 6.66386719 -9.09796875 7.32773437 -9.1484375 8.01171875 C-9.89103691 16.78207381 -9.89103691 16.78207381 -12 21 C-12.66 21 -13.32 21 -14 21 C-14 19.02 -14 17.04 -14 15 C-15.32 14.67 -16.64 14.34 -18 14 C-17.34 13.01 -16.68 12.02 -16 11 C-16.99 10.67 -17.98 10.34 -19 10 C-15.535 9.505 -15.535 9.505 -12 9 C-12 6.69 -12 4.38 -12 2 C-11.01 1.67 -10.02 1.34 -9 1 C-8.34 2.32 -7.68 3.64 -7 5 C-4.69 5 -2.38 5 0 5 C0 3.35 0 1.7 0 0 Z " fill="#E0B7BB" transform="translate(51,24)"/>
<path d="M0 0 C0.66 0 1.32 0 2 0 C3.94522377 3.45817559 4.08254219 5.56877603 3.125 9.3125 C2.75375 10.529375 2.3825 11.74625 2 13 C-0.97 13 -3.94 13 -7 13 C-6.125 5.25 -6.125 5.25 -5 3 C-3.35 3 -1.7 3 0 3 C0 2.01 0 1.02 0 0 Z " fill="#0F2D31" transform="translate(52,51)"/>
<path d="M0 0 C1.32 0.33 2.64 0.66 4 1 C3.979375 1.928125 3.95875 2.85625 3.9375 3.8125 C3.84230396 7.02286011 3.84230396 7.02286011 5 10 C4.51171875 12.59375 4.51171875 12.59375 3.6875 15.5 C3.42324219 16.4590625 3.15898438 17.418125 2.88671875 18.40625 C2 21 2 21 0 24 C-0.99 24 -1.98 24 -3 24 C-3.93423645 20.98968256 -4.04449911 20.13349732 -3 17 C-3.66 16.67 -4.32 16.34 -5 16 C-3.74458443 13.48916886 -2.49936512 13.12874554 0 12 C-0.99 11.67 -1.98 11.34 -3 11 C-3 10.34 -3 9.68 -3 9 C-1.35 8.67 0.3 8.34 2 8 C1.67 7.236875 1.34 6.47375 1 5.6875 C0 3 0 3 0 0 Z " fill="#254855" transform="translate(44,39)"/>
<path d="M0 0 C3.63 0 7.26 0 11 0 C10.67 0.66 10.34 1.32 10 2 C8.68 2 7.36 2 6 2 C5.67 3.32 5.34 4.64 5 6 C6.98 6 8.96 6 11 6 C10.67 7.65 10.34 9.3 10 11 C8.35 10.67 6.7 10.34 5 10 C4.67 11.65 4.34 13.3 4 15 C3.67 15 3.34 15 3 15 C2.87625 13.39125 2.87625 13.39125 2.75 11.75 C1.94523098 7.7261549 1.12270126 6.51830747 -2 4 C-1.34 2.68 -0.68 1.36 0 0 Z " fill="#CAA9B7" transform="translate(28,15)"/>
<path d="M0 0 C3.26954202 0.56371414 4.82575883 1.49962266 7 4 C7.99 3.67 8.98 3.34 10 3 C10 2.34 10 1.68 10 1 C11.98 1 13.96 1 16 1 C15.67 2.65 15.34 4.3 15 6 C12.11788698 6.96070434 10.30149956 7.10581883 7.3125 7.0625 C6.10013672 7.04896484 6.10013672 7.04896484 4.86328125 7.03515625 C3.94095703 7.01775391 3.94095703 7.01775391 3 7 C2.67 6.34 2.34 5.68 2 5 C2.33 4.34 2.66 3.68 3 3 C1.68 3 0.36 3 -1 3 C-0.67 2.01 -0.34 1.02 0 0 Z " fill="#E8D8C3" transform="translate(47,35)"/>
<path d="M0 0 C0.66 0.33 1.32 0.66 2 1 C2 1.66 2 2.32 2 3 C3.98 3 5.96 3 8 3 C8 4.32 8 5.64 8 7 C5.69 7.33 3.38 7.66 1 8 C1 7.34 1 6.68 1 6 C0.13375 6.2784375 0.13375 6.2784375 -0.75 6.5625 C-3.20692525 7.04023546 -4.64397534 6.75729364 -7 6 C-7 4.35 -7 2.7 -7 1 C-4.69 1.66 -2.38 2.32 0 3 C0 2.01 0 1.02 0 0 Z " fill="#5B7664" transform="translate(11,16)"/>
<path d="M0 0 C0.33 0.66 0.66 1.32 1 2 C3.31 2 5.62 2 8 2 C8 2.99 8 3.98 8 5 C7.01 5 6.02 5 5 5 C5 5.66 5 6.32 5 7 C-2.425 6.01 -2.425 6.01 -10 5 C-10 4.34 -10 3.68 -10 3 C-9.01 3 -8.02 3 -7 3 C-7 2.34 -7 1.68 -7 1 C-2.25 0 -2.25 0 0 0 Z " fill="#E7CFCD" transform="translate(10,39)"/>
<path d="M0 0 C9.58382605 -0.45317566 9.58382605 -0.45317566 14.125 1 C17.01242361 4.07991851 16.7954577 6.84097329 17 11 C14 7.375 14 7.375 14 4 C10.04 4 6.08 4 2 4 C1.34 2.68 0.68 1.36 0 0 Z " fill="#183338" transform="translate(25,10)"/>
<path d="M0 0 C2 1 4 2 6 3 C5.814375 3.763125 5.62875 4.52625 5.4375 5.3125 C4.77180827 8.08967375 4.77180827 8.08967375 6 11 C4.68 10.34 3.36 9.68 2 9 C1.34 9.66 0.68 10.32 0 11 C-0.33 10.34 -0.66 9.68 -1 9 C-1.99 8.67 -2.98 8.34 -4 8 C-3.34 7.34 -2.68 6.68 -2 6 C-1.28591666 4.01643517 -0.61382258 2.01684563 0 0 Z " fill="#17383F" transform="translate(24,37)"/>
<path d="M0 0 C0.99 0 1.98 0 3 0 C3 4.62 3 9.24 3 14 C2.01 13.67 1.02 13.34 0 13 C-0.33 12.01 -0.66 11.02 -1 10 C-3.00016466 8.79117904 -3.00016466 8.79117904 -5 8 C-4 5 -4 5 -1 3 C-0.67 2.01 -0.34 1.02 0 0 Z " fill="#C2C4D2" transform="translate(61,0)"/>
<path d="M0 0 C-0.495 0.433125 -0.99 0.86625 -1.5 1.3125 C-3.33218192 2.99740483 -3.33218192 2.99740483 -3 6 C-2.34 6.66 -1.68 7.32 -1 8 C-1.70125 7.855625 -2.4025 7.71125 -3.125 7.5625 C-6.07556141 6.98521625 -9.03270151 6.48304859 -12 6 C-12 4.68 -12 3.36 -12 2 C-10.68 2 -9.36 2 -8 2 C-8 1.34 -8 0.68 -8 0 C-4.71303767 -0.79953138 -3.28976808 -1.09658936 0 0 Z " fill="#C7C2C6" transform="translate(13,25)"/>
<path d="M0 0 C1.65 0 3.3 0 5 0 C5.44539877 8.7595092 5.44539877 8.7595092 2 13 C1.34 13 0.68 13 0 13 C0 8.71 0 4.42 0 0 Z " fill="#CACCBC" transform="translate(0,51)"/>
<path d="M0 0 C2.75661088 2.48984209 4.60746455 4.20549066 5 8 C4 9 4 9 0.625 9.125 C-3 9 -3 9 -6 8 C-6 7.34 -6 6.68 -6 6 C-6.66 5.67 -7.32 5.34 -8 5 C-5.36 4.67 -2.72 4.34 0 4 C0 2.68 0 1.36 0 0 Z " fill="#EED9DF" transform="translate(20,28)"/>
<path d="M0 0 C1.32 0.33 2.64 0.66 4 1 C3.979375 1.928125 3.95875 2.85625 3.9375 3.8125 C3.84230396 7.02286011 3.84230396 7.02286011 5 10 C3.5625 13.1875 3.5625 13.1875 2 16 C1.34 15.67 0.68 15.34 0 15 C-0.625 12.9375 -0.625 12.9375 -1 11 C-1.66 11 -2.32 11 -3 11 C-3 10.34 -3 9.68 -3 9 C-1.35 8.67 0.3 8.34 2 8 C1.67 7.236875 1.34 6.47375 1 5.6875 C0 3 0 3 0 0 Z " fill="#33566B" transform="translate(44,39)"/>
<path d="M0 0 C1.98 0 3.96 0 6 0 C6 2.31 6 4.62 6 7 C3.69 7 1.38 7 -1 7 C-0.67 4.69 -0.34 2.38 0 0 Z " fill="#8D97AD" transform="translate(55,57)"/>
<path d="M0 0 C1.65 0.33 3.3 0.66 5 1 C5.33 3.31 5.66 5.62 6 8 C4.68 8 3.36 8 2 8 C2 7.34 2 6.68 2 6 C-0.31 6.33 -2.62 6.66 -5 7 C-3.68 6.67 -2.36 6.34 -1 6 C-0.67 4.02 -0.34 2.04 0 0 Z " fill="#9C8779" transform="translate(8,33)"/>
<path d="M0 0 C0.99 0.33 1.98 0.66 3 1 C3.33 0.67 3.66 0.34 4 0 C6.0625 0.4375 6.0625 0.4375 8 1 C7.67 1.99 7.34 2.98 7 4 C7.99 4.33 8.98 4.66 10 5 C10 6.98 10 8.96 10 11 C10.99 10.67 11.98 10.34 13 10 C13 10.66 13 11.32 13 12 C11.35 11.67 9.7 11.34 8 11 C8 9.68 8 8.36 8 7 C6.8553125 6.5978125 6.8553125 6.5978125 5.6875 6.1875 C3.11011382 5.04865495 1.73045136 4.18583329 0 2 C0 1.34 0 0.68 0 0 Z " fill="#B2877E" transform="translate(27,34)"/>
<path d="M0 0 C0.33 0.99 0.66 1.98 1 3 C0.01 3.495 0.01 3.495 -1 4 C-1.66 3.67 -2.32 3.34 -3 3 C-3.33 3.66 -3.66 4.32 -4 5 C-3.67 5.33 -3.34 5.66 -3 6 C-3.66 6.66 -4.32 7.32 -5 8 C-5.33 7.01 -5.66 6.02 -6 5 C-8.97 4.505 -8.97 4.505 -12 4 C-8.07829422 -0.09996514 -5.68430095 -0.10526483 0 0 Z " fill="#244856" transform="translate(44,49)"/>
<path d="M0 0 C0.33 0 0.66 0 1 0 C1 3.96 1 7.92 1 12 C0.67 11.34 0.34 10.68 0 10 C-1.98 10 -3.96 10 -6 10 C-6.33 10.66 -6.66 11.32 -7 12 C-7 11.01 -7 10.02 -7 9 C-8.32 8.67 -9.64 8.34 -11 8 C-11 7.34 -11 6.68 -11 6 C-8.03 6.495 -8.03 6.495 -5 7 C-5 7.66 -5 8.32 -5 9 C-4.01 9 -3.02 9 -2 9 C-1.7834375 7.88625 -1.7834375 7.88625 -1.5625 6.75 C-1.09812508 4.47972261 -0.58136431 2.24240521 0 0 Z " fill="#CABF9E" transform="translate(63,26)"/>
<path d="M0 0 C5.75 0.75 5.75 0.75 8 3 C8 3.99 8 4.98 8 6 C8.66 6.33 9.32 6.66 10 7 C9.67 8.32 9.34 9.64 9 11 C8.01 11 7.02 11 6 11 C6 10.34 6 9.68 6 9 C4.68 9 3.36 9 2 9 C2 8.34 2 7.68 2 7 C3.65 7 5.3 7 7 7 C6.67 6.01 6.34 5.02 6 4 C2.99152582 2.77479736 2.99152582 2.77479736 0 2 C0 1.34 0 0.68 0 0 Z " fill="#7E8E73" transform="translate(52,24)"/>
<path d="M0 0 C0.144375 1.11375 0.28875 2.2275 0.4375 3.375 C0.78372035 6.82142047 0.78372035 6.82142047 2 9 C0.68 9 -0.64 9 -2 9 C-1.67 7.35 -1.34 5.7 -1 4 C-2.65 4 -4.3 4 -6 4 C-6.33 2.68 -6.66 1.36 -7 0 C-4.3333581 -1.33332095 -2.83319697 -0.67102033 0 0 Z " fill="#615552" transform="translate(31,23)"/>
<path d="M0 0 C0.33 0.66 0.66 1.32 1 2 C1.99 2.33 2.98 2.66 4 3 C4 3.66 4 4.32 4 5 C0.98509443 6.00496852 -1.04181692 6.10335303 -4.1875 6.0625 C-5.08855469 6.05347656 -5.98960938 6.04445313 -6.91796875 6.03515625 C-7.60503906 6.02355469 -8.29210938 6.01195312 -9 6 C-9.33 6.66 -9.66 7.32 -10 8 C-10 7.01 -10 6.02 -10 5 C-10.66 5 -11.32 5 -12 5 C-12 4.01 -12 3.02 -12 2 C-11.01 1.67 -10.02 1.34 -9 1 C-8.34 2.32 -7.68 3.64 -7 5 C-4.69 5 -2.38 5 0 5 C0 3.35 0 1.7 0 0 Z " fill="#DEC8D2" transform="translate(51,24)"/>
<path d="M0 0 C0.33 0.66 0.66 1.32 1 2 C3.12576782 2.46651207 3.12576782 2.46651207 5.5625 2.625 C6.38878906 2.69976563 7.21507812 2.77453125 8.06640625 2.8515625 C8.70449219 2.90054687 9.34257813 2.94953125 10 3 C9.67 3.99 9.34 4.98 9 6 C8.34 6 7.68 6 7 6 C7 6.66 7 7.32 7 8 C5.02 8 3.04 8 1 8 C1.66 7.34 2.32 6.68 3 6 C2.01 5.34 1.02 4.68 0 4 C0 2.68 0 1.36 0 0 Z " fill="#D7D1D7" transform="translate(50,16)"/>
<path d="M0 0 C0.33 0 0.66 0 1 0 C1 1.65 1 3.3 1 5 C3.64 5 6.28 5 9 5 C9 5.66 9 6.32 9 7 C3.06 7.495 3.06 7.495 -3 8 C-3 5.69 -3 3.38 -3 1 C-1 2 -1 2 0 3 C0 2.01 0 1.02 0 0 Z " fill="#3B6350" transform="translate(3,17)"/>
<path d="M0 0 C1.32 0.33 2.64 0.66 4 1 C4 1.99 4 2.98 4 4 C-7.52164009 5.33257403 -7.52164009 5.33257403 -13 4 C-13 3.67 -13 3.34 -13 3 C-6.565 2.505 -6.565 2.505 0 2 C0 1.34 0 0.68 0 0 Z " fill="#9DA496" transform="translate(55,27)"/>
<path d="M0 0 C2.31 0.33 4.62 0.66 7 1 C7 2.65 7 4.3 7 6 C4.69 6 2.38 6 0 6 C0 4.02 0 2.04 0 0 Z " fill="#DBD6DC" transform="translate(44,23)"/>
<path d="M0 0 C-0.33 1.98 -0.66 3.96 -1 6 C-0.01 6 0.98 6 2 6 C2.33 5.34 2.66 4.68 3 4 C3 4.99 3 5.98 3 7 C0.8125 7.375 0.8125 7.375 -2 7 C-4.03762361 5.16613875 -5.38808422 3.25668209 -7 1 C-7 0.67 -7 0.34 -7 0 C-2.25 -1.125 -2.25 -1.125 0 0 Z " fill="#1C3F49" transform="translate(42,57)"/>
<path d="M0 0 C-0.33 0.66 -0.66 1.32 -1 2 C-0.34 2.66 0.32 3.32 1 4 C0.67 4.66 0.34 5.32 0 6 C0.66 6 1.32 6 2 6 C1.67 6.66 1.34 7.32 1 8 C0.34 7.67 -0.32 7.34 -1 7 C-1 6.01 -1 5.02 -1 4 C-4.3 3.34 -7.6 2.68 -11 2 C-3.5 -1.75 -3.5 -1.75 0 0 Z " fill="#D9D7D3" transform="translate(11,9)"/>
<path d="M0 0 C1.50433594 0.01353516 1.50433594 0.01353516 3.0390625 0.02734375 C3.80992188 0.03894531 4.58078125 0.05054688 5.375 0.0625 C2.375 2.0625 2.375 2.0625 -0.625 3.0625 C-1.83382096 5.06266466 -1.83382096 5.06266466 -2.625 7.0625 C-2.625 5.7425 -2.625 4.4225 -2.625 3.0625 C-4.275 3.0625 -5.925 3.0625 -7.625 3.0625 C-7.625 2.4025 -7.625 1.7425 -7.625 1.0625 C-4.98041621 -0.25979189 -2.94738699 -0.03427194 0 0 Z " fill="#7F8E7B" transform="translate(7.625,47.9375)"/>
<path d="M0 0 C3.375 0.25 3.375 0.25 7 1 C8.4375 3.0625 8.4375 3.0625 9 5 C6.6875 5.625 6.6875 5.625 4 6 C1 4 1 4 0.3125 1.875 C0.209375 1.25625 0.10625 0.6375 0 0 Z " fill="#203F49" transform="translate(51,42)"/>
<path d="M0 0 C4.75 0.75 4.75 0.75 7 3 C9.57061311 3.64767793 9.57061311 3.64767793 12 4 C11.67 5.65 11.34 7.3 11 9 C8.5 7.625 8.5 7.625 6 6 C6 5.34 6 4.68 6 4 C5.38125 3.71125 4.7625 3.4225 4.125 3.125 C2 2 2 2 0 0 Z " fill="#5C5348" transform="translate(24,36)"/>
<path d="M0 0 C3.26954202 0.56371414 4.82575883 1.49962266 7 4 C7.66 3.67 8.32 3.34 9 3 C8.67 4.32 8.34 5.64 8 7 C6.35 7 4.7 7 3 7 C2.67 6.34 2.34 5.68 2 5 C2.33 4.34 2.66 3.68 3 3 C1.68 3 0.36 3 -1 3 C-0.67 2.01 -0.34 1.02 0 0 Z " fill="#D2C1AD" transform="translate(47,35)"/>
<path d="M0 0 C2 3.875 2 3.875 2 5 C-4.435 5.495 -4.435 5.495 -11 6 C-10.34 4.68 -9.68 3.36 -9 2 C-6.03 2.33 -3.06 2.66 0 3 C0 2.01 0 1.02 0 0 Z " fill="#2E5264" transform="translate(45,43)"/>
<path d="M0 0 C0 0.99 0 1.98 0 3 C-0.99 3 -1.98 3 -3 3 C-3 3.66 -3 4.32 -3 5 C-5.92879371 4.37240135 -8.36095629 3.41377341 -11 2 C-11 1.67 -11 1.34 -11 1 C-3.375 0 -3.375 0 0 0 Z " fill="#ECE2EA" transform="translate(18,41)"/>
<path d="M0 0 C0.33 0.66 0.66 1.32 1 2 C3.35599235 2.46751788 3.35599235 2.46751788 6.0625 2.625 C7.44115234 2.73714844 7.44115234 2.73714844 8.84765625 2.8515625 C9.55792969 2.90054688 10.26820312 2.94953125 11 3 C11 3.33 11 3.66 11 4 C9.02 4 7.04 4 5 4 C5 4.66 5 5.32 5 6 C2 8 2 8 -0.1875 7.625 C-0.785625 7.41875 -1.38375 7.2125 -2 7 C-1.01 7 -0.02 7 1 7 C0.67 4.69 0.34 2.38 0 0 Z " fill="#D8BBBE" transform="translate(13,34)"/>
<path d="M0 0 C0 1.32 0 2.64 0 4 C-2.31 4 -4.62 4 -7 4 C-6.625 2.0625 -6.625 2.0625 -6 0 C-3.50907189 -1.24546405 -2.58919267 -0.7767578 0 0 Z " fill="#DEC3D7" transform="translate(40,17)"/>
<path d="M0 0 C0.33 0.99 0.66 1.98 1 3 C1.99 2.67 2.98 2.34 4 2 C3.67 3.98 3.34 5.96 3 8 C1.68 7.67 0.36 7.34 -1 7 C-1 6.34 -1 5.68 -1 5 C-1.66 4.67 -2.32 4.34 -3 4 C-2.01 4 -1.02 4 0 4 C0 2.68 0 1.36 0 0 Z " fill="#D3BD9A" transform="translate(59,38)"/>
<path d="M0 0 C0.99 0 1.98 0 3 0 C2.6875 1.9375 2.6875 1.9375 2 4 C1.01 4.33 0.02 4.66 -1 5 C-2.21869929 7.50447516 -2.21869929 7.50447516 -3 10 C-3.66 10 -4.32 10 -5 10 C-4.42513981 6.11969373 -2.47533166 3.95442811 0 1 C0 0.67 0 0.34 0 0 Z " fill="#E4E3EE" transform="translate(58,0)"/>
<path d="M0 0 C7.42857143 1 7.42857143 1 11 2 C7.00439392 4.83022097 3.57262677 3.76210446 -1 3 C-0.67 2.01 -0.34 1.02 0 0 Z " fill="#D4CAD0" transform="translate(8,44)"/>
<path d="M0 0 C1.32 0 2.64 0 4 0 C4 0.66 4 1.32 4 2 C4.99 2.33 5.98 2.66 7 3 C6.01 3.33 5.02 3.66 4 4 C3.67 4.66 3.34 5.32 3 6 C2.01 6 1.02 6 0 6 C0 4.02 0 2.04 0 0 Z " fill="#4F6A4A" transform="translate(4,32)"/>
<path d="M0 0 C2.875 0.6875 2.875 0.6875 6 2 C7.64407322 4.71629488 8.13421594 6.17233506 7.625 9.3125 C7.41875 9.869375 7.2125 10.42625 7 11 C6.5875 9.88625 6.175 8.7725 5.75 7.625 C4.64453484 5.00679305 4.25119213 4.16506911 1.8125 2.5625 C1.214375 2.376875 0.61625 2.19125 0 2 C0 1.34 0 0.68 0 0 Z " fill="#344B58" transform="translate(34,10)"/>
<path d="M0 0 C2 1.3125 2 1.3125 4 3 C4 3.99 4 4.98 4 6 C2.02 6 0.04 6 -2 6 C-2.33 4.68 -2.66 3.36 -3 2 C-2.01 1.34 -1.02 0.68 0 0 Z " fill="#284A59" transform="translate(57,51)"/>
<path d="M0 0 C2.475 0.99 2.475 0.99 5 2 C4.01 2.495 4.01 2.495 3 3 C3.99 4.485 3.99 4.485 5 6 C4.67 6.99 4.34 7.98 4 9 C4 8.34 4 7.68 4 7 C2.68 6.34 1.36 5.68 0 5 C0 3.35 0 1.7 0 0 Z " fill="#0F323B" transform="translate(47,41)"/>
<path d="M0 0 C0.66 0.33 1.32 0.66 2 1 C2 2.98 2 4.96 2 7 C-0.97 6.505 -0.97 6.505 -4 6 C-3.0022242 3.00667261 -2.2477975 2.05233685 0 0 Z " fill="#D2CFD2" transform="translate(55,10)"/>
<path d="M0 0 C1.98 0.66 3.96 1.32 6 2 C6 2.99 6 3.98 6 5 C5.01 5 4.02 5 3 5 C3 5.66 3 6.32 3 7 C2.34 7 1.68 7 1 7 C0.67 4.69 0.34 2.38 0 0 Z " fill="#95A5A5" transform="translate(55,8)"/>
<path d="M0 0 C1.98 0.66 3.96 1.32 6 2 C6 2.66 6 3.32 6 4 C4 6 4 6 2 7 C1.34 6.01 0.68 5.02 0 4 C-0.66 3.67 -1.32 3.34 -2 3 C-1 1 -1 1 0 0 Z " fill="#2B5062" transform="translate(41,52)"/>
<path d="M0 0 C2.475 0.99 2.475 0.99 5 2 C5 2.66 5 3.32 5 4 C6.32 4 7.64 4 9 4 C9 5.32 9 6.64 9 8 C5.5967577 6.8655859 3.66137199 5.38122757 1 3 C0.67 2.01 0.34 1.02 0 0 Z " fill="#A09D92" transform="translate(41,34)"/>
<path d="M0 0 C2.97 0.495 2.97 0.495 6 1 C6 1.99 6 2.98 6 4 C4.35 4.33 2.7 4.66 1 5 C0.67 3.35 0.34 1.7 0 0 Z " fill="#B7959B" transform="translate(24,26)"/>
<path d="M0 0 C0.33 0 0.66 0 1 0 C1.33 2.31 1.66 4.62 2 7 C1.34 7 0.68 7 0 7 C0.33 7.99 0.66 8.98 1 10 C0.01 10.495 0.01 10.495 -1 11 C-1.22174933 9.54364629 -1.42698698 8.08477044 -1.625 6.625 C-1.74101562 5.81289063 -1.85703125 5.00078125 -1.9765625 4.1640625 C-1.98429687 3.44992188 -1.99203125 2.73578125 -2 2 C-1.34 1.34 -0.68 0.68 0 0 Z " fill="#88756E" transform="translate(24,16)"/>
<path d="M0 0 C2.64 0 5.28 0 8 0 C8 0.33 8 0.66 8 1 C5.69 1 3.38 1 1 1 C1.66 2.65 2.32 4.3 3 6 C2.01 6.495 2.01 6.495 1 7 C1 6.01 1 5.02 1 4 C0.01 4 -0.98 4 -2 4 C-1.34 2.68 -0.68 1.36 0 0 Z " fill="#324853" transform="translate(24,9)"/>
<path d="M0 0 C1.98 0 3.96 0 6 0 C5.01 0.495 5.01 0.495 4 1 C4 2.32 4 3.64 4 5 C2.68 4.67 1.36 4.34 0 4 C0 2.68 0 1.36 0 0 Z " fill="#687964" transform="translate(42,31)"/>
<path d="M0 0 C1.32 0.33 2.64 0.66 4 1 C3.67 2.32 3.34 3.64 3 5 C1.02 5.33 -0.96 5.66 -3 6 C-3 5.01 -3 4.02 -3 3 C-1.68 3 -0.36 3 1 3 C0.67 2.01 0.34 1.02 0 0 Z " fill="#C5928E" transform="translate(36,28)"/>
<path d="M0 0 C0.99 0.33 1.98 0.66 3 1 C3.33 3.64 3.66 6.28 4 9 C3.01 9.495 3.01 9.495 2 10 C0.68373308 6.38026598 0 3.90432869 0 0 Z " fill="#B89EA8" transform="translate(40,18)"/>
<path d="M0 0 C0.99 0.495 0.99 0.495 2 1 C2 2.32 2 3.64 2 5 C3.32 5.66 4.64 6.32 6 7 C3 8 3 8 0 7 C0 4.69 0 2.38 0 0 Z " fill="#DEB8C6" transform="translate(32,24)"/>
<path d="M0 0 C0 0.33 0 0.66 0 1 C-1.65 1 -3.3 1 -5 1 C-5 1.66 -5 2.32 -5 3 C-6.32 3 -7.64 3 -9 3 C-9.33 3.99 -9.66 4.98 -10 6 C-10 4.35 -10 2.7 -10 1 C-6.78548731 -0.60725635 -3.56387464 -0.05748185 0 0 Z " fill="#648060" transform="translate(10,24)"/>
<path d="M0 0 C1.98 0.495 1.98 0.495 4 1 C3.67 2.32 3.34 3.64 3 5 C1.68 5 0.36 5 -1 5 C-0.67 3.35 -0.34 1.7 0 0 Z " fill="#816863" transform="translate(35,21)"/>
<path d="M0 0 C0.99 0 1.98 0 3 0 C3 2.31 3 4.62 3 7 C2.01 6.67 1.02 6.34 0 6 C0 4.02 0 2.04 0 0 Z " fill="#D1C6D5" transform="translate(58,57)"/>
<path d="M0 0 C2.31 0 4.62 0 7 0 C7.33 0.99 7.66 1.98 8 3 C7.01 3.495 7.01 3.495 6 4 C5.34 3.67 4.68 3.34 4 3 C3.67 3.66 3.34 4.32 3 5 C3 4.34 3 3.68 3 3 C2.01 2.67 1.02 2.34 0 2 C0 1.34 0 0.68 0 0 Z " fill="#21434D" transform="translate(37,49)"/>
<path d="M0 0 C2.875 -0.125 2.875 -0.125 6 0 C6.66 0.66 7.32 1.32 8 2 C3.545 2.495 3.545 2.495 -1 3 C-0.67 2.01 -0.34 1.02 0 0 Z " fill="#EEE9F1" transform="translate(47,21)"/>
<path d="M0 0 C1.32 0.33 2.64 0.66 4 1 C4 3.64 4 6.28 4 9 C1.18167487 7.59083743 0.97406539 5.92219617 0 3 C0 2.01 0 1.02 0 0 Z " fill="#496A80" transform="translate(44,39)"/>
<path d="M0 0 C1.32 0.33 2.64 0.66 4 1 C3.67 2.32 3.34 3.64 3 5 C2.01 5 1.02 5 0 5 C0 3.35 0 1.7 0 0 Z " fill="#7D8260" transform="translate(52,34)"/>
<path d="M0 0 C0.33 0.66 0.66 1.32 1 2 C1.99 2.33 2.98 2.66 4 3 C4 3.66 4 4.32 4 5 C1.36 5.33 -1.28 5.66 -4 6 C-2.68 5.67 -1.36 5.34 0 5 C0 3.35 0 1.7 0 0 Z " fill="#C9C3B1" transform="translate(51,24)"/>
<path d="M0 0 C0.66 0 1.32 0 2 0 C2.33 1.65 2.66 3.3 3 5 C1.35 4.67 -0.3 4.34 -2 4 C-1.34 2.68 -0.68 1.36 0 0 Z " fill="#3A5B52" transform="translate(8,14)"/>
<path d="M0 0 C1.32 0 2.64 0 4 0 C4.33 1.32 4.66 2.64 5 4 C3.35 4 1.7 4 0 4 C0 2.68 0 1.36 0 0 Z " fill="#A9AB8C" transform="translate(1,27)"/>
<path d="M0 0 C1.65 0 3.3 0 5 0 C5 1.32 5 2.64 5 4 C3.68 4 2.36 4 1 4 C0.67 2.68 0.34 1.36 0 0 Z " fill="#ABA9A2" transform="translate(14,19)"/>
<path d="M0 0 C0.33 0 0.66 0 1 0 C1 1.98 1 3.96 1 6 C-0.32 6.33 -1.64 6.66 -3 7 C-1.125 2.25 -1.125 2.25 0 0 Z " fill="#A3A891" transform="translate(63,1)"/>
</svg>
