<?xml version="1.0" encoding="iso-8859-1"?>
<!-- Uploaded to: SVG Repo, www.svgrepo.com, Generator: SVG Repo Mixer Tools -->
<svg version="1.1" id="Layer_1" xmlns="http://www.w3.org/2000/svg" xmlns:xlink="http://www.w3.org/1999/xlink" 
	 viewBox="0 0 512 512" xml:space="preserve">
<path style="fill:#BFE4F8;" d="M256,42.667C138.368,42.667,42.667,138.368,42.667,256S138.368,469.333,256,469.333
	S469.333,373.632,469.333,256S373.632,42.667,256,42.667z M256,432.762c-97.467,0-176.762-79.295-176.762-176.762
	S158.533,79.238,256,79.238S432.762,158.533,432.762,256S353.467,432.762,256,432.762z"/>
<rect x="207.238" y="237.714" style="fill:#FF5023;" width="97.524" height="36.571"/>
<rect x="256" y="237.714" style="fill:#802812;" width="48.762" height="36.571"/>
<path style="fill:#93C7EF;" d="M256,42.667v36.571c97.467,0,176.762,79.295,176.762,176.762S353.467,432.762,256,432.762v36.571
	c117.632,0,213.333-95.701,213.333-213.333S373.632,42.667,256,42.667z"/>
<g>
	<rect x="237.714" style="fill:#FF5023;" width="36.571" height="134.095"/>
	<rect y="237.714" style="fill:#FF5023;" width="134.095" height="36.571"/>
	<rect x="237.714" y="377.905" style="fill:#FF5023;" width="36.571" height="134.095"/>
</g>
<g>
	<rect x="256" style="fill:#802812;" width="18.286" height="134.095"/>
	<rect x="256" y="377.905" style="fill:#802812;" width="18.286" height="134.095"/>
	<rect x="377.905" y="237.714" style="fill:#802812;" width="134.095" height="36.571"/>
</g>
</svg>