<?xml version="1.0" encoding="UTF-8"?>
<svg version="1.1" xmlns="http://www.w3.org/2000/svg" width="560" height="560">
<path d="M0 0 C1.57593288 1.19076079 3.1396065 2.39801125 4.6875 3.625 C5.64269531 4.33462891 5.64269531 4.33462891 6.6171875 5.05859375 C15.16457334 11.76354308 22.55445106 22.83875766 23.95800781 33.72265625 C25.37851569 51.97499214 18.68108417 67.04671708 7.5 81.1875 C0.40487538 89.47939263 -7.26852764 97.32469547 -15.8125 104.125 C-27.2322557 113.23756668 -36.65349799 123.90987963 -45.3125 135.625 C-45.94671875 136.47578125 -46.5809375 137.3265625 -47.234375 138.203125 C-53.97143103 147.53611088 -59.62820209 157.62936102 -65.3125 167.625 C-65.9725 167.625 -66.6325 167.625 -67.3125 167.625 C-67.3125 135.945 -67.3125 104.265 -67.3125 71.625 C-51.1425 71.625 -34.9725 71.625 -18.3125 71.625 C-18.3125 65.355 -18.3125 59.085 -18.3125 52.625 C-34.4825 52.625 -50.6525 52.625 -67.3125 52.625 C-67.456875 46.499375 -67.60125 40.37375 -67.75 34.0625 C-67.81372803 32.14236084 -67.87745605 30.22222168 -67.94311523 28.24389648 C-68.17913482 16.30473297 -68.17913482 16.30473297 -65.96484375 12.01293945 C-64.18798625 10.17534952 -62.50600058 8.92610948 -60.3125 7.625 C-59.73717529 7.20226807 -59.16185059 6.77953613 -58.5690918 6.34399414 C-56.89933601 5.12534076 -55.19563663 4.02393068 -53.4375 2.9375 C-52.82890137 2.5552124 -52.22030273 2.1729248 -51.59326172 1.77905273 C-46.99103678 -1.06335454 -42.41357769 -3.56816035 -37.3125 -5.375 C-36.68472656 -5.59800781 -36.05695313 -5.82101563 -35.41015625 -6.05078125 C-23.02444068 -9.77409452 -10.54851692 -7.19724831 0 0 Z " fill="#C20846" transform="translate(354.3125,149.375)"/>
<path d="M0 0 C3.46601789 2.52389572 6.79032897 5.15730501 10 8 C10.86214111 8.68980957 11.72428223 9.37961914 12.61254883 10.09033203 C15.83456193 14.01710902 15.65107992 16.66038383 15.48828125 21.58203125 C15.48324585 22.30434937 15.47821045 23.02666748 15.47302246 23.77087402 C15.44699382 26.45182366 15.37718613 29.13220447 15.3125 31.8125 C15.209375 37.814375 15.10625 43.81625 15 50 C-0.84 50 -16.68 50 -33 50 C-33 56.27 -33 62.54 -33 69 C-17.16 69 -1.32 69 15 69 C15 101.34 15 133.68 15 167 C11.44327328 165.81442443 11.30829733 165.25468227 9.65234375 162.0546875 C9.21728516 161.23242676 8.78222656 160.41016602 8.33398438 159.56298828 C7.87314453 158.67595215 7.41230469 157.78891602 6.9375 156.875 C-5.30900788 134.00428061 -20.98762918 114.823511 -39.41723633 96.67285156 C-55.86939221 80.43783073 -75.50902676 60.19623022 -76.3125 35.5 C-76.10340243 22.70703072 -70.42926869 12.89619882 -61.90234375 3.75 C-43.5769748 -13.81042614 -20.55572235 -13.30792692 0 0 Z " fill="#B90644" transform="translate(254,152)"/>
<path d="M0 0 C-2.26252328 8.15304714 -5.19810591 15.98883841 -8.25 23.875 C-11.43412283 32.11199012 -14.50460968 40.36752228 -17.3984375 48.7109375 C-20.89471634 58.7867643 -24.60785885 68.77282857 -28.375 78.75 C-29.03155787 80.49405538 -29.68788672 82.23819699 -30.34399414 83.98242188 C-31.63305957 87.40860162 -32.92320105 90.83437259 -34.21435547 94.25976562 C-36.63010974 100.67016689 -39.0340987 107.08495869 -41.4375 113.5 C-42.14446397 115.3854419 -42.85148657 117.27086181 -43.55859375 119.15625 C-43.84017334 119.90712891 -44.12175293 120.65800781 -44.41186523 121.43164062 C-44.60594971 121.94919922 -44.80003418 122.46675781 -45 123 C-34.03767385 123.20026578 -23.23423003 122.60614156 -12.3125 121.75 C-11.46426666 121.68508362 -10.61603333 121.62016724 -9.74209595 121.55328369 C3.43811166 120.53326974 16.43842274 119.0128372 29.48828125 116.8671875 C39.32779308 115.28071389 49.01971455 114.78694004 58.97460938 114.75976562 C61.10066646 114.75011051 63.22573277 114.71900836 65.3515625 114.6875 C80.08095418 114.57302893 93.42533936 117.11919667 107 123 C107 126.63 107 130.26 107 134 C101.26430518 136.29427793 101.26430518 136.29427793 97 135 C95.61342093 134.40112733 94.23875615 133.77416806 92.875 133.125 C69.65049157 123.80799369 42.20963502 127.47128149 18.2265625 130.98046875 C-7.6278772 134.73993279 -33.91493376 135.23313366 -60 135 C-58.0793102 129.06592854 -55.98287578 123.23613966 -53.6875 117.4375 C-50.97553495 110.52277374 -48.32450527 103.59024442 -45.72827148 96.63110352 C-39.23740273 79.23524188 -32.69743392 61.85899306 -26.05078125 44.52197266 C-25.17430694 42.23307183 -24.30000182 39.94333934 -23.42773438 37.65283203 C-22.13902635 34.26925751 -20.84367267 30.88829352 -19.546875 27.5078125 C-19.16343933 26.49727814 -18.78000366 25.48674377 -18.38494873 24.44558716 C-8.96610176 0 -8.96610176 0 0 0 Z " fill="#231F20" transform="translate(162,210)"/>
<path d="M0 0 C5.66130694 1.37243805 8.78587028 5.41184821 12 10 C14.27803275 14.55755368 16.04269087 19.29077936 17.8125 24.0625 C18.36063277 25.50068859 18.9104109 26.93825095 19.46166992 28.37524414 C20.66855124 31.52962925 21.86507712 34.68769487 23.0546875 37.84863281 C25.10546454 43.29146207 27.19155806 48.72045193 29.28125 54.1484375 C32.71345527 63.06926592 36.12837102 71.99655751 39.5344696 80.92738342 C41.86167676 87.02657657 44.19833436 93.12203793 46.54344177 99.21437073 C48.04902511 103.12704731 49.55074539 107.04119997 51.05184937 110.95559692 C51.76337862 112.80836528 52.47659689 114.66048594 53.19155884 116.51193237 C54.17655469 119.0635166 55.1554002 121.61737811 56.1328125 124.171875 C56.57201775 125.30276299 56.57201775 125.30276299 57.02009583 126.45649719 C58.1587573 129.44792851 59 131.77012693 59 135 C29.27137977 135.59523378 -0.80113715 133.89710575 -30.1953125 129.36328125 C-51.07761561 126.28978987 -77.93996472 124.67722979 -97.1015625 135.1484375 C-100.1375536 136.51026067 -102.82319061 135.61092488 -106 135 C-106 130.71 -106 126.42 -106 122 C-102.83568008 121.01265972 -99.66888912 120.0349751 -96.5 119.0625 C-95.613125 118.78470703 -94.72625 118.50691406 -93.8125 118.22070312 C-83.50574397 115.07562684 -73.79156766 114.76207857 -63.0625 114.75 C-62.35813812 114.74866058 -61.65377625 114.74732117 -60.92807007 114.74594116 C-46.70952791 114.75176226 -32.86827615 116.14039238 -18.82113647 118.34140015 C-4.63187551 120.5603781 9.48072974 121.83088041 23.8125 122.6875 C25.88481355 122.81759822 27.95707966 122.94845441 30.02929688 123.08007812 C35.01903085 123.39540822 40.00928272 123.70065322 45 124 C44.44992638 122.51903256 43.89985243 121.03806524 43.34977722 119.55709839 C42.84880575 118.20832505 42.34783956 116.85954975 41.84687805 115.51077271 C40.40829419 111.6375891 38.96960904 107.76444316 37.53076172 103.89135742 C34.60840019 96.0246483 31.68708376 88.15755653 28.76953125 80.2890625 C22.22676596 62.64776013 15.64496153 45.02151586 9.02392578 27.40942383 C7.59210846 23.60011527 6.16466597 19.78919528 4.74041748 15.97705078 C4.05759813 14.15379759 3.36914498 12.33265694 2.68017578 10.51171875 C2.31263184 9.52816406 1.94508789 8.54460937 1.56640625 7.53125 C1.25775635 6.71205078 0.94910645 5.89285156 0.63110352 5.04882812 C0 3 0 3 0 0 Z " fill="#231F20" transform="translate(393,210)"/>
<path d="M0 0 C5.07505276 0.07583761 8.52048636 0.56355394 12.80395508 3.25317383 C15.2263765 6.88680597 14.97698209 8.25160972 14.36254883 12.37817383 C13.80395508 14.25317383 13.80395508 14.25317383 11.74145508 16.25317383 C11.10208008 16.58317383 10.46270508 16.91317383 9.80395508 17.25317383 C10.60833008 17.87192383 11.41270508 18.49067383 12.24145508 19.12817383 C15.45366346 21.79195639 15.72501093 22.41636583 16.11645508 26.56567383 C15.75283073 30.85644118 14.90150647 32.32770862 11.80395508 35.25317383 C8.99065142 36.1959611 6.42889884 36.37192343 3.47583008 36.35083008 C2.67661133 36.34760742 1.87739258 36.34438477 1.05395508 36.34106445 C0.22895508 36.33268555 -0.59604492 36.32430664 -1.44604492 36.31567383 C-2.28651367 36.31116211 -3.12698242 36.30665039 -3.99291992 36.30200195 C-6.06065894 36.29025344 -8.12836116 36.27231905 -10.19604492 36.25317383 C-10.2206959 31.28695034 -10.23888141 26.32076216 -10.25097656 21.35449219 C-10.25601682 19.66373067 -10.26284897 17.97297354 -10.27148438 16.28222656 C-10.28356349 13.85716676 -10.28927615 11.43216439 -10.29370117 9.00708008 C-10.29886246 8.24665909 -10.30402374 7.4862381 -10.30934143 6.70277405 C-10.3095373 4.88584812 -10.25801769 3.06904255 -10.19604492 1.25317383 C-7.91958646 -1.02328464 -3.0742563 0.00471123 0 0 Z M-4.19604492 5.25317383 C-4.19604492 8.55317383 -4.19604492 11.85317383 -4.19604492 15.25317383 C2.20220771 15.72643752 2.20220771 15.72643752 7.80395508 13.25317383 C8.88964011 11.41049515 8.88964011 11.41049515 8.80395508 9.25317383 C7.52044085 6.79828953 7.52044085 6.79828953 4.80395508 5.25317383 C1.72153813 4.91421389 -1.07848998 5.06978824 -4.19604492 5.25317383 Z M-4.19604492 20.25317383 C-4.19604492 23.88317383 -4.19604492 27.51317383 -4.19604492 31.25317383 C3.30514427 31.68539106 3.30514427 31.68539106 9.80395508 28.25317383 C9.49605246 25.40507456 9.14917317 23.67031235 7.30395508 21.44067383 C3.44913708 19.60963528 0.04291622 20.06616084 -4.19604492 20.25317383 Z " fill="#AF0342" transform="translate(326.196044921875,366.746826171875)"/>
<path d="M0 0 C2.4375 1.5 2.4375 1.5 4 3 C4.5259375 2.2575 4.5259375 2.2575 5.0625 1.5 C8.02552179 -0.79395236 10.37042697 -0.38888282 14 0 C16.61593153 1.83115207 16.96989455 2.90968366 18 6 C18.08143855 7.62719482 18.1075302 9.25751719 18.09765625 10.88671875 C18.09443359 11.82451172 18.09121094 12.76230469 18.08789062 13.72851562 C18.07532227 15.19321289 18.07532227 15.19321289 18.0625 16.6875 C18.05798828 17.67556641 18.05347656 18.66363281 18.04882812 19.68164062 C18.03704303 22.12115474 18.02059011 24.56054689 18 27 C16.02 27 14.04 27 12 27 C11.67 19.74 11.34 12.48 11 5 C6.05536365 6.33563616 6.05536365 6.33563616 5 9 C4.84995027 10.3734635 4.75161994 11.7528526 4.68359375 13.1328125 C4.64169922 13.93847656 4.59980469 14.74414062 4.55664062 15.57421875 C4.51732422 16.41597656 4.47800781 17.25773437 4.4375 18.125 C4.39431641 18.97449219 4.35113281 19.82398438 4.30664062 20.69921875 C4.20045764 22.79928223 4.09971503 24.89961948 4 27 C2.02 27 0.04 27 -2 27 C-2.33 20.07 -2.66 13.14 -3 6 C-7.63019987 6.4452998 -7.63019987 6.4452998 -9 8 C-9.15620555 9.41327947 -9.25056173 10.8335459 -9.31640625 12.25390625 C-9.35830078 13.10791016 -9.40019531 13.96191406 -9.44335938 14.84179688 C-9.50233398 16.18854492 -9.50233398 16.18854492 -9.5625 17.5625 C-9.60568359 18.46419922 -9.64886719 19.36589844 -9.69335938 20.29492188 C-9.79978142 22.52978485 -9.90179988 24.76476308 -10 27 C-11.98 27 -13.96 27 -16 27 C-16 18.42 -16 9.84 -16 1 C-13.69 1 -11.38 1 -9 1 C-5.94306678 -0.52846661 -3.37015453 -0.23242445 0 0 Z " fill="#B00341" transform="translate(541,376)"/>
<path d="M0 0 C1.98 0 3.96 0 6 0 C6.33 4.29 6.66 8.58 7 13 C7.99 12.34 8.98 11.68 10 11 C11.9375 10.6640625 11.9375 10.6640625 14 10.625 C14.680625 10.59664063 15.36125 10.56828125 16.0625 10.5390625 C18 11 18 11 19.6027832 12.68994141 C21.30379918 15.5022799 21.34741749 17.15495054 21.29296875 20.421875 C21.28330078 21.44667969 21.27363281 22.47148437 21.26367188 23.52734375 C21.23853516 24.59082031 21.21339844 25.65429688 21.1875 26.75 C21.16719727 28.36841797 21.16719727 28.36841797 21.14648438 30.01953125 C21.11116584 32.6801942 21.06184199 35.33984296 21 38 C19.02 38 17.04 38 15 38 C14.67 31.07 14.34 24.14 14 17 C12.35 17.33 10.7 17.66 9 18 C6.81005752 21.28491373 6.64722661 22.83095639 6.375 26.6875 C6.26285156 28.17830078 6.26285156 28.17830078 6.1484375 29.69921875 C6.09945312 30.45847656 6.05046875 31.21773438 6 32 C7.32 32.33 8.64 32.66 10 33 C8.02 33.495 8.02 33.495 6 34 C6 35.32 6 36.64 6 38 C4.02 38 2.04 38 0 38 C0 25.46 0 12.92 0 0 Z " fill="#B00242" transform="translate(149,365)"/>
<path d="M0 0 C0.67675781 -0.00386719 1.35351562 -0.00773437 2.05078125 -0.01171875 C5.14073767 -0.00562416 7.54679311 0.1405977 10.5 1.125 C10.5 3.105 10.5 5.085 10.5 7.125 C9.7265625 6.95742188 8.953125 6.78984375 8.15625 6.6171875 C1.68146429 5.35107841 -3.3622609 4.39711596 -9.5 7.125 C-12.31050451 11.80917419 -12.05304701 17.79077238 -11.5 23.125 C-10.14483801 26.87162432 -8.88899869 27.8684264 -5.5625 30.0625 C-0.32470528 32.09440312 5.21755421 30.33068139 10.5 29.125 C10.5 30.775 10.5 32.425 10.5 34.125 C6.77226672 36.50581693 3.41171514 36.42456874 -0.9375 36.4375 C-2.23558594 36.45425781 -3.53367187 36.47101563 -4.87109375 36.48828125 C-9.96803541 35.97803844 -12.41568214 34.35991756 -15.75 30.5625 C-18.6860308 26.47302853 -18.69059042 23.92481391 -18.75 18.875 C-18.77578125 17.57046875 -18.8015625 16.2659375 -18.828125 14.921875 C-18.37182231 9.64180103 -16.88188693 6.40324541 -13 2.8125 C-8.7322228 -0.06824961 -4.96898259 -0.02839419 0 0 Z " fill="#AF0242" transform="translate(131.5,366.875)"/>
<path d="M0 0 C2.87029869 1.79393668 4.49131638 2.98263276 6 6 C6.13559318 9.00474497 6.04299016 11.99068847 6 15 C0.72 15 -4.56 15 -10 15 C-8.60924406 20.18168665 -8.60924406 20.18168665 -4.8125 21.375 C-0.86913508 22.02145327 2.10448659 21.79500274 6 21 C6 22.65 6 24.3 6 26 C1.81834124 28.09082938 -3.44634223 27.43396477 -8 27 C-11.19611014 25.82728278 -13.27428034 24.14800254 -15.12109375 21.2265625 C-16.91454994 16.68314015 -16.64440663 11.77881746 -16 7 C-12.51770166 0.10013005 -7.13117933 -0.92372789 0 0 Z M-8.8125 6.375 C-10.1966722 7.93368783 -10.1966722 7.93368783 -10 10 C-6.7 10 -3.4 10 0 10 C-0.57125354 6.25724788 -0.57125354 6.25724788 -2 5 C-4.92728993 4.69186422 -6.42560445 4.56425165 -8.8125 6.375 Z " fill="#B00242" transform="translate(100,376)"/>
<path d="M0 0 C3.76041161 2.7419668 5.8213751 5.49979583 7 10 C7.50527635 15.45698461 6.59712879 19.17676083 4 24 C0.28374545 27.45023199 -2.68444927 27.56636379 -7.58984375 27.421875 C-11.3091568 26.77084451 -12.83025161 24.98340404 -15 22 C-17.49166434 17.69701938 -17.68143563 13.87678028 -17 9 C-13.78572147 0.60804128 -8.46321919 -1.32491291 0 0 Z M-10 7 C-11.20907942 11.96307599 -11.5694552 16.43207964 -9 21 C-7.88741409 22.32745166 -7.88741409 22.32745166 -5.0625 22.25 C-4.051875 22.1675 -3.04125 22.085 -2 22 C0.23465229 18.64802157 0.27108649 17.42208754 0.25 13.5 C0.25515625 12.5409375 0.2603125 11.581875 0.265625 10.59375 C0.17982609 7.76377103 0.17982609 7.76377103 -2 5 C-6.50565109 4.44745736 -6.50565109 4.44745736 -10 7 Z " fill="#B00242" transform="translate(47,376)"/>
<path d="M0 0 C3.42266633 2.56699975 5.34195635 5.10468349 7 9 C7.78778935 14.62706678 7.20098795 19.19851807 4 24 C0.23542068 27.41343635 -2.65759494 27.57051253 -7.58984375 27.41796875 C-11.3443367 26.76686543 -12.83938703 25.03836198 -15 22 C-17.22203751 17.97917022 -17.46262478 14.54914366 -17 10 C-13.78858025 1.26746944 -9.34419668 -1.47775634 0 0 Z M-8 5 C-10.95124312 10.33493949 -11.19642311 13.29557926 -9.640625 19.1796875 C-9.14917654 20.99491202 -9.14917654 20.99491202 -8 22 C-5.04182893 22.25005386 -5.04182893 22.25005386 -2 22 C1.09295516 18.90704484 0.95591267 15.2544269 1 11 C0.04783995 7.67154661 0.04783995 7.67154661 -2 5 C-3.99958364 4.95919217 -6.00045254 4.95745644 -8 5 Z " fill="#B00242" transform="translate(512,376)"/>
<path d="M0 0 C1.2684375 -0.02513672 1.2684375 -0.02513672 2.5625 -0.05078125 C5.56566698 0.39680614 6.79464943 1.24362762 9 3.3125 C9.54589844 5.48901367 9.54589844 5.48901367 9.609375 7.98046875 C9.64160156 8.87314453 9.67382812 9.76582031 9.70703125 10.68554688 C9.72121094 11.61431641 9.73539062 12.54308594 9.75 13.5 C9.77964844 14.44037109 9.80929687 15.38074219 9.83984375 16.34960938 C9.91053562 18.67065916 9.96323165 20.99070535 10 23.3125 C10.99 23.3125 11.98 23.3125 13 23.3125 C13 24.6325 13 25.9525 13 27.3125 C9.625 27.4375 9.625 27.4375 6 27.3125 C5.34 26.6525 4.68 25.9925 4 25.3125 C3.01 25.9725 2.02 26.6325 1 27.3125 C-3.0058044 27.63042098 -5.78330061 27.79917975 -9.5 26.3125 C-11.45407251 23.70706999 -11.55366757 21.45630222 -11.39453125 18.25 C-10.7924921 15.29345131 -9.40715761 14.0318983 -7 12.3125 C-4.24921116 11.39557039 -2.64051087 11.20363917 0.1875 11.25 C2.0746875 11.2809375 2.0746875 11.2809375 4 11.3125 C3.67 9.3325 3.34 7.3525 3 5.3125 C-3.06264222 5.97514086 -3.06264222 5.97514086 -9 7.3125 C-9 5.6625 -9 4.0125 -9 2.3125 C-5.89998878 0.51133608 -3.57517903 0.0163499 0 0 Z M-5 17.3125 C-4.67958603 19.91530568 -4.67958603 19.91530568 -4 22.3125 C0.34184202 22.12785634 0.34184202 22.12785634 4 20.3125 C4.04063832 18.64632885 4.042721 16.97861905 4 15.3125 C-1.0205829 14.80958619 -1.0205829 14.80958619 -5 17.3125 Z " fill="#AF0242" transform="translate(270,375.6875)"/>
<path d="M0 0 C1.65 0 3.3 0 5 0 C5.33 6.6 5.66 13.2 6 20 C7.98 17.36 9.96 14.72 12 12 C15.375 11.5 15.375 11.5 18 12 C17.65066406 12.60328125 17.30132812 13.2065625 16.94140625 13.828125 C16.48636719 14.62734375 16.03132813 15.4265625 15.5625 16.25 C15.11003906 17.03890625 14.65757812 17.8278125 14.19140625 18.640625 C12.57339463 21.68387433 12.57339463 21.68387433 12 25 C13.64218102 27.83537868 13.64218102 27.83537868 15.9375 30.625 C20 35.82332762 20 35.82332762 20 38 C17.2734375 38.3125 17.2734375 38.3125 14 38 C11.6640625 35.8125 11.6640625 35.8125 9.625 33 C8.93664062 32.071875 8.24828125 31.14375 7.5390625 30.1875 C6.77722656 29.1046875 6.77722656 29.1046875 6 28 C5.67 31.3 5.34 34.6 5 38 C3.35 38 1.7 38 0 38 C0 25.46 0 12.92 0 0 Z " fill="#AF0342" transform="translate(406,365)"/>
<path d="M0 0 C3.0717718 1.71077974 5.40485654 3.80971307 7 7 C7.14901491 9.10053716 7.22138453 11.20687825 7.25 13.3125 C7.27578125 14.44300781 7.3015625 15.57351563 7.328125 16.73828125 C6.96360821 20.36175168 6.23873288 22.15116198 4 25 C-0.00955952 27.70583771 -4.32676807 27.68429467 -9 27 C-12.61106282 24.84872854 -14.43153745 22.84923997 -16 19 C-16.6949651 13.65038492 -16.65184874 9.28121994 -14.1875 4.4375 C-9.90321557 -0.33641694 -6.1418583 -1.0567763 0 0 Z M-7.75 5.875 C-10.36567766 9.50788564 -10.72681398 11.46711418 -10.5078125 15.83984375 C-9.70693788 19.24664118 -7.69155497 20.9140449 -5 23 C-1.27385847 21.88145414 -1.27385847 21.88145414 1 19 C1.12176503 17.19051505 1.17545792 15.37603729 1.1875 13.5625 C1.20876953 12.11037109 1.20876953 12.11037109 1.23046875 10.62890625 C1.19149451 7.76733273 1.19149451 7.76733273 -1 5 C-4.08604223 3.29735601 -4.80944893 3.87007882 -7.75 5.875 Z " fill="#B00242" transform="translate(392,376)"/>
<path d="M0 0 C3.0717718 1.71077974 5.40485654 3.80971307 7 7 C8.04817082 17.84108101 8.04817082 17.84108101 5.953125 22.15625 C3.68152111 24.88217467 1.57932994 26.81072863 -1.98828125 27.23828125 C-6.05070018 27.36800555 -8.37166461 27.37432746 -11.9375 25.25 C-16.15133676 20.65308717 -16.42984379 16.7848459 -16.32421875 10.69921875 C-15.87385154 6.94977611 -14.49880251 4.78437994 -12 2 C-7.97818385 -0.68121076 -4.72763609 -0.81344335 0 0 Z M-7.75 5.875 C-10.36567766 9.50788564 -10.72681398 11.46711418 -10.5078125 15.83984375 C-9.70693788 19.24664118 -7.69155497 20.9140449 -5 23 C-1.27385847 21.88145414 -1.27385847 21.88145414 1 19 C1.12176503 17.19051505 1.17545792 15.37603729 1.1875 13.5625 C1.20876953 12.11037109 1.20876953 12.11037109 1.23046875 10.62890625 C1.19149451 7.76733273 1.19149451 7.76733273 -1 5 C-4.08604223 3.29735601 -4.80944893 3.87007882 -7.75 5.875 Z " fill="#B00242" transform="translate(364,376)"/>
<path d="M0 0 C2.61593153 1.83115207 2.96989455 2.90968366 4 6 C4.08143855 7.62719482 4.1075302 9.25751719 4.09765625 10.88671875 C4.09443359 11.82451172 4.09121094 12.76230469 4.08789062 13.72851562 C4.07951172 14.70498047 4.07113281 15.68144531 4.0625 16.6875 C4.05798828 17.67556641 4.05347656 18.66363281 4.04882812 19.68164062 C4.03704303 22.12115474 4.02059011 24.56054689 4 27 C2.02 27 0.04 27 -2 27 C-2.33 20.07 -2.66 13.14 -3 6 C-7.86132495 6.49152482 -7.86132495 6.49152482 -10 9 C-10.36831081 10.93257855 -10.36831081 10.93257855 -10.4140625 13.1328125 C-10.45273437 13.93847656 -10.49140625 14.74414062 -10.53125 15.57421875 C-10.5621875 16.41597656 -10.593125 17.25773437 -10.625 18.125 C-10.66367187 18.97449219 -10.70234375 19.82398438 -10.7421875 20.69921875 C-10.83656494 22.79911684 -10.91937586 24.89952891 -11 27 C-12.98 27 -14.96 27 -17 27 C-17 18.42 -17 9.84 -17 1 C-14.33333333 1 -11.66666667 1 -9 1 C-5.95016004 -0.52491998 -3.3576631 -0.23562548 0 0 Z " fill="#AF0341" transform="translate(305,376)"/>
<path d="M0 0 C1.07507813 0.00644531 2.15015625 0.01289063 3.2578125 0.01953125 C5.875 0.1875 5.875 0.1875 6.875 1.1875 C6.91563832 2.85367115 6.917721 4.52138095 6.875 6.1875 C4.88932292 5.89453125 2.90364583 5.6015625 0.91796875 5.30859375 C-1.3275342 5.04845201 -1.3275342 5.04845201 -4.125 6.1875 C-4.125 6.8475 -4.125 7.5075 -4.125 8.1875 C-3.52171875 8.42984375 -2.9184375 8.6721875 -2.296875 8.921875 C6.43791391 12.58485099 6.43791391 12.58485099 8.875 16.1875 C9.62023902 20.07930376 9.18728623 21.67445834 7.125 25.0625 C2.25742259 28.24514677 -2.46017323 27.75236877 -8.125 27.1875 C-9.115 26.8575 -10.105 26.5275 -11.125 26.1875 C-11.125 24.5375 -11.125 22.8875 -11.125 21.1875 C-10.43792969 21.27128906 -9.75085938 21.35507812 -9.04296875 21.44140625 C-8.14191406 21.54324219 -7.24085938 21.64507812 -6.3125 21.75 C-5.41917969 21.85441406 -4.52585938 21.95882813 -3.60546875 22.06640625 C-0.99124428 22.34408709 -0.99124428 22.34408709 1.875 21.1875 C1.875 20.1975 1.875 19.2075 1.875 18.1875 C1.18792969 17.96835937 0.50085938 17.74921875 -0.20703125 17.5234375 C-7.53164435 14.94567667 -7.53164435 14.94567667 -10.375 11.3125 C-11.29362973 7.48487612 -10.8739527 5.68540541 -9.125 2.1875 C-5.62447109 -0.14618594 -4.12885663 -0.05471979 0 0 Z " fill="#B00241" transform="translate(217.125,375.8125)"/>
<path d="M0 0 C0.96164062 0.01546875 1.92328125 0.0309375 2.9140625 0.046875 C5.375 0.25 5.375 0.25 7.375 1.25 C7.375 2.9 7.375 4.55 7.375 6.25 C5.38932292 5.95703125 3.40364583 5.6640625 1.41796875 5.37109375 C-0.8275342 5.11095201 -0.8275342 5.11095201 -3.625 6.25 C-3.295 7.24 -2.965 8.23 -2.625 9.25 C-0.88587345 10.08824695 -0.88587345 10.08824695 1.1875 10.625 C5.18525397 12.01270956 7.31379638 13.39644541 9.375 17.25 C9.30853155 20.57342272 9.01365125 22.44474408 6.9375 25.0625 C3.87510009 27.38992393 1.72958814 27.38507195 -2.0625 27.375 C-3.03058594 27.37757813 -3.99867188 27.38015625 -4.99609375 27.3828125 C-7.625 27.25 -7.625 27.25 -10.625 26.25 C-10.625 24.6 -10.625 22.95 -10.625 21.25 C-9.93792969 21.33378906 -9.25085938 21.41757812 -8.54296875 21.50390625 C-7.64191406 21.60574219 -6.74085938 21.70757812 -5.8125 21.8125 C-4.91917969 21.91691406 -4.02585937 22.02132813 -3.10546875 22.12890625 C-0.49124428 22.40658709 -0.49124428 22.40658709 2.375 21.25 C2.375 20.26 2.375 19.27 2.375 18.25 C1.34439453 17.88648438 1.34439453 17.88648438 0.29296875 17.515625 C-1.05861328 17.01289063 -1.05861328 17.01289063 -2.4375 16.5 C-3.33082031 16.17515625 -4.22414063 15.8503125 -5.14453125 15.515625 C-7.92629577 14.09626799 -9.1006541 12.95825455 -10.625 10.25 C-10.51778418 4.13869821 -10.51778418 4.13869821 -7.91796875 1.55078125 C-5.08044269 -0.05892263 -3.24258085 -0.0874011 0 0 Z " fill="#B00342" transform="translate(440.625,375.75)"/>
<path d="M0 0 C1.98 0 3.96 0 6 0 C6 10.23 6 20.46 6 31 C11.61 31 17.22 31 23 31 C23 32.65 23 34.3 23 36 C15.41 36 7.82 36 0 36 C0 24.12 0 12.24 0 0 Z " fill="#B00342" transform="translate(4,367)"/>
<path d="M0 0 C1.98 0 3.96 0 6 0 C7.98 5.28 9.96 10.56 12 16 C13.98 10.72 15.96 5.44 18 0 C19.98 0 21.96 0 24 0 C22.10648628 5.89093158 20.03429969 11.70228678 17.875 17.5 C17.60929199 18.21865234 17.34358398 18.93730469 17.06982422 19.67773438 C15.11935515 24.88064485 15.11935515 24.88064485 14 26 C12.33382885 26.04063832 10.66611905 26.042721 9 26 C0 4.8647541 0 4.8647541 0 0 Z " fill="#B00342" transform="translate(57,377)"/>
<path d="M0 0 C0.97324219 0.00644531 1.94648438 0.01289063 2.94921875 0.01953125 C5.3125 0.1875 5.3125 0.1875 6.3125 1.1875 C6.35313832 2.85367115 6.355221 4.52138095 6.3125 6.1875 C5.260625 6.001875 4.20875 5.81625 3.125 5.625 C-0.25869882 5.23670669 -2.45175888 5.30502515 -5.6875 6.1875 C-6.42201988 10.7450631 -7.04767037 14.80222935 -5.875 19.3125 C-2.67867628 22.05220605 0.14721068 21.56773623 4.23046875 21.36328125 C4.91753906 21.30527344 5.60460937 21.24726563 6.3125 21.1875 C6.3125 22.8375 6.3125 24.4875 6.3125 26.1875 C2.37258887 28.15745556 -2.39257464 27.64057739 -6.6875 27.1875 C-10.38132794 25.07674117 -12.09336054 23.06588259 -13.6875 19.1875 C-14.37878923 13.86618061 -14.31915723 9.47337364 -11.9375 4.625 C-8.21893895 0.59655886 -5.42670767 -0.07969798 0 0 Z " fill="#B00342" transform="translate(483.6875,375.8125)"/>
<path d="M0 0 C1.65 0 3.3 0 5 0 C5 1.65 5 3.3 5 5 C6.65 5 8.3 5 10 5 C10 6.32 10 7.64 10 9 C8.35 9 6.7 9 5 9 C5.11369211 11.45933991 5.24042651 13.9167909 5.375 16.375 C5.4059375 17.07367188 5.436875 17.77234375 5.46875 18.4921875 C5.59499498 22.70185827 5.59499498 22.70185827 8 26 C8.66 26.33 9.32 26.66 10 27 C10 28.32 10 29.64 10 31 C3.50986332 31.36736623 3.50986332 31.36736623 1.2878418 29.76635742 C-0.34244046 27.530321 -0.34827833 26.29782359 -0.29296875 23.55078125 C-0.28330078 22.70322266 -0.27363281 21.85566406 -0.26367188 20.98242188 C-0.23853516 20.10134766 -0.21339844 19.22027344 -0.1875 18.3125 C-0.17396484 17.41982422 -0.16042969 16.52714844 -0.14648438 15.60742188 C-0.11114079 13.40433834 -0.06180493 11.20247418 0 9 C-0.99 9 -1.98 9 -3 9 C-3 7.68 -3 6.36 -3 5 C-2.01 5 -1.02 5 0 5 C0 3.35 0 1.7 0 0 Z " fill="#B00242" transform="translate(233,372)"/>
<path d="M0 0 C1.2065625 0.0309375 1.2065625 0.0309375 2.4375 0.0625 C2.4375 2.0425 2.4375 4.0225 2.4375 6.0625 C1.81875 6.18625 1.2 6.31 0.5625 6.4375 C-1.75370832 6.93447356 -1.75370832 6.93447356 -3.5625 9.0625 C-3.93081081 10.99507855 -3.93081081 10.99507855 -3.9765625 13.1953125 C-4.01523438 14.00097656 -4.05390625 14.80664062 -4.09375 15.63671875 C-4.1246875 16.47847656 -4.155625 17.32023437 -4.1875 18.1875 C-4.22617188 19.03699219 -4.26484375 19.88648438 -4.3046875 20.76171875 C-4.39906494 22.86161684 -4.48187586 24.96202891 -4.5625 27.0625 C-6.5425 27.0625 -8.5225 27.0625 -10.5625 27.0625 C-10.5625 18.4825 -10.5625 9.9025 -10.5625 1.0625 C-8.2525 1.0625 -5.9425 1.0625 -3.5625 1.0625 C-2.5625 0.0625 -2.5625 0.0625 0 0 Z " fill="#AF0242" transform="translate(187.5625,375.9375)"/>
<path d="M0 0 C1.98 0 3.96 0 6 0 C6 8.58 6 17.16 6 26 C4.02 26 2.04 26 0 26 C0 17.42 0 8.84 0 0 Z " fill="#B00341" transform="translate(247,377)"/>
<path d="M0 0 C1.98 0 3.96 0 6 0 C6 8.58 6 17.16 6 26 C4.02 26 2.04 26 0 26 C0 17.42 0 8.84 0 0 Z " fill="#B00341" transform="translate(194,377)"/>
<path d="M0 0 C1.98 0 3.96 0 6 0 C6 2.31 6 4.62 6 7 C4.02 7 2.04 7 0 7 C0 4.69 0 2.38 0 0 Z " fill="#B00342" transform="translate(457,396)"/>
<path d="M0 0 C1.2065625 0.0309375 1.2065625 0.0309375 2.4375 0.0625 C2.4375 2.0425 2.4375 4.0225 2.4375 6.0625 C0.4575 6.0625 -1.5225 6.0625 -3.5625 6.0625 C-3.605221 4.39638095 -3.60313832 2.72867115 -3.5625 1.0625 C-2.5625 0.0625 -2.5625 0.0625 0 0 Z " fill="#B00341" transform="translate(197.5625,366.9375)"/>
<path d="M0 0 C1.67542976 0.28604898 3.34385343 0.61781233 5 1 C5 2.65 5 4.3 5 6 C3.02 6 1.04 6 -1 6 C-1.042721 4.33388095 -1.04063832 2.66617115 -1 1 C-0.67 0.67 -0.34 0.34 0 0 Z " fill="#B00341" transform="translate(248,367)"/>
<path d="M0 0 C0.66 0.66 1.32 1.32 2 2 C1.01 1.67 0.02 1.34 -1 1 C-0.67 0.67 -0.34 0.34 0 0 Z " fill="#B00342" transform="translate(108,389)"/>
<path d="M0 0 C2 1 2 1 2 1 Z " fill="#B00342" transform="translate(135,393)"/>
</svg>
