<?xml version="1.0" encoding="iso-8859-1"?>
<!-- Uploaded to: SVG Repo, www.svgrepo.com, Generator: SVG Repo Mixer Tools -->
<svg height="800px" width="800px" version="1.1" id="Layer_1" xmlns="http://www.w3.org/2000/svg" xmlns:xlink="http://www.w3.org/1999/xlink" 
	 viewBox="0 0 512 512" xml:space="preserve">
<path style="fill:#FFEFD9;" d="M66.782,260.636v234.669c0,4.611,1.87,8.785,4.892,11.806c3.022,3.021,7.195,4.89,11.804,4.89
	h345.043c4.609,0,8.783-1.868,11.804-4.89c3.021-3.022,4.892-7.195,4.892-11.806V260.636L255.999,104.81L66.782,260.636z"/>
<path style="fill:#FFD9B3;" d="M428.521,512c4.609,0,8.783-1.868,11.804-4.89c3.021-3.022,4.892-7.195,4.892-11.806V260.636
	L255.999,104.81V512H428.521z"/>
<path style="fill:#FFC033;" d="M289.391,33.391h-16.696V16.696C272.695,7.473,265.217,0,255.999,0
	c-9.217,0-16.696,7.473-16.696,16.696v16.696h-16.696c-9.217,0-16.696,7.473-16.696,16.696s7.479,16.696,16.696,16.696h16.696
	v50.087c0,9.223,7.479,16.696,16.696,16.696c9.217,0,16.696-7.473,16.696-16.696V66.783h16.696c9.217,0,16.696-7.473,16.696-16.696
	S298.608,33.391,289.391,33.391z"/>
<path style="fill:#F9A926;" d="M272.695,116.87V66.783h16.696c9.217,0,16.696-7.473,16.696-16.696s-7.479-16.696-16.696-16.696
	h-16.696V16.696C272.695,7.473,265.217,0,255.999,0v133.565C265.217,133.565,272.695,126.092,272.695,116.87z"/>
<path style="fill:#E6563A;" d="M255.999,478.81c-3.87,0-7.739-1.342-10.87-4.021c-12.914-11.07-24.989-20.858-36.021-29.804
	c-44.043-35.706-75.87-61.506-75.87-103.309c0-41.288,30.631-73.63,69.728-73.63c25.445,0,42.326,13.059,53.032,26.755
	c10.706-13.696,27.587-26.755,53.032-26.755c39.098,0,69.728,32.343,69.728,73.63c0,41.805-31.826,67.603-75.87,103.309
	c-11.032,8.945-23.109,18.734-36.021,29.804C263.738,477.468,259.869,478.81,255.999,478.81z"/>
<path style="fill:#D9472B;" d="M266.869,474.788c12.914-11.07,24.989-20.858,36.021-29.804
	c44.043-35.706,75.869-61.506,75.869-103.309c0-41.288-30.631-73.63-69.728-73.63c-25.445,0-42.326,13.059-53.032,26.755V478.81
	C259.869,478.81,263.738,477.468,266.869,474.788z"/>
<path style="fill:#A6673A;" d="M478.597,319.071c-3.772,0-7.554-1.267-10.674-3.87L255.999,138.603L44.076,315.201
	c-7.087,5.908-17.598,4.945-23.511-2.136c-5.902-7.087-4.945-17.614,2.141-23.516l222.609-185.505
	c6.174-5.163,15.195-5.163,21.369,0l222.609,185.505c7.087,5.902,8.044,16.43,2.142,23.516
	C488.13,317.027,483.38,319.071,478.597,319.071z"/>
<path style="fill:#99522E;" d="M467.923,315.201c3.12,2.603,6.902,3.87,10.674,3.87c4.783,0,9.532-2.044,12.837-6.006
	c5.902-7.087,4.945-17.614-2.142-23.516L266.684,104.043c-3.086-2.581-6.886-3.872-10.685-3.872v38.432L467.923,315.201z"/>
</svg>