<!DOCTYPE svg PUBLIC "-//W3C//DTD SVG 1.1//EN" "http://www.w3.org/Graphics/SVG/1.1/DTD/svg11.dtd">
<!-- Uploaded to: SVG Repo, www.svgrepo.com, Transformed by: SVG Repo Mixer Tools -->
<svg height="800px" width="800px" version="1.1" id="Capa_1" xmlns="http://www.w3.org/2000/svg" xmlns:xlink="http://www.w3.org/1999/xlink" viewBox="0 0 512 512" xml:space="preserve" fill="#000000">
<g id="SVGRepo_bgCarrier" stroke-width="0"/>
<g id="SVGRepo_tracerCarrier" stroke-linecap="round" stroke-linejoin="round"/>
<g id="SVGRepo_iconCarrier"> <g> <path style="fill:#74D6D0;" d="M256,452.121c-65.547,0-127.48-10.637-174.393-29.951C28.982,400.503,0,369.467,0,334.78 s28.982-65.723,81.607-87.389C128.52,228.076,190.454,217.438,256,217.438s127.482,10.637,174.393,29.952 C483.018,269.056,512,300.093,512,334.78s-28.982,65.723-81.607,87.391C383.482,441.483,321.546,452.121,256,452.121z M256,258.037 c-60.367,0-116.812,9.551-158.936,26.895c-35.357,14.556-56.466,33.191-56.466,49.848s21.108,35.292,56.466,49.848 c42.124,17.344,98.569,26.895,158.936,26.895c60.368,0,116.814-9.551,158.937-26.895c35.356-14.556,56.464-33.192,56.464-49.848 c0-16.658-21.108-35.292-56.464-49.848C372.812,267.588,316.368,258.037,256,258.037z"/> <path style="fill:#74D6D0;" d="M256,386.257c-40.141,0-78.115-3.971-106.924-11.179c-14.251-3.566-57.621-14.418-57.621-45.216 c0-30.795,43.37-41.649,57.621-45.214c28.81-7.209,66.783-11.179,106.924-11.179c40.142,0,78.117,3.971,106.925,11.179 c14.251,3.566,57.62,14.418,57.62,45.214s-43.369,41.649-57.62,45.216C334.115,382.287,296.142,386.257,256,386.257z M140.284,329.863c17.978,7.216,57.964,15.795,115.716,15.795s97.739-8.58,115.718-15.795 c-17.978-7.216-57.965-15.796-115.718-15.796S158.262,322.648,140.284,329.863z"/> </g> <g> <path style="fill:#CCF7F5;" d="M430.393,247.39C383.482,228.076,321.546,217.438,256,217.438v40.598 c60.368,0,116.812,9.551,158.937,26.895c35.356,14.557,56.464,33.192,56.464,49.848c0,16.658-21.108,35.292-56.464,49.848 c-42.124,17.344-98.569,26.895-158.937,26.895v40.598c65.546,0,127.482-10.637,174.393-29.951 C483.018,400.503,512,369.469,512,334.78S483.018,269.056,430.393,247.39z"/> <path style="fill:#CCF7F5;" d="M362.925,284.649C334.117,277.44,296.142,273.47,256,273.47v40.598 c57.753,0,97.739,8.58,115.718,15.795c-17.978,7.216-57.965,15.796-115.718,15.796v40.598c40.142,0,78.117-3.97,106.925-11.179 c14.251-3.566,57.62-14.418,57.62-45.216C420.545,299.067,377.177,288.215,362.925,284.649z"/> </g> <path style="fill:#74D6D0;" d="M256,332.896c-53.938,0-97.819-43.883-97.819-97.82c0-15.877,3.889-31.569,11.267-45.569 c0.361-0.907,0.789-1.793,1.286-2.654L238.18,70.03c3.627-6.282,10.327-10.151,17.579-10.151c7.252,0,13.954,3.869,17.579,10.15 l63.486,109.966c11.121,16.284,16.995,35.308,16.995,55.081C353.819,289.013,309.938,332.896,256,332.896z"/> <path style="fill:#CCF7F5;" d="M256,332.896c-53.938,0-97.819-43.883-97.819-97.82c0-15.877,3.889-31.569,11.267-45.569 c0.361-0.907,0.789-1.793,1.286-2.654L238.18,70.03c3.627-6.282,10.327-10.151,17.579-10.151L256,332.896z"/> </g>
</svg>