<?xml version="1.0" encoding="iso-8859-1"?>
<!-- Uploaded to: SVG Repo, www.svgrepo.com, Generator: SVG Repo Mixer Tools -->
<svg height="800px" width="800px" version="1.1" id="Layer_1" xmlns="http://www.w3.org/2000/svg" xmlns:xlink="http://www.w3.org/1999/xlink" 
	 viewBox="0 0 503.32 503.32" xml:space="preserve">
<g>
	<path style="fill:#4FBA6F;" d="M228.299,452.905c12.088,12.132,25.531,22.971,40.535,31.223
		c50.419,27.726,102.374,28.707,150.129-19.039l22.007-22.016c10.596-10.596,13.043-26.858,6.04-40.101
		c-16.479-31.128-77.225-66.734-77.225-66.734c-13.746-7.845-30.338-8.713-38.183,5.259c0,0-19.734,23.674-24.758,27.075
		c-22.936,15.542-44.18,14.935-65.623-6.508l-49.846-49.846l-49.838-49.838c-21.443-21.443-22.051-42.687-6.508-65.623
		c3.402-5.025,27.075-24.758,27.075-24.758c13.972-7.854,13.095-24.437,5.259-38.183c0,0-35.606-60.746-66.734-77.225
		c-13.243-7.003-29.505-4.556-40.101,6.04L38.512,84.638c-44.206,44.214-46.644,92.03-24.758,138.891
		c8.878,19.005,21.704,35.892,36.508,50.749L228.299,452.905z"/>
	<g>
		<path style="fill:#37914E;" d="M338.168,416.542c-0.295,0-0.599-0.009-0.902-0.043c-59.869-6.213-98.53-44.275-100.144-45.889
			c-3.384-3.384-3.384-8.869,0-12.262c3.384-3.384,8.869-3.402,12.271-0.017c0.356,0.356,36.118,35.345,89.661,40.899
			c4.764,0.503,8.235,4.764,7.741,9.528C346.325,413.227,342.559,416.542,338.168,416.542"/>
		<path style="fill:#37914E;" d="M147.791,277.695c-1.918,0-3.853-0.642-5.467-1.944c-2.013-1.649-49.516-40.925-55.782-101.298
			c-0.495-4.764,2.977-9.034,7.741-9.528c4.799-0.512,9.034,2.977,9.528,7.741c5.502,53.083,49.039,89.27,49.482,89.626
			c3.705,3.037,4.261,8.496,1.232,12.21C152.806,276.602,150.307,277.695,147.791,277.695"/>
	</g>
	<path style="fill:#EE8472;" d="M364.193,0c-76.687,0-138.847,62.16-138.847,138.847c0,24.029,6.109,46.627,16.853,66.343
		l-16.853,72.504l67.948-19.621c20.766,12.375,44.961,19.621,70.899,19.621c76.687,0,138.847-62.16,138.847-138.847
		S440.88,0,364.193,0"/>
	<g>
		<path style="fill:#FFFFFF;" d="M424.939,95.458H303.447c-4.79,0-8.678-3.888-8.678-8.678s3.888-8.678,8.678-8.678h121.492
			c4.79,0,8.678,3.888,8.678,8.678S429.729,95.458,424.939,95.458"/>
		<path style="fill:#FFFFFF;" d="M442.295,147.525H286.091c-4.79,0-8.678-3.888-8.678-8.678s3.888-8.678,8.678-8.678h156.203
			c4.79,0,8.678,3.888,8.678,8.678S447.085,147.525,442.295,147.525"/>
		<path style="fill:#FFFFFF;" d="M424.939,199.593H303.447c-4.79,0-8.678-3.888-8.678-8.678s3.888-8.678,8.678-8.678h121.492
			c4.79,0,8.678,3.888,8.678,8.678S429.729,199.593,424.939,199.593"/>
	</g>
</g>
</svg>