<?xml version="1.0" encoding="iso-8859-1"?>
<!-- Uploaded to: SVG Repo, www.svgrepo.com, Generator: SVG Repo Mixer Tools -->
<svg height="800px" width="800px" version="1.1" id="Layer_1" xmlns="http://www.w3.org/2000/svg" xmlns:xlink="http://www.w3.org/1999/xlink" 
	 viewBox="0 0 511.998 511.998" xml:space="preserve">
<path style="fill:#D8143A;" d="M256,162.549c23.47-11.379,49.79-17.765,77.576-17.765c37.171,0,71.719,11.43,100.324,30.953
	c-1.873-26.036-9.501-52.05-23.406-76.134c-31.78-55.043-91.044-89.237-154.664-89.237c-31.153,0-61.952,8.276-89.068,23.931
	C125.488,58.124,95.966,96.6,83.63,142.637c-2.943,10.983-4.813,22.083-5.646,33.181c28.63-19.572,63.221-31.035,100.44-31.035
	C206.21,144.783,232.53,151.17,256,162.549z"/>
<path style="fill:#7ED63E;" d="M433.9,175.737c4.453,61.923-23.679,123.982-77.535,160.582
	c-4.745,64.999-44.457,120.443-100.366,147.548c23.47,11.379,49.79,17.766,77.576,17.766c98.383,0,178.424-80.041,178.424-178.424
	C512,261.993,481.01,207.888,433.9,175.737z"/>
<path style="fill:#D8143A;" d="M256,162.549c59.632,28.911,100.848,90.061,100.848,160.659c0,4.409-0.168,8.78-0.483,13.11
	c53.856-36.6,81.988-98.659,77.535-160.582c-28.607-19.523-63.153-30.953-100.324-30.953C305.79,144.783,279.47,151.17,256,162.549z
	"/>
<path style="fill:#368B4C;" d="M256,162.549c59.632,28.911,100.848,90.061,100.848,160.659c0,4.409-0.168,8.78-0.483,13.11
	c53.856-36.6,81.988-98.659,77.535-160.582c-28.607-19.523-63.153-30.953-100.324-30.953C305.79,144.783,279.47,151.17,256,162.549z
	"/>
<path style="fill:#EE8700;" d="M155.629,336.23c-21.887-14.879-40.56-34.619-54.174-58.204
	c-18.143-31.426-26.132-66.799-23.47-102.211C30.939,207.978,0,262.043,0,323.207c0,98.383,80.041,178.424,178.424,178.424
	c27.786,0,54.106-6.388,77.576-17.766C200.068,456.749,160.344,401.267,155.629,336.23z"/>
<path style="fill:#D8143A;" d="M101.455,278.027c13.615,23.583,32.287,43.325,54.174,58.204c-0.312-4.301-0.478-8.643-0.478-13.022
	c0-70.599,41.216-131.748,100.848-160.659c-23.47-11.379-49.79-17.765-77.576-17.765c-37.219,0-71.81,11.463-100.439,31.033
	C75.323,211.229,83.31,246.601,101.455,278.027z"/>
<path style="fill:#8B0023;" d="M101.455,278.027c13.615,23.583,32.287,43.325,54.174,58.204c-0.312-4.301-0.478-8.643-0.478-13.022
	c0-70.599,41.216-131.748,100.848-160.659c-23.47-11.379-49.79-17.765-77.576-17.765c-37.219,0-71.81,11.463-100.439,31.033
	C75.323,211.229,83.31,246.601,101.455,278.027z"/>
<path style="fill:#78B86D;" d="M356.366,336.319c-3.612,2.454-7.337,4.8-11.179,7.017c-27.116,15.655-57.915,23.929-89.066,23.929
	c-36.364,0-71.292-11.186-100.492-31.035c4.715,65.036,44.44,120.519,100.371,147.634
	C311.907,456.76,351.621,401.316,356.366,336.319z"/>
<path style="fill:#69A15F;" d="M356.366,336.319c-3.612,2.454-7.337,4.8-11.179,7.017c-27.116,15.655-57.915,23.929-89.066,23.929
	c-36.364,0-71.292-11.186-100.492-31.035c4.715,65.036,44.44,120.519,100.371,147.634
	C311.907,456.76,351.621,401.316,356.366,336.319z"/>
<g>
	<path id="SVGCleanerId_0" style="fill:#D8143A;" d="M256,162.549c-59.632,28.911-100.848,90.061-100.848,160.659
		c0,4.378,0.164,8.721,0.478,13.022c29.198,19.849,64.127,31.035,100.492,31.035c31.151,0,61.952-8.274,89.066-23.929
		c3.843-2.219,7.567-4.563,11.179-7.017c0.315-4.33,0.483-8.701,0.483-13.11C356.848,252.608,315.632,191.459,256,162.549z"/>
</g>
<g>
	<path id="SVGCleanerId_0_1_" style="fill:#78B86D;" d="M256,162.549c-59.632,28.911-100.848,90.061-100.848,160.659
		c0,4.378,0.164,8.721,0.478,13.022c29.198,19.849,64.127,31.035,100.492,31.035c31.151,0,61.952-8.274,89.066-23.929
		c3.843-2.219,7.567-4.563,11.179-7.017c0.315-4.33,0.483-8.701,0.483-13.11C356.848,252.608,315.632,191.459,256,162.549z"/>
</g>
<g>
	<path id="SVGCleanerId_0_2_" style="fill:#57565C;" d="M256,162.549c-59.632,28.911-100.848,90.061-100.848,160.659
		c0,4.378,0.164,8.721,0.478,13.022c29.198,19.849,64.127,31.035,100.492,31.035c31.151,0,61.952-8.274,89.066-23.929
		c3.843-2.219,7.567-4.563,11.179-7.017c0.315-4.33,0.483-8.701,0.483-13.11C356.848,252.608,315.632,191.459,256,162.549z"/>
</g>
</svg>