<?xml version="1.0" ?>
<!-- Uploaded to: SVG Repo, www.svgrepo.com, Generator: SVG Repo Mixer Tools -->
<svg width="800px" height="800px" viewBox="0 0 64 64" id="svg5" version="1.1" xml:space="preserve" xmlns="http://www.w3.org/2000/svg" xmlns:svg="http://www.w3.org/2000/svg">
<defs id="defs2"/>
<g id="layer1" transform="translate(0,-576)">
<path d="m 9.999992,585 h 49 v 6 h -49 z" id="path61150" style="fill:#3e4f59;fill-opacity:1;fill-rule:evenodd;stroke-width:2;stroke-linecap:round;stroke-linejoin:round;stroke-miterlimit:4.1"/>
<path d="m 9.999992,591 h 49 v 40 h -49 z" id="path61152" style="fill:#acbec2;fill-opacity:1;fill-rule:evenodd;stroke-width:2.00001;stroke-linecap:round;stroke-linejoin:round;stroke-miterlimit:4.1"/>
<path d="m 9.999992,591 v 40 h 29.76953 a 28.484051,41.392605 35.599482 0 0 18.625,-40 z" id="path61154" style="fill:#e8edee;fill-opacity:1;fill-rule:evenodd;stroke:none;stroke-width:2.00002;stroke-linecap:round;stroke-linejoin:round;stroke-miterlimit:4.1"/>
<path d="m 11.999992,584 c -1.64501,0 -3,1.355 -3,3 v 40 c 0,0.55229 0.44772,1 1,1 0.55229,0 1,-0.44771 1,-1 v -40 c 0,-0.56413 0.43587,-1 1,-1 h 45 c 0.56413,0 1,0.43587 1,1 v 3 h -42 c -0.55228,0 -1,0.44772 -1,1 0,0.55229 0.44772,1 1,1 h 42 v 37 c 0,0.56413 -0.43587,1 -1,1 h -49 c -0.55228,0 -1,0.44772 -1,1 0,0.55229 0.44772,1 1,1 h 49 c 1.64501,0 3,-1.35499 3,-3 0,-14 0,-28 0,-42 0,-1.645 -1.35499,-3 -3,-3 z" id="path61156" style="color:#000000;fill:#000000;fill-rule:evenodd;stroke-linecap:round;stroke-linejoin:round;stroke-miterlimit:4.1"/>
<path d="m 54.999992,587 c -0.55228,0 -1,0.44772 -1,1 0,0.55229 0.44772,1 1,1 0.55229,0 1,-0.44771 1,-1 0,-0.55228 -0.44771,-1 -1,-1 z" id="path61158" style="color:#000000;fill:#ed7161;fill-opacity:1;fill-rule:evenodd;stroke-linecap:round;stroke-linejoin:round;stroke-miterlimit:4.1;-inkscape-stroke:none"/>
<path d="m 50.999992,587 c -0.55228,0 -1,0.44772 -1,1 0,0.55229 0.44772,1 1,1 0.55229,0 1,-0.44771 1,-1 0,-0.55228 -0.44771,-1 -1,-1 z" id="path61160" style="color:#000000;fill:#ecba16;fill-opacity:1;fill-rule:evenodd;stroke-linecap:round;stroke-linejoin:round;stroke-miterlimit:4.1;-inkscape-stroke:none"/>
<path d="m 46.999992,587 c -0.55228,0 -1,0.44772 -1,1 0,0.55229 0.44772,1 1,1 0.55229,0 1,-0.44771 1,-1 0,-0.55228 -0.44771,-1 -1,-1 z" id="path61162" style="color:#000000;fill:#42b05c;fill-opacity:1;fill-rule:evenodd;stroke-linecap:round;stroke-linejoin:round;stroke-miterlimit:4.1;-inkscape-stroke:none"/>
<path d="m 4.999992,630 a 1,1 0 0 0 -1,1 1,1 0 0 0 1,1 1,1 0 0 0 1,-1 1,1 0 0 0 -1,-1 z" id="path61164" style="color:#000000;fill:#000000;fill-rule:evenodd;stroke-linecap:round;stroke-linejoin:round;stroke-miterlimit:4.1;-inkscape-stroke:none"/>
<path d="m 12.999992,590 c -0.55228,0 -1,0.44772 -1,1 0,0.55229 0.44772,1 1,1 0.55229,0 1,-0.44771 1,-1 0,-0.55228 -0.44771,-1 -1,-1 z" id="path61166" style="color:#000000;fill:#000000;fill-rule:evenodd;stroke-linecap:round;stroke-linejoin:round;stroke-miterlimit:4.1;-inkscape-stroke:none"/>
<path d="m 19.714314,625 c 0,-2.76143 1.854822,-5 4.142852,-5 C 26.145197,620 28,622.23857 28,625 Z" id="path2154-6-8" style="fill:#ffa221;fill-opacity:1;fill-rule:evenodd;stroke:none;stroke-width:2.00001;stroke-linecap:round;stroke-linejoin:round;stroke-miterlimit:4.1"/>
<path d="m 23.857422,620 c -2.288028,0 -4.142578,2.23857 -4.142578,5 h 3.755859 a 4.6546698,8.5063829 0 0 0 0.896485,-4.96094 C 24.200019,620.01429 24.030139,620 23.857422,620 Z" id="ellipse41890" style="fill:#ffc343;fill-opacity:1;fill-rule:evenodd;stroke:none;stroke-width:2;stroke-linecap:round;stroke-linejoin:round;stroke-miterlimit:4.1"/>
<path d="M 26.342869,617.50001 A 2.4857024,2.4999882 0 0 1 23.857166,620 a 2.4857024,2.4999882 0 0 1 -2.485702,-2.49999 2.4857024,2.4999882 0 0 1 2.485702,-2.49999 2.4857024,2.4999882 0 0 1 2.485703,2.49999 z" id="path2152-3-1" style="fill:#ffa221;fill-opacity:1;fill-rule:evenodd;stroke:none;stroke-width:2;stroke-linecap:round;stroke-linejoin:round;stroke-miterlimit:4.1"/>
<path d="m 23.490234,615.02734 a 2.4857024,2.4999882 0 0 0 -2.11914,2.47266 2.4857024,2.4999882 0 0 0 2.486328,2.5 2.4857024,2.4999882 0 0 0 0.511719,-0.0547 4.6546698,8.5063829 0 0 0 -0.878907,-4.91797 z" id="ellipse41896" style="fill:#ffc343;fill-opacity:1;fill-rule:evenodd;stroke:none;stroke-width:2;stroke-linecap:round;stroke-linejoin:round;stroke-miterlimit:4.1"/>
<path d="m 41.714314,625 c 0,-2.76143 1.854821,-5 4.142851,-5 C 48.145196,620 50,622.23857 50,625 Z" id="path2154-6-7" style="fill:#fe73c5;fill-opacity:1;fill-rule:evenodd;stroke:none;stroke-width:2.00001;stroke-linecap:round;stroke-linejoin:round;stroke-miterlimit:4.1"/>
<path d="m 45.857422,620 c -2.288028,0 -4.142578,2.23857 -4.142578,5 h 4.367187 a 4.6546698,8.5063829 0 0 0 0.535157,-3.91992 4.6546698,8.5063829 0 0 0 -0.03516,-1.00196 C 46.346416,620.02789 46.104981,620 45.857422,620 Z" id="ellipse41892" style="fill:#fe93d3;fill-opacity:1;fill-rule:evenodd;stroke:none;stroke-width:2;stroke-linecap:round;stroke-linejoin:round;stroke-miterlimit:4.1"/>
<path d="M 48.342868,617.50001 A 2.4857024,2.4999882 0 0 1 45.857165,620 a 2.4857024,2.4999882 0 0 1 -2.485702,-2.49999 2.4857024,2.4999882 0 0 1 2.485702,-2.49999 2.4857024,2.4999882 0 0 1 2.485703,2.49999 z" id="path2152-3-2" style="fill:#fe73c5;fill-opacity:1;fill-rule:evenodd;stroke:none;stroke-width:2;stroke-linecap:round;stroke-linejoin:round;stroke-miterlimit:4.1"/>
<path d="m 45.257812,615.08008 a 2.4857024,2.4999882 0 0 0 -1.886718,2.41992 2.4857024,2.4999882 0 0 0 2.486328,2.5 2.4857024,2.4999882 0 0 0 0.71289,-0.10547 4.6546698,8.5063829 0 0 0 -1.3125,-4.81445 z" id="ellipse41904" style="fill:#fe93d3;fill-opacity:1;fill-rule:evenodd;stroke:none;stroke-width:2;stroke-linecap:round;stroke-linejoin:round;stroke-miterlimit:4.1"/>
<path d="m 41.714314,607 c 0,-2.76143 1.854821,-5 4.142851,-5 C 48.145196,602 50,604.23857 50,607 Z" id="path2154-6-0" style="fill:#ffa221;fill-opacity:1;fill-rule:evenodd;stroke:none;stroke-width:2.00001;stroke-linecap:round;stroke-linejoin:round;stroke-miterlimit:4.1"/>
<path d="m 45.857422,602 c -2.288028,0 -4.142578,2.23857 -4.142578,5 h 3.943359 a 4.6546698,8.5063829 0 0 0 0.710938,-4.49414 4.6546698,8.5063829 0 0 0 -0.0078,-0.46875 C 46.196098,602.01292 46.028061,602 45.857422,602 Z" id="path41872" style="fill:#ffc343;fill-opacity:1;fill-rule:evenodd;stroke:none;stroke-width:2;stroke-linecap:round;stroke-linejoin:round;stroke-miterlimit:4.1"/>
<path d="M 48.342868,599.50001 A 2.4857024,2.4999882 0 0 1 45.857165,602 a 2.4857024,2.4999882 0 0 1 -2.485702,-2.49999 2.4857024,2.4999882 0 0 1 2.485702,-2.49999 2.4857024,2.4999882 0 0 1 2.485703,2.49999 z" id="path2152-3-6" style="fill:#ffa221;fill-opacity:1;fill-rule:evenodd;stroke:none;stroke-width:2;stroke-linecap:round;stroke-linejoin:round;stroke-miterlimit:4.1"/>
<path d="m 45.292969,597.07227 a 2.4857024,2.4999882 0 0 0 -1.921875,2.42773 2.4857024,2.4999882 0 0 0 2.486328,2.5 2.4857024,2.4999882 0 0 0 0.5,-0.0527 4.6546698,8.5063829 0 0 0 -1.064453,-4.875 z" id="path41884" style="fill:#ffc343;fill-opacity:1;fill-rule:evenodd;stroke:none;stroke-width:2;stroke-linecap:round;stroke-linejoin:round;stroke-miterlimit:4.1"/>
<path d="m 19.714314,606.99998 c 0,-2.76142 1.854821,-5 4.142851,-5 2.288031,0 4.142835,2.23858 4.142835,5 z" id="path2154-6" style="fill:#fe73c5;fill-opacity:1;fill-rule:evenodd;stroke:none;stroke-width:2.00001;stroke-linecap:round;stroke-linejoin:round;stroke-miterlimit:4.1"/>
<path d="m 23.857422,602 c -2.288028,0 -4.142578,2.23858 -4.142578,5 h 3.755859 a 4.6546698,8.5063829 0 0 0 0.896485,-4.96094 C 24.200019,602.01429 24.030139,602 23.857422,602 Z" id="path41876" style="fill:#fe93d3;fill-opacity:1;fill-rule:evenodd;stroke:none;stroke-width:2.00001;stroke-linecap:round;stroke-linejoin:round;stroke-miterlimit:4.1"/>
<path d="m 26.342868,599.49999 a 2.4857024,2.4999882 0 0 1 -2.485703,2.49999 2.4857024,2.4999882 0 0 1 -2.485702,-2.49999 2.4857024,2.4999882 0 0 1 2.485702,-2.49998 2.4857024,2.4999882 0 0 1 2.485703,2.49998 z" id="path2152-3" style="fill:#fe73c5;fill-opacity:1;fill-rule:evenodd;stroke:none;stroke-width:2;stroke-linecap:round;stroke-linejoin:round;stroke-miterlimit:4.1"/>
<path d="m 23.490234,597.02734 a 2.4857024,2.4999882 0 0 0 -2.11914,2.47266 2.4857024,2.4999882 0 0 0 2.486328,2.5 2.4857024,2.4999882 0 0 0 0.511719,-0.0547 4.6546698,8.5063829 0 0 0 -0.878907,-4.91797 z" id="path41874" style="fill:#fe93d3;fill-opacity:1;fill-rule:evenodd;stroke:none;stroke-width:2;stroke-linecap:round;stroke-linejoin:round;stroke-miterlimit:4.1"/>
<path d="m 34,594 a 1,1 0 0 0 -1,1 v 15 H 17.5 a 1,1 0 0 0 -1,1 1,1 0 0 0 1,1 H 33 v 16 a 1,1 0 0 0 1,1 1,1 0 0 0 1,-1 v -16 h 4.900391 a 1,1 0 0 0 1,-1 1,1 0 0 0 -1,-1 H 35 v -15 a 1,1 0 0 0 -1,-1 z m 9.796875,16 a 1,1 0 0 0 -1,1 1,1 0 0 0 1,1 H 50.5 a 1,1 0 0 0 1,-1 1,1 0 0 0 -1,-1 z" id="path33737" style="color:#000000;fill:#000000;fill-rule:evenodd;stroke-linecap:round;stroke-linejoin:round;stroke-miterlimit:4.1"/>
<path d="m 17.357157,596 c -0.55228,0 -1,0.44771 -1,1 0,0.55228 0.44772,1 1,1 0.55229,0 1,-0.44772 1,-1 0,-0.55229 -0.44771,-1 -1,-1 z" id="path33741" style="color:#000000;fill:#000000;fill-rule:evenodd;stroke-linecap:round;stroke-linejoin:round;stroke-miterlimit:4.1;-inkscape-stroke:none"/>
<path d="m 23.857422,596 c -1.916353,0 -3.486322,1.58195 -3.486328,3.5 -1e-6,0.88522 0.334286,1.69879 0.882812,2.31836 -1.544444,1.05882 -2.539062,3.02524 -2.539062,5.18164 a 1.000105,1.000105 0 0 0 1,1 h 2.65625 a 1.000005,1.000005 0 0 0 1,-1 1.000005,1.000005 0 0 0 -1,-1 h -1.494141 c 0.36871,-1.76544 1.600039,-3 2.980469,-3 1.3804,0 2.609778,1.23462 2.978516,3 h -0.501954 a 1.000005,1.000005 0 0 0 -1,1 1.000005,1.000005 0 0 0 1,1 H 28 a 1.000105,1.000105 0 0 0 1,-1 c 0,-2.1564 -0.994619,-4.12282 -2.539062,-5.18164 0.548525,-0.61957 0.882812,-1.43314 0.882812,-2.31836 -6e-6,-1.91805 -1.569974,-3.5 -3.486328,-3.5 z m 0,2 c 0.829266,0 1.486325,0.65665 1.486328,1.5 1e-6,0.84335 -0.65706,1.5 -1.486328,1.5 -0.829268,0 -1.486329,-0.65665 -1.486328,-1.5 3e-6,-0.84335 0.657062,-1.5 1.486328,-1.5 z" id="path6938" style="color:#000000;fill:#000000;fill-rule:evenodd;stroke-linecap:round;stroke-linejoin:round;stroke-miterlimit:4.1"/>
<path d="m 39.357157,614.00001 c -0.55228,0 -1,0.44772 -1,1 0,0.55228 0.44772,1 1,1 0.55229,0 1,-0.44772 1,-1 0,-0.55228 -0.44771,-1 -1,-1 z" id="path33741-0" style="color:#000000;fill:#000000;fill-rule:evenodd;stroke-linecap:round;stroke-linejoin:round;stroke-miterlimit:4.1;-inkscape-stroke:none"/>
<path d="m 45.857422,614 c -1.916359,0 -3.48633,1.58194 -3.486328,3.5 -10e-7,0.88522 0.334286,1.69879 0.882812,2.31836 -1.544444,1.05882 -2.539062,3.02524 -2.539062,5.18164 a 1.000105,1.000105 0 0 0 1,1 h 2.65625 a 1.000005,1.000005 0 0 0 1,-1 1.000005,1.000005 0 0 0 -1,-1 h -1.494141 c 0.36871,-1.76545 1.600036,-3 2.980469,-3 1.380403,0 2.609779,1.23461 2.978516,3 h -0.501954 a 1.000005,1.000005 0 0 0 -1,1 1.000005,1.000005 0 0 0 1,1 H 50 a 1.000105,1.000105 0 0 0 1,-1 c 0,-2.1564 -0.994619,-4.12282 -2.539062,-5.18164 0.548525,-0.61957 0.882812,-1.43314 0.882812,-2.31836 10e-7,-1.91806 -1.569969,-3.5 -3.486328,-3.5 z m 0,2 c 0.829268,0 1.486329,0.65665 1.486328,1.5 10e-7,0.84335 -0.65706,1.5 -1.486328,1.5 -0.829268,0 -1.486329,-0.65665 -1.486328,-1.5 -10e-7,-0.84335 0.65706,-1.5 1.486328,-1.5 z" id="path6938-9" style="color:#000000;fill:#000000;fill-rule:evenodd;stroke-linecap:round;stroke-linejoin:round;stroke-miterlimit:4.1"/>
<path d="m 39.357157,596.00001 c -0.55228,0 -1,0.44772 -1,1 0,0.55228 0.44772,1 1,1 0.55229,0 1,-0.44772 1,-1 0,-0.55228 -0.44771,-1 -1,-1 z" id="path33741-6" style="color:#000000;fill:#000000;fill-rule:evenodd;stroke-linecap:round;stroke-linejoin:round;stroke-miterlimit:4.1"/>
<path d="m 45.857422,596 c -1.916359,0 -3.48633,1.58194 -3.486328,3.5 -10e-7,0.88522 0.334286,1.69879 0.882812,2.31836 -1.544444,1.05882 -2.539062,3.02524 -2.539062,5.18164 a 1.000105,1.000105 0 0 0 1,1 h 2.65625 a 1.000005,1.000005 0 0 0 1,-1 1.000005,1.000005 0 0 0 -1,-1 h -1.494141 c 0.36871,-1.76545 1.600036,-3 2.980469,-3 1.380403,0 2.609779,1.23461 2.978516,3 h -0.501954 a 1.000005,1.000005 0 0 0 -1,1 1.000005,1.000005 0 0 0 1,1 H 50 a 1.000105,1.000105 0 0 0 1,-1 c 0,-2.1564 -0.994619,-4.12282 -2.539062,-5.18164 0.548525,-0.61957 0.882812,-1.43314 0.882812,-2.31836 10e-7,-1.91806 -1.569969,-3.5 -3.486328,-3.5 z m 0,2 c 0.829268,0 1.486329,0.65665 1.486328,1.5 10e-7,0.84335 -0.65706,1.5 -1.486328,1.5 -0.829268,0 -1.486329,-0.65665 -1.486328,-1.5 -10e-7,-0.84335 0.65706,-1.5 1.486328,-1.5 z" id="path6938-2" style="color:#000000;fill:#000000;fill-rule:evenodd;stroke-linecap:round;stroke-linejoin:round;stroke-miterlimit:4.1"/>
<path d="m 17.357157,614.00001 c -0.55228,0 -1,0.44772 -1,1 0,0.55228 0.44772,1 1,1 0.55229,0 1,-0.44772 1,-1 0,-0.55228 -0.44771,-1 -1,-1 z" id="path33741-7" style="color:#000000;fill:#000000;fill-rule:evenodd;stroke-linecap:round;stroke-linejoin:round;stroke-miterlimit:4.1"/>
<path d="m 23.857422,614 c -1.916359,0 -3.48633,1.58194 -3.486328,3.5 -1e-6,0.88522 0.334286,1.69879 0.882812,2.31836 -1.544444,1.05882 -2.539062,3.02524 -2.539062,5.18164 a 1.000105,1.000105 0 0 0 1,1 h 2.65625 a 1.000005,1.000005 0 0 0 1,-1 1.000005,1.000005 0 0 0 -1,-1 h -1.494141 c 0.36871,-1.76545 1.600036,-3 2.980469,-3 1.380403,0 2.609779,1.23461 2.978516,3 h -0.501954 a 1.000005,1.000005 0 0 0 -1,1 1.000005,1.000005 0 0 0 1,1 H 28 a 1.000105,1.000105 0 0 0 1,-1 c 0,-2.1564 -0.994619,-4.12282 -2.539062,-5.18164 0.548525,-0.61957 0.882812,-1.43314 0.882812,-2.31836 1e-6,-1.91806 -1.569969,-3.5 -3.486328,-3.5 z m 0,2 c 0.829268,0 1.486329,0.65665 1.486328,1.5 1e-6,0.84335 -0.65706,1.5 -1.486328,1.5 -0.829268,0 -1.486329,-0.65665 -1.486328,-1.5 -1e-6,-0.84335 0.65706,-1.5 1.486328,-1.5 z" id="path6938-92" style="color:#000000;fill:#000000;fill-rule:evenodd;stroke-linecap:round;stroke-linejoin:round;stroke-miterlimit:4.1"/>
</g>
</svg>