<?xml version="1.0" encoding="iso-8859-1"?>
<!-- Uploaded to: SVG Repo, www.svgrepo.com, Generator: SVG Repo Mixer Tools -->
<svg height="800px" width="800px" version="1.1" id="Layer_1" xmlns="http://www.w3.org/2000/svg" xmlns:xlink="http://www.w3.org/1999/xlink" 
	 viewBox="0 0 511.995 511.995" xml:space="preserve">
<circle style="fill:#E84F4F;" cx="255.997" cy="255.997" r="255.997"/>
<path style="fill:#C94545;" d="M283.902,510.581L154.168,388.729v-265.3h9.458l55.172,59.744v-59.744h9.458l55.33,59.113v-59.113
	h9.301l55.488,59.113l-0.158-59.113h9.616l153.695,149.596c-8.197,124.216-104.827,224.158-227.468,237.556H283.902z"/>
<path style="fill:#FFD630;" d="M163.783,123.429v265.3h-9.458v-265.3H163.783z"/>
<path style="fill:#EBECEC;" d="M146.128,303.291h25.852c5.99,0,10.877,4.887,10.877,10.877v18.601
	c0,5.99-4.887,10.877-10.877,10.877h-25.852c-5.99,0-10.877-4.887-10.877-10.877v-18.601
	C135.251,308.178,140.138,303.291,146.128,303.291z"/>
<path style="fill:#FFD630;" d="M228.414,123.429v265.3h-9.458v-265.3H228.414z"/>
<path style="fill:#EBECEC;" d="M210.759,233.616h25.852c5.99,0,10.877,4.887,10.877,10.877v18.601
	c0,5.99-4.887,10.877-10.877,10.877h-25.852c-5.99,0-10.877-4.887-10.877-10.877v-18.601
	C199.882,238.503,204.768,233.616,210.759,233.616z"/>
<path style="fill:#FFD630;" d="M293.044,123.429v265.3h-9.458v-265.3H293.044z"/>
<path style="fill:#EBECEC;" d="M275.547,300.611h25.852c5.99,0,10.877,4.887,10.877,10.877v18.601
	c0,5.99-4.887,10.877-10.877,10.877h-25.852c-5.99,0-10.877-4.887-10.877-10.877v-18.601
	C264.67,305.498,269.557,300.611,275.547,300.611z"/>
<path style="fill:#FFD630;" d="M357.832,123.429v265.3h-9.458v-265.3H357.832z"/>
<path style="fill:#EBECEC;" d="M340.177,182.384h25.852c5.99,0,10.877,4.887,10.877,10.877v18.601
	c0,5.99-4.887,10.877-10.877,10.877h-25.852c-5.99,0-10.877-4.887-10.877-10.877v-18.601
	C329.301,187.271,334.188,182.384,340.177,182.384z"/>
<g>
	<path style="fill:#727271;" d="M152.276,312.591h13.556c3.153,0,5.674,0.788,5.674,1.891v3.153c0,0.946-2.523,1.891-5.674,1.891
		h-13.556c-3.153,0-5.674-0.788-5.674-1.891v-3.153C146.601,313.537,149.123,312.591,152.276,312.591z M152.276,327.251h13.556
		c3.153,0,5.674,0.788,5.674,1.891v3.153c0,0.946-2.523,1.891-5.674,1.891h-13.556c-3.153,0-5.674-0.788-5.674-1.891v-3.153
		C146.601,328.197,149.123,327.251,152.276,327.251z"/>
	<path style="fill:#727271;" d="M216.906,243.074h13.556c3.153,0,5.674,0.788,5.674,1.891v3.153c0,0.946-2.523,1.891-5.674,1.891
		h-13.556c-3.153,0-5.674-0.788-5.674-1.891v-3.153C211.232,244.02,213.753,243.074,216.906,243.074z M216.906,257.734h13.556
		c3.153,0,5.674,0.788,5.674,1.891v3.153c0,0.946-2.523,1.891-5.674,1.891h-13.556c-3.153,0-5.674-0.788-5.674-1.891v-3.153
		C211.232,258.68,213.753,257.734,216.906,257.734z"/>
	<path style="fill:#727271;" d="M281.694,309.912h13.556c3.153,0,5.674,0.788,5.674,1.891v3.153c0,0.946-2.523,1.891-5.674,1.891
		h-13.556c-3.153,0-5.674-0.788-5.674-1.891v-3.153C276.02,310.857,278.541,309.912,281.694,309.912z M281.694,324.572h13.556
		c3.153,0,5.674,0.788,5.674,1.891v3.153c0,0.946-2.523,1.891-5.674,1.891h-13.556c-3.153,0-5.674-0.788-5.674-1.891v-3.153
		C276.02,325.517,278.541,324.572,281.694,324.572z"/>
	<path style="fill:#727271;" d="M346.325,191.842h13.556c3.153,0,5.674,0.788,5.674,1.891v3.153c0,0.946-2.523,1.891-5.674,1.891
		h-13.556c-3.153,0-5.674-0.788-5.674-1.891v-3.153C340.651,192.789,343.172,191.842,346.325,191.842z M346.325,206.502h13.556
		c3.153,0,5.674,0.788,5.674,1.891v3.153c0,0.946-2.523,1.891-5.674,1.891h-13.556c-3.153,0-5.674-0.788-5.674-1.891v-3.153
		C340.651,207.449,343.172,206.502,346.325,206.502z"/>
</g>
</svg>