<svg xmlns="http://www.w3.org/2000/svg" xmlns:xlink="http://www.w3.org/1999/xlink" version="1.1" width="256" height="256" viewBox="0 0 256 256" xml:space="preserve">

<defs>
</defs>
<g style="stroke: none; stroke-width: 0; stroke-dasharray: none; stroke-linecap: butt; stroke-linejoin: miter; stroke-miterlimit: 10; fill: none; fill-rule: nonzero; opacity: 1;" transform="translate(1.4065934065934016 1.4065934065934016) scale(2.81 2.81)" >
	<circle cx="27.33" cy="19.98" r="14.1" style="stroke: none; stroke-width: 1; stroke-dasharray: none; stroke-linecap: butt; stroke-linejoin: miter; stroke-miterlimit: 10; fill: rgb(247,213,206); fill-rule: nonzero; opacity: 1;" transform="  matrix(1 0 0 1 0 0) "/>
	<circle cx="62.67" cy="19.98" r="14.1" style="stroke: none; stroke-width: 1; stroke-dasharray: none; stroke-linecap: butt; stroke-linejoin: miter; stroke-miterlimit: 10; fill: rgb(247,213,206); fill-rule: nonzero; opacity: 1;" transform="  matrix(1 0 0 1 0 0) "/>
	<path d="M 48.681 63.977 v 20.138 H 5.988 V 59.088 c 0 -10.708 8.68 -19.388 19.388 -19.388 h 3.917 c 7.321 0 13.693 4.057 16.993 10.046" style="stroke: none; stroke-width: 1; stroke-dasharray: none; stroke-linecap: butt; stroke-linejoin: miter; stroke-miterlimit: 10; fill: rgb(172,116,204); fill-rule: nonzero; opacity: 1;" transform=" matrix(1 0 0 1 0 0) " stroke-linecap="round" />
	<path d="M 84.012 63.977 v 20.138 H 41.319 V 59.088 C 41.319 48.38 50 39.7 60.707 39.7 h 3.917 c 7.321 0 13.693 4.057 16.993 10.046" style="stroke: none; stroke-width: 1; stroke-dasharray: none; stroke-linecap: butt; stroke-linejoin: miter; stroke-miterlimit: 10; fill: rgb(247,187,66); fill-rule: nonzero; opacity: 1;" transform=" matrix(1 0 0 1 0 0) " stroke-linecap="round" />
	<path d="M 8.981 63.977 H 3.756 C 2.234 63.977 1 62.743 1 61.221 v -8.613 c 0 -1.522 1.234 -2.756 2.756 -2.756 h 5.225 c 3.393 0 6.144 2.751 6.144 6.144 v 1.837 C 15.126 61.226 12.375 63.977 8.981 63.977 z" style="stroke: none; stroke-width: 1; stroke-dasharray: none; stroke-linecap: butt; stroke-linejoin: miter; stroke-miterlimit: 10; fill: rgb(247,213,206); fill-rule: nonzero; opacity: 1;" transform=" matrix(1 0 0 1 0 0) " stroke-linecap="round" />
	<path d="M 81.019 63.977 h 5.225 c 1.522 0 2.756 -1.234 2.756 -2.756 v -8.613 c 0 -1.522 -1.234 -2.756 -2.756 -2.756 h -5.225 c -3.393 0 -6.144 2.751 -6.144 6.144 v 1.837 C 74.874 61.226 77.625 63.977 81.019 63.977 z" style="stroke: none; stroke-width: 1; stroke-dasharray: none; stroke-linecap: butt; stroke-linejoin: miter; stroke-miterlimit: 10; fill: rgb(247,213,206); fill-rule: nonzero; opacity: 1;" transform=" matrix(1 0 0 1 0 0) " stroke-linecap="round" />
	<path d="M 8.981 64.977 H 3.756 C 1.685 64.977 0 63.292 0 61.221 v -8.613 c 0 -2.071 1.685 -3.756 3.756 -3.756 h 5.225 c 3.939 0 7.144 3.205 7.144 7.144 v 1.838 C 16.125 61.771 12.921 64.977 8.981 64.977 z M 3.756 50.852 C 2.788 50.852 2 51.64 2 52.607 v 8.613 c 0 0.968 0.788 1.756 1.756 1.756 h 5.225 c 2.836 0 5.144 -2.308 5.144 -5.144 v -1.838 c 0 -2.836 -2.308 -5.144 -5.144 -5.144 H 3.756 z" style="stroke: none; stroke-width: 1; stroke-dasharray: none; stroke-linecap: butt; stroke-linejoin: miter; stroke-miterlimit: 10; fill: rgb(29,29,27); fill-rule: nonzero; opacity: 1;" transform=" matrix(1 0 0 1 0 0) " stroke-linecap="round" />
	<path d="M 86.244 64.977 h -5.226 c -3.939 0 -7.145 -3.205 -7.145 -7.144 v -1.838 c 0 -3.938 3.205 -7.144 7.145 -7.144 h 5.226 c 2.071 0 3.756 1.685 3.756 3.756 v 8.613 C 90 63.292 88.315 64.977 86.244 64.977 z M 81.019 50.852 c -2.837 0 -5.145 2.308 -5.145 5.144 v 1.838 c 0 2.836 2.308 5.144 5.145 5.144 h 5.226 c 0.968 0 1.756 -0.788 1.756 -1.756 v -8.613 c 0 -0.968 -0.788 -1.756 -1.756 -1.756 H 81.019 z" style="stroke: none; stroke-width: 1; stroke-dasharray: none; stroke-linecap: butt; stroke-linejoin: miter; stroke-miterlimit: 10; fill: rgb(29,29,27); fill-rule: nonzero; opacity: 1;" transform=" matrix(1 0 0 1 0 0) " stroke-linecap="round" />
	<path d="M 8.48 50.569 c -0.167 0 -0.335 -0.041 -0.491 -0.129 c -0.481 -0.271 -0.65 -0.882 -0.379 -1.362 C 11.225 42.676 18.032 38.7 25.376 38.7 h 3.917 c 6.517 0 12.692 3.155 16.521 8.439 c 0.324 0.447 0.225 1.072 -0.223 1.396 c -0.448 0.325 -1.074 0.223 -1.396 -0.223 C 40.741 43.545 35.17 40.7 29.293 40.7 h -3.917 c -6.624 0 -12.763 3.587 -16.024 9.361 C 9.168 50.387 8.83 50.569 8.48 50.569 z" style="stroke: none; stroke-width: 1; stroke-dasharray: none; stroke-linecap: butt; stroke-linejoin: miter; stroke-miterlimit: 10; fill: rgb(29,29,27); fill-rule: nonzero; opacity: 1;" transform=" matrix(1 0 0 1 0 0) " stroke-linecap="round" />
	<path d="M 41.319 85.115 H 5.988 c -0.552 0 -1 -0.447 -1 -1 V 63.977 c 0 -0.553 0.448 -1 1 -1 s 1 0.447 1 1 v 19.139 h 34.331 c 0.552 0 1 0.447 1 1 S 41.872 85.115 41.319 85.115 z" style="stroke: none; stroke-width: 1; stroke-dasharray: none; stroke-linecap: butt; stroke-linejoin: miter; stroke-miterlimit: 10; fill: rgb(29,29,27); fill-rule: nonzero; opacity: 1;" transform=" matrix(1 0 0 1 0 0) " stroke-linecap="round" />
	<path d="M 27.334 35.085 c -8.327 0 -15.101 -6.774 -15.101 -15.101 c 0 -8.326 6.774 -15.1 15.101 -15.1 c 8.326 0 15.1 6.774 15.1 15.1 C 42.435 28.312 35.661 35.085 27.334 35.085 z M 27.334 6.885 c -7.224 0 -13.101 5.876 -13.101 13.1 s 5.877 13.101 13.101 13.101 s 13.1 -5.877 13.1 -13.101 S 34.558 6.885 27.334 6.885 z" style="stroke: none; stroke-width: 1; stroke-dasharray: none; stroke-linecap: butt; stroke-linejoin: miter; stroke-miterlimit: 10; fill: rgb(29,29,27); fill-rule: nonzero; opacity: 1;" transform=" matrix(1 0 0 1 0 0) " stroke-linecap="round" />
	<path d="M 84.012 85.115 H 41.319 c -0.552 0 -1 -0.447 -1 -1 V 59.088 c 0 -11.242 9.146 -20.388 20.388 -20.388 h 3.917 c 7.432 0 14.278 4.048 17.869 10.564 c 0.267 0.483 0.09 1.092 -0.394 1.358 c -0.484 0.266 -1.092 0.091 -1.358 -0.394 c -3.238 -5.877 -9.414 -9.529 -16.117 -9.529 h -3.917 c -10.139 0 -18.388 8.249 -18.388 18.388 v 24.027 h 40.692 V 63.977 c 0 -0.553 0.447 -1 1 -1 s 1 0.447 1 1 v 20.139 C 85.012 84.668 84.564 85.115 84.012 85.115 z" style="stroke: none; stroke-width: 1; stroke-dasharray: none; stroke-linecap: butt; stroke-linejoin: miter; stroke-miterlimit: 10; fill: rgb(29,29,27); fill-rule: nonzero; opacity: 1;" transform=" matrix(1 0 0 1 0 0) " stroke-linecap="round" />
	<path d="M 62.666 35.085 c -8.326 0 -15.101 -6.774 -15.101 -15.101 c 0 -8.326 6.774 -15.1 15.101 -15.1 s 15.1 6.774 15.1 15.1 C 77.766 28.312 70.992 35.085 62.666 35.085 z M 62.666 6.885 c -7.224 0 -13.101 5.876 -13.101 13.1 s 5.877 13.101 13.101 13.101 s 13.1 -5.877 13.1 -13.101 S 69.89 6.885 62.666 6.885 z" style="stroke: none; stroke-width: 1; stroke-dasharray: none; stroke-linecap: butt; stroke-linejoin: miter; stroke-miterlimit: 10; fill: rgb(29,29,27); fill-rule: nonzero; opacity: 1;" transform=" matrix(1 0 0 1 0 0) " stroke-linecap="round" />
</g>
</svg>