<svg xmlns="http://www.w3.org/2000/svg" xmlns:xlink="http://www.w3.org/1999/xlink" version="1.1" width="256" height="256" viewBox="0 0 256 256" xml:space="preserve">

<defs>
</defs>
<g style="stroke: none; stroke-width: 0; stroke-dasharray: none; stroke-linecap: butt; stroke-linejoin: miter; stroke-miterlimit: 10; fill: none; fill-rule: nonzero; opacity: 1;" transform="translate(1.4095363946702122 1.4095363946702122) scale(2.82 2.82)" >
	<path d="M 87.37 69.979 l -6.39 12.785 c -0.53 1.061 -1.615 1.731 -2.801 1.731 H 44.296 H 27.181 H 10.412 c -1.186 0 -2.271 -0.67 -2.801 -1.731 l -6.39 -12.785 h 22.254 H 87.37 z" style="stroke: none; stroke-width: 1; stroke-dasharray: none; stroke-linecap: butt; stroke-linejoin: miter; stroke-miterlimit: 10; fill: rgb(242,242,242); fill-rule: nonzero; opacity: 1;" transform=" matrix(1 0 0 1 0 0) " stroke-linecap="round" />
	<path d="M 48.512 82.387 H 31.397 h -3.02 c -2.131 -3.659 -3.725 -7.833 -4.902 -12.408 H 6.492 h -5.27 l 6.39 12.785 c 0.53 1.061 1.615 1.731 2.801 1.731 h 16.769 h 2.512 h 14.603 h 33.884 c 1.186 0 2.271 -0.67 2.801 -1.731 l 0.188 -0.377 H 48.512 z" style="stroke: none; stroke-width: 1; stroke-dasharray: none; stroke-linecap: butt; stroke-linejoin: miter; stroke-miterlimit: 10; fill: rgb(226,225,224); fill-rule: nonzero; opacity: 1;" transform=" matrix(1 0 0 1 0 0) " stroke-linecap="round" />
	<path d="M 79.922 66.775 H 9.078 v -1.447 c 0 -14.714 12.039 -26.753 26.753 -26.753 h 17.338 c 14.714 0 26.753 12.039 26.753 26.753 V 66.775 z" style="stroke: none; stroke-width: 1; stroke-dasharray: none; stroke-linecap: butt; stroke-linejoin: miter; stroke-miterlimit: 10; fill: rgb(185,121,28); fill-rule: nonzero; opacity: 1;" transform=" matrix(1 0 0 1 0 0) " stroke-linecap="round" />
	<path d="M 34.876 38.685 C 20.11 39.338 8.557 51.262 9.078 66.775 h 13.703 v -4.984 C 22.781 52.258 27.58 43.796 34.876 38.685 z" style="stroke: none; stroke-width: 1; stroke-dasharray: none; stroke-linecap: butt; stroke-linejoin: miter; stroke-miterlimit: 10; fill: rgb(153,99,19); fill-rule: nonzero; opacity: 1;" transform=" matrix(1 0 0 1 0 0) " stroke-linecap="round" />
	<path d="M 87.937 64.822 c -1.29 -1.994 -3.873 -3.357 -6.855 -3.357 c -2.982 0 -5.565 1.363 -6.855 3.357 c -1.527 2.247 -3.054 2.247 -4.581 0 c -1.29 -1.994 -3.873 -3.357 -6.855 -3.357 c -2.982 0 -5.565 1.363 -6.855 3.357 c -1.526 2.18 -3.058 2.314 -4.581 0 c -1.29 -1.994 -3.873 -3.357 -6.855 -3.357 s -5.565 1.363 -6.855 3.357 c -1.523 2.314 -3.055 2.18 -4.581 0 c -1.29 -1.994 -3.873 -3.357 -6.855 -3.357 s -5.565 1.363 -6.855 3.357 c -1.527 2.247 -3.054 2.247 -4.581 0 c -1.29 -1.994 -3.873 -3.357 -6.855 -3.357 s -5.565 1.363 -6.855 3.357 c -1.536 2.706 -1.639 5.962 1.249 5.962 h 35.333 h 13.71 h 35.333 C 89.577 70.784 89.473 67.528 87.937 64.822 z" style="stroke: none; stroke-width: 1; stroke-dasharray: none; stroke-linecap: butt; stroke-linejoin: miter; stroke-miterlimit: 10; fill: rgb(229,168,61); fill-rule: nonzero; opacity: 1;" transform=" matrix(1 0 0 1 0 0) " stroke-linecap="round" />
	<circle cx="36.402" cy="44.361999999999995" r="1.562" style="stroke: none; stroke-width: 1; stroke-dasharray: none; stroke-linecap: butt; stroke-linejoin: miter; stroke-miterlimit: 10; fill: rgb(153,99,19); fill-rule: nonzero; opacity: 1;" transform="  matrix(1 0 0 1 0 0) "/>
	<circle cx="46.942" cy="44.361999999999995" r="1.562" style="stroke: none; stroke-width: 1; stroke-dasharray: none; stroke-linecap: butt; stroke-linejoin: miter; stroke-miterlimit: 10; fill: rgb(153,99,19); fill-rule: nonzero; opacity: 1;" transform="  matrix(1 0 0 1 0 0) "/>
	<circle cx="58.541999999999994" cy="44.361999999999995" r="1.562" style="stroke: none; stroke-width: 1; stroke-dasharray: none; stroke-linecap: butt; stroke-linejoin: miter; stroke-miterlimit: 10; fill: rgb(153,99,19); fill-rule: nonzero; opacity: 1;" transform="  matrix(1 0 0 1 0 0) "/>
	<circle cx="31.132" cy="50.692" r="1.562" style="stroke: none; stroke-width: 1; stroke-dasharray: none; stroke-linecap: butt; stroke-linejoin: miter; stroke-miterlimit: 10; fill: rgb(153,99,19); fill-rule: nonzero; opacity: 1;" transform="  matrix(1 0 0 1 0 0) "/>
	<circle cx="41.672" cy="50.692" r="1.562" style="stroke: none; stroke-width: 1; stroke-dasharray: none; stroke-linecap: butt; stroke-linejoin: miter; stroke-miterlimit: 10; fill: rgb(153,99,19); fill-rule: nonzero; opacity: 1;" transform="  matrix(1 0 0 1 0 0) "/>
	<circle cx="52.211999999999996" cy="50.692" r="1.562" style="stroke: none; stroke-width: 1; stroke-dasharray: none; stroke-linecap: butt; stroke-linejoin: miter; stroke-miterlimit: 10; fill: rgb(153,99,19); fill-rule: nonzero; opacity: 1;" transform="  matrix(1 0 0 1 0 0) "/>
	<circle cx="64.272" cy="50.692" r="1.562" style="stroke: none; stroke-width: 1; stroke-dasharray: none; stroke-linecap: butt; stroke-linejoin: miter; stroke-miterlimit: 10; fill: rgb(153,99,19); fill-rule: nonzero; opacity: 1;" transform="  matrix(1 0 0 1 0 0) "/>
	<path d="M 22.781 62.111 c -1.411 0.591 -2.692 1.574 -3.427 2.711 c -1.527 2.247 -3.054 2.247 -4.581 0 c -1.29 -1.994 -3.873 -3.357 -6.855 -3.357 s -5.565 1.363 -6.855 3.357 c -1.536 2.706 -1.639 5.962 1.249 5.962 h 21.352 C 23.01 68.426 22.707 63.269 22.781 62.111 z" style="stroke: none; stroke-width: 1; stroke-dasharray: none; stroke-linecap: butt; stroke-linejoin: miter; stroke-miterlimit: 10; fill: rgb(214,155,51); fill-rule: nonzero; opacity: 1;" transform=" matrix(1 0 0 1 0 0) " stroke-linecap="round" />
	<path d="M 65.881 21.572 c -1.905 0.736 -4.174 0.676 -6.147 -0.193 c -1.959 -0.859 -3.696 -2.509 -4.396 -4.704 c -0.341 -1.085 -0.427 -2.295 -0.131 -3.418 c 0.068 -0.288 0.152 -0.529 0.253 -0.819 c 0.102 -0.288 0.264 -0.583 0.449 -0.84 c 0.372 -0.522 0.862 -0.944 1.403 -1.224 c 2.214 -1.09 4.722 -0.399 6.278 1.05 l -0.603 0.554 c -0.693 -1.148 -1.096 -2.588 -0.676 -3.938 c 0.196 -0.668 0.609 -1.27 1.142 -1.711 c 0.529 -0.448 1.159 -0.757 1.813 -0.943 l 0.008 -0.002 l 0.049 -0.007 c 1.753 -0.262 3.589 0.353 4.998 1.435 c 1.431 1.079 2.477 2.593 3.147 4.225 c 1.308 3.275 1.301 7.117 -0.197 10.366 c -0.354 0.817 -0.814 1.584 -1.333 2.299 c -0.254 0.367 -0.528 0.703 -0.808 1.028 c -0.298 0.341 -0.475 0.618 -0.73 0.923 c -0.943 1.218 -1.662 2.582 -2.005 4.038 c -0.347 1.455 -0.276 3.024 0.119 4.563 c 0.401 1.539 1.011 3.065 1.682 4.572 l -0.173 0.1 c -0.967 -1.343 -1.864 -2.764 -2.496 -4.353 c -0.608 -1.577 -1.005 -3.379 -0.718 -5.167 c 0.235 -1.794 1.006 -3.456 1.981 -4.902 c 0.503 -0.772 1.037 -1.348 1.438 -1.985 c 0.428 -0.63 0.775 -1.306 1.092 -1.991 c 0.615 -1.379 0.986 -2.863 1.092 -4.375 c 0.094 -1.512 -0.103 -3.054 -0.6 -4.492 c -0.497 -1.432 -1.246 -2.801 -2.329 -3.865 c -1.071 -1.063 -2.542 -1.745 -4.095 -1.68 l 0.057 -0.01 c -0.576 0.131 -1.133 0.353 -1.589 0.714 c -0.45 0.361 -0.807 0.842 -0.968 1.398 c -0.336 1.124 0.062 2.362 0.783 3.295 l 1.735 2.243 l -2.338 -1.689 c -1.497 -1.081 -3.622 -1.22 -4.943 -0.298 c -0.319 0.226 -0.595 0.484 -0.776 0.796 c -0.098 0.155 -0.159 0.312 -0.226 0.493 c -0.059 0.182 -0.138 0.415 -0.179 0.614 c -0.184 0.82 -0.174 1.676 0.055 2.504 c 0.469 1.657 1.72 3.129 3.313 4.058 c 1.595 0.95 3.539 1.344 5.522 1.144 L 65.881 21.572 z" style="stroke: none; stroke-width: 1; stroke-dasharray: none; stroke-linecap: butt; stroke-linejoin: miter; stroke-miterlimit: 10; fill: rgb(226,225,224); fill-rule: nonzero; opacity: 1;" transform=" matrix(1 0 0 1 0 0) " stroke-linecap="round" />
	<path d="M 80.427 37.656 c 1.704 0.133 3.347 -0.229 4.686 -1.048 c 1.339 -0.801 2.376 -2.049 2.762 -3.43 c 0.188 -0.69 0.193 -1.399 0.043 -2.08 c -0.097 -0.363 -0.187 -0.678 -0.329 -0.909 c -0.149 -0.247 -0.361 -0.462 -0.619 -0.652 c -0.53 -0.365 -1.251 -0.559 -1.993 -0.529 c -0.742 0.033 -1.491 0.294 -2.147 0.729 l -2.19 1.451 l 1.587 -2.005 c 0.62 -0.783 0.96 -1.83 0.679 -2.777 c -0.275 -0.953 -1.185 -1.583 -2.162 -1.771 l 0.057 0.01 c -1.022 -0.016 -2.008 0.313 -2.806 0.912 c -0.806 0.589 -1.422 1.407 -1.904 2.279 c -0.955 1.759 -1.354 3.833 -1.116 5.814 c 0.239 1.988 0.994 3.863 2.217 5.495 c 1.361 1.751 2.435 4.238 1.936 6.545 l -0.2 0.011 c -0.721 -2.142 -1.943 -3.691 -3.354 -5.303 c -1.517 -1.806 -2.525 -4.17 -2.628 -6.576 c -0.139 -2.392 0.415 -4.848 1.784 -6.835 c 0.683 -0.987 1.586 -1.841 2.654 -2.413 c 1.059 -0.586 2.307 -0.832 3.483 -0.667 l 0.047 0.007 l 0.011 0.003 c 0.566 0.164 1.111 0.435 1.57 0.824 c 0.463 0.383 0.82 0.908 0.991 1.489 c 0.366 1.173 0.02 2.421 -0.572 3.42 l -0.604 -0.554 c 0.683 -0.629 1.546 -1.105 2.503 -1.303 c 0.952 -0.205 2.008 -0.139 2.975 0.349 c 0.478 0.251 0.907 0.626 1.244 1.084 c 0.357 0.474 0.497 1.004 0.625 1.461 c 0.261 0.984 0.181 2.046 -0.119 2.994 c -0.617 1.918 -2.14 3.345 -3.844 4.075 c -1.718 0.738 -3.684 0.766 -5.311 0.097 L 80.427 37.656 z" style="stroke: none; stroke-width: 1; stroke-dasharray: none; stroke-linecap: butt; stroke-linejoin: miter; stroke-miterlimit: 10; fill: rgb(226,225,224); fill-rule: nonzero; opacity: 1;" transform=" matrix(1 0 0 1 0 0) " stroke-linecap="round" />
	<path d="M 61.828 34.971 c -0.625 -0.495 -1.131 -1.143 -1.48 -1.885 c -0.357 -0.74 -0.525 -1.581 -0.514 -2.414 c 0.056 -1.68 0.838 -3.23 1.993 -4.308 c -0.488 1.511 -0.97 2.906 -0.994 4.334 c -0.027 0.709 0.071 1.415 0.245 2.123 C 61.259 33.528 61.534 34.228 61.828 34.971 z" style="stroke: none; stroke-width: 1; stroke-dasharray: none; stroke-linecap: butt; stroke-linejoin: miter; stroke-miterlimit: 10; fill: rgb(226,225,224); fill-rule: nonzero; opacity: 1;" transform=" matrix(1 0 0 1 0 0) " stroke-linecap="round" />
</g>
</svg>