<svg xmlns="http://www.w3.org/2000/svg" xmlns:xlink="http://www.w3.org/1999/xlink" version="1.1" width="256" height="256" viewBox="0 0 256 256" xml:space="preserve">

<defs>
</defs>
<g style="stroke: none; stroke-width: 0; stroke-dasharray: none; stroke-linecap: butt; stroke-linejoin: miter; stroke-miterlimit: 10; fill: none; fill-rule: nonzero; opacity: 1;" transform="translate(1.4065934065934016 1.4065934065934016) scale(2.81 2.81)" >
	<path d="M 74.766 30.766 c 0 -17.075 -14.378 -30.792 -31.687 -29.705 c -14.72 0.924 -26.73 12.833 -27.768 27.545 c -0.729 10.336 3.824 19.647 11.231 25.509 c 4.187 3.313 6.721 8.283 6.721 13.622 l 0 9.679 c 0 1.504 1.219 2.722 2.722 2.722 h 18.03 c 1.504 0 2.722 -1.219 2.722 -2.722 l 0 -9.682 c 0 -5.245 2.37 -10.237 6.512 -13.455 C 70.256 48.834 74.766 40.327 74.766 30.766 z" style="stroke: none; stroke-width: 1; stroke-dasharray: none; stroke-linecap: butt; stroke-linejoin: miter; stroke-miterlimit: 10; fill: rgb(255,225,129); fill-rule: nonzero; opacity: 1;" transform=" matrix(1 0 0 1 0 0) " stroke-linecap="round" />
	<path d="M 48.897 88.999 h -7.795 c -2.722 0 -4.929 -2.207 -4.929 -4.929 v -3.932 h 17.653 v 3.932 C 53.826 86.793 51.62 88.999 48.897 88.999 z" style="stroke: none; stroke-width: 1; stroke-dasharray: none; stroke-linecap: butt; stroke-linejoin: miter; stroke-miterlimit: 10; fill: rgb(193,191,193); fill-rule: nonzero; opacity: 1;" transform=" matrix(1 0 0 1 0 0) " stroke-linecap="round" />
	<path d="M 33.263 68.446 v 8.97 c 0 1.504 1.219 2.722 2.722 2.722 h 18.03 c 1.503 0 2.722 -1.219 2.722 -2.722 v -8.97 H 33.263 z" style="stroke: none; stroke-width: 1; stroke-dasharray: none; stroke-linecap: butt; stroke-linejoin: miter; stroke-miterlimit: 10; fill: rgb(193,191,193); fill-rule: nonzero; opacity: 1;" transform=" matrix(1 0 0 1 0 0) " stroke-linecap="round" />
	<path d="M 48.897 89.999 h -7.795 c -3.269 0 -5.929 -2.659 -5.929 -5.929 v -3.933 c 0 -0.553 0.448 -1 1 -1 h 17.653 c 0.553 0 1 0.447 1 1 v 3.933 C 54.826 87.34 52.167 89.999 48.897 89.999 z M 37.173 81.138 v 2.933 c 0 2.166 1.763 3.929 3.929 3.929 h 7.795 c 2.166 0 3.929 -1.763 3.929 -3.929 v -2.933 H 37.173 z" style="stroke: none; stroke-width: 1; stroke-dasharray: none; stroke-linecap: butt; stroke-linejoin: miter; stroke-miterlimit: 10; fill: rgb(0,0,0); fill-rule: nonzero; opacity: 1;" transform=" matrix(1 0 0 1 0 0) " stroke-linecap="round" />
	<path d="M 56.737 69.446 H 33.263 c -0.552 0 -1 -0.447 -1 -1 v -0.709 c 0 -4.969 -2.311 -9.648 -6.341 -12.838 c -7.988 -6.321 -12.327 -16.177 -11.608 -26.363 C 15.391 13.264 27.73 1.023 43.016 0.063 c 8.593 -0.542 16.784 2.397 23.041 8.273 c 6.17 5.794 9.708 13.97 9.708 22.43 c 0 9.567 -4.339 18.425 -11.903 24.303 c -3.835 2.979 -6.125 7.714 -6.125 12.665 v 0.712 C 57.737 68.999 57.29 69.446 56.737 69.446 z M 34.26 67.446 h 21.479 c 0.088 -5.459 2.651 -10.659 6.896 -13.957 c 7.073 -5.496 11.13 -13.778 11.13 -22.723 c 0 -8.027 -3.224 -15.475 -9.077 -20.972 c -5.85 -5.493 -13.501 -8.243 -21.547 -7.735 c -14.29 0.897 -25.825 12.34 -26.833 26.617 c -0.672 9.527 3.385 18.743 10.854 24.655 l 0 0 C 31.596 56.84 34.172 61.971 34.26 67.446 z" style="stroke: none; stroke-width: 1; stroke-dasharray: none; stroke-linecap: butt; stroke-linejoin: miter; stroke-miterlimit: 10; fill: rgb(0,0,0); fill-rule: nonzero; opacity: 1;" transform=" matrix(1 0 0 1 0 0) " stroke-linecap="round" />
	<path d="M 54.015 81.138 h -18.03 c -2.052 0 -3.722 -1.67 -3.722 -3.722 v -8.971 c 0 -0.553 0.448 -1 1 -1 h 23.474 c 0.553 0 1 0.447 1 1 v 8.971 C 57.737 79.468 56.067 81.138 54.015 81.138 z M 34.263 69.446 v 7.971 c 0 0.949 0.772 1.722 1.722 1.722 h 18.03 c 0.95 0 1.723 -0.772 1.723 -1.722 v -7.971 H 34.263 z" style="stroke: none; stroke-width: 1; stroke-dasharray: none; stroke-linecap: butt; stroke-linejoin: miter; stroke-miterlimit: 10; fill: rgb(0,0,0); fill-rule: nonzero; opacity: 1;" transform=" matrix(1 0 0 1 0 0) " stroke-linecap="round" />
	<path d="M 39.058 40.815 c -0.404 1.426 -1.673 2.552 -3.308 2.828 l -5.154 0.868 c -2.715 0.457 -4.687 2.637 -4.687 5.18 v 3.892 c 0.211 0.177 0.417 0.361 0.633 0.532 c 4.187 3.313 6.721 8.283 6.721 13.622 v 0.709 h 23.474 v -0.712 c 0 -5.245 2.37 -10.237 6.512 -13.455 c 0.287 -0.223 0.563 -0.459 0.842 -0.692 v -3.895 c 0 -2.543 -1.972 -4.723 -4.687 -5.18 l -5.154 -0.868 c -1.635 -0.275 -2.904 -1.402 -3.308 -2.828" style="stroke: none; stroke-width: 1; stroke-dasharray: none; stroke-linecap: butt; stroke-linejoin: miter; stroke-miterlimit: 10; fill: rgb(230,236,255); fill-rule: nonzero; opacity: 1;" transform=" matrix(1 0 0 1 0 0) " stroke-linecap="round" />
	<path d="M 55.223 26.494 l -0.382 6.318 c -0.401 4.798 -3.561 8.922 -8.089 10.559 l 0 0 c -0.566 0.204 -1.158 0.307 -1.751 0.307 c -0.593 0 -1.185 -0.102 -1.751 -0.307 l 0 0 c -4.528 -1.636 -7.688 -5.761 -8.089 -10.559 h 0 l -0.406 -6.318 v -4.359 c 0 0 18.671 -3.518 18.86 -3.518 s 1.885 4.272 1.885 4.272 L 55.223 26.494 z" style="stroke: none; stroke-width: 1; stroke-dasharray: none; stroke-linecap: butt; stroke-linejoin: miter; stroke-miterlimit: 10; fill: rgb(255,182,159); fill-rule: nonzero; opacity: 1;" transform=" matrix(1 0 0 1 0 0) " stroke-linecap="round" />
	<path d="M 34.753 26.494 c -4.521 -6.728 -2.469 -11.313 4.809 -14.193 c -0.159 -0.665 -1.075 -1.329 -2.522 -1.994 c 5.986 -2.249 13.104 -1.735 16.361 3.524 c 4.461 1.504 5.828 6.497 1.821 12.663 c -0.447 -7.547 -5.346 -6.933 -11.261 -4.457 c -2.991 1.144 -5.587 1.027 -8.035 0.645 C 34.589 22.431 34.654 24.812 34.753 26.494 z" style="stroke: none; stroke-width: 1; stroke-dasharray: none; stroke-linecap: butt; stroke-linejoin: miter; stroke-miterlimit: 10; fill: rgb(73,74,89); fill-rule: nonzero; opacity: 1;" transform=" matrix(1 0 0 1 0 0) " stroke-linecap="round" />
	<path d="M 34.754 27.494 c -0.326 0 -0.641 -0.16 -0.83 -0.442 c -2.301 -3.424 -3.055 -6.49 -2.24 -9.113 c 0.754 -2.429 2.851 -4.451 6.238 -6.022 c -0.291 -0.193 -0.706 -0.428 -1.299 -0.701 c -0.367 -0.168 -0.596 -0.541 -0.582 -0.944 c 0.015 -0.403 0.27 -0.758 0.648 -0.9 c 6.002 -2.256 13.641 -1.979 17.37 3.635 c 2.006 0.773 3.464 2.232 4.127 4.14 c 0.968 2.782 0.213 6.295 -2.125 9.893 c -0.235 0.362 -0.676 0.533 -1.095 0.422 c -0.417 -0.11 -0.717 -0.477 -0.742 -0.908 c -0.144 -2.423 -0.781 -4.004 -1.896 -4.7 c -1.92 -1.198 -5.475 0.058 -7.98 1.105 c -3.307 1.266 -6.136 1.084 -8.477 0.726 c -0.111 0.262 -0.225 0.951 -0.119 2.75 c 0.027 0.45 -0.251 0.862 -0.679 1.006 C 34.968 27.477 34.86 27.494 34.754 27.494 z M 50.314 19.368 c 1.116 0 2.168 0.225 3.072 0.789 c 1.104 0.688 1.88 1.779 2.345 3.305 c 0.912 -2.123 1.117 -4.077 0.566 -5.659 c -0.5 -1.437 -1.612 -2.483 -3.216 -3.023 c -0.221 -0.075 -0.408 -0.224 -0.531 -0.421 c -2.666 -4.309 -8.154 -4.998 -13.057 -3.77 c 0.581 0.47 0.916 0.953 1.042 1.481 c 0.116 0.483 -0.142 0.979 -0.604 1.162 c -3.549 1.404 -5.681 3.188 -6.337 5.301 c -0.404 1.302 -0.269 2.801 0.402 4.48 c 0.135 -0.367 0.328 -0.681 0.598 -0.918 c 0.409 -0.36 0.949 -0.501 1.517 -0.394 c 2.177 0.339 4.616 0.506 7.494 -0.596 C 45.679 20.234 48.122 19.368 50.314 19.368 z" style="stroke: none; stroke-width: 1; stroke-dasharray: none; stroke-linecap: butt; stroke-linejoin: miter; stroke-miterlimit: 10; fill: rgb(0,0,0); fill-rule: nonzero; opacity: 1;" transform=" matrix(1 0 0 1 0 0) " stroke-linecap="round" />
	<path d="M 45 44.677 c -0.715 0 -1.419 -0.123 -2.091 -0.366 c -4.88 -1.763 -8.313 -6.244 -8.746 -11.415 l -0.408 -6.338 c -0.035 -0.551 0.383 -1.026 0.934 -1.062 c 0.551 -0.03 1.027 0.383 1.062 0.934 l 0.406 6.318 c 0.366 4.375 3.284 8.183 7.431 9.682 c 0.907 0.328 1.916 0.328 2.822 0 c 4.147 -1.499 7.065 -5.307 7.434 -9.702 l 0.38 -6.295 c 0.033 -0.551 0.524 -0.967 1.059 -0.937 c 0.551 0.033 0.971 0.507 0.937 1.059 l -0.382 6.318 c -0.435 5.194 -3.867 9.675 -8.748 11.438 C 46.42 44.554 45.716 44.677 45 44.677 z" style="stroke: none; stroke-width: 1; stroke-dasharray: none; stroke-linecap: butt; stroke-linejoin: miter; stroke-miterlimit: 10; fill: rgb(0,0,0); fill-rule: nonzero; opacity: 1;" transform=" matrix(1 0 0 1 0 0) " stroke-linecap="round" />
	<path d="M 38.512 56.48 h -3.79 c -0.552 0 -1 -0.447 -1 -1 s 0.448 -1 1 -1 h 3.79 c 0.552 0 1 0.447 1 1 S 39.064 56.48 38.512 56.48 z" style="stroke: none; stroke-width: 1; stroke-dasharray: none; stroke-linecap: butt; stroke-linejoin: miter; stroke-miterlimit: 10; fill: rgb(0,0,0); fill-rule: nonzero; opacity: 1;" transform=" matrix(1 0 0 1 0 0) " stroke-linecap="round" />
	<path d="M 42.338 29.414 h -2.784 c -0.552 0 -1 -0.448 -1 -1 c 0 -0.552 0.448 -1 1 -1 h 2.784 c 0.552 0 1 0.448 1 1 C 43.338 28.966 42.89 29.414 42.338 29.414 z" style="stroke: none; stroke-width: 1; stroke-dasharray: none; stroke-linecap: butt; stroke-linejoin: miter; stroke-miterlimit: 10; fill: rgb(0,0,0); fill-rule: nonzero; opacity: 1;" transform=" matrix(1 0 0 1 0 0) " stroke-linecap="round" />
	<path d="M 50.446 29.414 h -2.784 c -0.553 0 -1 -0.448 -1 -1 c 0 -0.552 0.447 -1 1 -1 h 2.784 c 0.553 0 1 0.448 1 1 C 51.446 28.966 50.999 29.414 50.446 29.414 z" style="stroke: none; stroke-width: 1; stroke-dasharray: none; stroke-linecap: butt; stroke-linejoin: miter; stroke-miterlimit: 10; fill: rgb(0,0,0); fill-rule: nonzero; opacity: 1;" transform=" matrix(1 0 0 1 0 0) " stroke-linecap="round" />
	<path d="M 44.936 38.815 c -1.35 0 -2.677 -0.546 -3.946 -1.637 c -0.419 -0.36 -0.466 -0.992 -0.106 -1.41 c 0.36 -0.419 0.993 -0.465 1.41 -0.106 c 1.804 1.55 3.481 1.542 5.44 -0.023 c 0.431 -0.344 1.062 -0.274 1.405 0.157 c 0.345 0.431 0.274 1.061 -0.157 1.406 C 47.638 38.276 46.275 38.815 44.936 38.815 z" style="stroke: none; stroke-width: 1; stroke-dasharray: none; stroke-linecap: butt; stroke-linejoin: miter; stroke-miterlimit: 10; fill: rgb(0,0,0); fill-rule: nonzero; opacity: 1;" transform=" matrix(1 0 0 1 0 0) " stroke-linecap="round" />
	<path d="M 56.737 69.446 H 33.263 c -0.552 0 -1 -0.447 -1 -1 v -0.709 c 0 -4.969 -2.311 -9.648 -6.341 -12.838 c -0.148 -0.117 -0.293 -0.241 -0.437 -0.365 l -0.217 -0.184 c -0.227 -0.19 -0.358 -0.472 -0.358 -0.768 v -3.892 c 0 -3.035 2.322 -5.628 5.521 -6.167 l 5.154 -0.868 c 1.22 -0.205 2.206 -1.035 2.511 -2.114 c 0.151 -0.532 0.704 -0.838 1.235 -0.69 c 0.531 0.151 0.84 0.704 0.69 1.235 c -0.515 1.818 -2.126 3.208 -4.104 3.541 l -5.154 0.868 c -2.233 0.375 -3.853 2.14 -3.853 4.194 v 3.43 c 0.083 0.071 0.167 0.142 0.253 0.21 c 4.434 3.509 7.01 8.64 7.098 14.115 h 21.479 c 0.088 -5.459 2.651 -10.659 6.896 -13.957 c 0.154 -0.12 0.306 -0.244 0.456 -0.37 v -3.428 c 0 -2.055 -1.621 -3.819 -3.853 -4.194 l -5.154 -0.868 c -1.979 -0.333 -3.59 -1.724 -4.103 -3.542 c -0.15 -0.531 0.158 -1.084 0.689 -1.234 c 0.531 -0.146 1.085 0.159 1.234 0.69 c 0.306 1.079 1.291 1.908 2.512 2.114 l 5.154 0.868 c 3.199 0.539 5.521 3.132 5.521 6.167 v 3.894 c 0 0.296 -0.132 0.577 -0.358 0.768 l -0.165 0.138 c -0.232 0.195 -0.465 0.391 -0.705 0.577 c -3.836 2.98 -6.126 7.715 -6.126 12.666 v 0.712 C 57.737 68.999 57.29 69.446 56.737 69.446 z" style="stroke: none; stroke-width: 1; stroke-dasharray: none; stroke-linecap: butt; stroke-linejoin: miter; stroke-miterlimit: 10; fill: rgb(0,0,0); fill-rule: nonzero; opacity: 1;" transform=" matrix(1 0 0 1 0 0) " stroke-linecap="round" />
	<path d="M 46.998 43.271 c -0.083 0.032 -0.163 0.069 -0.247 0.1 l 0 0 c -0.566 0.204 -1.158 0.307 -1.751 0.307 s -1.185 -0.102 -1.751 -0.307 l 0 0 c -0.084 -0.03 -0.164 -0.068 -0.247 -0.1 l -1.541 3.376 l 1.97 3.117 l -2.004 18.682 h 7.148 L 46.57 49.764 l 1.97 -3.117 L 46.998 43.271 z" style="stroke: none; stroke-width: 1; stroke-dasharray: none; stroke-linecap: butt; stroke-linejoin: miter; stroke-miterlimit: 10; fill: rgb(66,148,255); fill-rule: nonzero; opacity: 1;" transform=" matrix(1 0 0 1 0 0) " stroke-linecap="round" />
	<path d="M 48.574 69.446 h -7.148 c -0.284 0 -0.554 -0.12 -0.744 -0.332 c -0.19 -0.211 -0.281 -0.492 -0.25 -0.774 l 1.967 -18.335 l -1.784 -2.823 c -0.181 -0.285 -0.205 -0.643 -0.064 -0.949 l 1.541 -3.377 c 0.219 -0.481 0.774 -0.708 1.27 -0.518 l 0.227 0.092 c 0.909 0.33 1.917 0.329 2.823 0 l 0.225 -0.091 c 0.494 -0.192 1.052 0.035 1.271 0.517 l 1.542 3.377 c 0.141 0.307 0.116 0.664 -0.063 0.949 l -1.784 2.822 l 1.967 18.336 c 0.03 0.282 -0.061 0.563 -0.25 0.774 C 49.129 69.326 48.858 69.446 48.574 69.446 z M 42.539 67.446 h 4.922 l -1.885 -17.575 c -0.024 -0.224 0.028 -0.45 0.149 -0.641 l 1.68 -2.66 l -0.944 -2.069 c -0.953 0.233 -1.967 0.234 -2.922 0 l -0.945 2.069 l 1.681 2.66 c 0.121 0.19 0.173 0.417 0.149 0.641 L 42.539 67.446 z" style="stroke: none; stroke-width: 1; stroke-dasharray: none; stroke-linecap: butt; stroke-linejoin: miter; stroke-miterlimit: 10; fill: rgb(0,0,0); fill-rule: nonzero; opacity: 1;" transform=" matrix(1 0 0 1 0 0) " stroke-linecap="round" />
</g>
</svg>