<svg xmlns="http://www.w3.org/2000/svg" xmlns:xlink="http://www.w3.org/1999/xlink" version="1.1" width="256" height="256" viewBox="0 0 256 256" xml:space="preserve">

<defs>
</defs>
<g style="stroke: none; stroke-width: 0; stroke-dasharray: none; stroke-linecap: butt; stroke-linejoin: miter; stroke-miterlimit: 10; fill: none; fill-rule: nonzero; opacity: 1;" transform="translate(1.4065934065934016 1.4065934065934016) scale(2.81 2.81)" >
	<path d="M 81.766 68.815 h -1.462 V 23.09 c 0 -3.896 -3.667 -7.066 -8.174 -7.066 h -0.978 v -1.11 c 0 -4.513 -4.269 -8.184 -9.515 -8.184 H 28.362 c -5.246 0 -9.514 3.671 -9.514 8.184 v 1.11 H 17.87 c -4.507 0 -8.173 3.17 -8.173 7.066 v 45.726 H 8.234 C 3.694 68.815 0 72.51 0 77.05 v 5.621 c 0 0.828 0.671 1.5 1.5 1.5 h 87 c 0.828 0 1.5 -0.672 1.5 -1.5 V 77.05 C 90 72.51 86.306 68.815 81.766 68.815 z M 12.697 23.09 c 0 -2.242 2.321 -4.066 5.173 -4.066 h 2.478 c 0.829 0 1.5 -0.671 1.5 -1.5 v -2.61 c 0 -2.858 2.922 -5.184 6.514 -5.184 h 33.276 c 3.592 0 6.515 2.326 6.515 5.184 v 2.61 c 0 0.829 0.672 1.5 1.5 1.5 h 2.478 c 2.853 0 5.174 1.824 5.174 4.066 v 45.726 H 12.697 V 23.09 z M 87 81.171 H 3 V 77.05 c 0 -2.887 2.348 -5.234 5.234 -5.234 h 2.962 h 67.607 h 2.962 c 2.887 0 5.234 2.348 5.234 5.234 V 81.171 z" style="stroke: none; stroke-width: 1; stroke-dasharray: none; stroke-linecap: butt; stroke-linejoin: miter; stroke-miterlimit: 10; fill: rgb(0,0,0); fill-rule: nonzero; opacity: 1;" transform=" matrix(1 0 0 1 0 0) " stroke-linecap="round" />
	<path d="M 37.75 39.682 v -1.431 c 0 -3.839 -3.124 -6.962 -6.963 -6.962 h -6.893 c -0.829 0 -1.5 0.671 -1.5 1.5 v 12.356 v 6.582 c 0 0.828 0.671 1.5 1.5 1.5 s 1.5 -0.672 1.5 -1.5 v -5.082 h 4.029 l 5.734 6.108 c 0.295 0.314 0.694 0.474 1.094 0.474 c 0.368 0 0.737 -0.135 1.026 -0.406 c 0.604 -0.567 0.634 -1.517 0.067 -2.12 l -4.2 -4.475 C 35.824 45.256 37.75 42.693 37.75 39.682 z M 34.75 39.682 c 0 2.185 -1.778 3.963 -3.963 3.963 h -5.393 v -9.356 h 5.393 c 2.185 0 3.963 1.777 3.963 3.962 V 39.682 z" style="stroke: none; stroke-width: 1; stroke-dasharray: none; stroke-linecap: butt; stroke-linejoin: miter; stroke-miterlimit: 10; fill: rgb(0,0,0); fill-rule: nonzero; opacity: 1;" transform=" matrix(1 0 0 1 0 0) " stroke-linecap="round" />
	<path d="M 44.448 53.227 c -0.829 0 -1.5 -0.672 -1.5 -1.5 V 32.789 c 0 -0.829 0.671 -1.5 1.5 -1.5 s 1.5 0.671 1.5 1.5 v 18.938 C 45.948 52.555 45.277 53.227 44.448 53.227 z" style="stroke: none; stroke-width: 1; stroke-dasharray: none; stroke-linecap: butt; stroke-linejoin: miter; stroke-miterlimit: 10; fill: rgb(0,0,0); fill-rule: nonzero; opacity: 1;" transform=" matrix(1 0 0 1 0 0) " stroke-linecap="round" />
	<path d="M 60.644 31.289 h -6.893 c -0.828 0 -1.5 0.671 -1.5 1.5 v 12.356 v 6.582 c 0 0.828 0.672 1.5 1.5 1.5 s 1.5 -0.672 1.5 -1.5 v -5.082 h 5.393 c 3.839 0 6.963 -3.124 6.963 -6.963 v -1.431 C 67.606 34.412 64.482 31.289 60.644 31.289 z M 64.606 39.682 c 0 2.185 -1.777 3.963 -3.963 3.963 h -5.393 v -9.356 h 5.393 c 2.186 0 3.963 1.777 3.963 3.962 V 39.682 z" style="stroke: none; stroke-width: 1; stroke-dasharray: none; stroke-linecap: butt; stroke-linejoin: miter; stroke-miterlimit: 10; fill: rgb(0,0,0); fill-rule: nonzero; opacity: 1;" transform=" matrix(1 0 0 1 0 0) " stroke-linecap="round" />
</g>
</svg>