<svg xmlns="http://www.w3.org/2000/svg" xmlns:xlink="http://www.w3.org/1999/xlink" version="1.1" width="256" height="256" viewBox="0 0 256 256" xml:space="preserve">

<defs>
</defs>
<g style="stroke: none; stroke-width: 0; stroke-dasharray: none; stroke-linecap: butt; stroke-linejoin: miter; stroke-miterlimit: 10; fill: none; fill-rule: nonzero; opacity: 1;" transform="translate(1.4065934065934016 1.4065934065934016) scale(2.81 2.81)" >
	<path d="M 0 45 c 30 36.09 60 36.09 90 0 C 60 8.91 30 8.91 0 45 z" style="stroke: none; stroke-width: 1; stroke-dasharray: none; stroke-linecap: butt; stroke-linejoin: miter; stroke-miterlimit: 10; fill: rgb(254,254,254); fill-rule: nonzero; opacity: 1;" transform=" matrix(1 0 0 1 0 0) " stroke-linecap="round" />
	<circle cx="45" cy="45" r="45" style="stroke: none; stroke-width: 1; stroke-dasharray: none; stroke-linecap: butt; stroke-linejoin: miter; stroke-miterlimit: 10; fill: rgb(246,198,175); fill-rule: nonzero; opacity: 1;" transform="  matrix(1 0 0 1 0 0) "/>
	<path d="M 0 45 c 30 32.286 60 32.286 90 0 C 60 12.714 30 12.714 0 45 z" style="stroke: none; stroke-width: 1; stroke-dasharray: none; stroke-linecap: butt; stroke-linejoin: miter; stroke-miterlimit: 10; fill: rgb(255,255,255); fill-rule: nonzero; opacity: 1;" transform=" matrix(1 0 0 1 0 0) " stroke-linecap="round" />
	<radialGradient id="SVGID_1" gradientUnits="userSpaceOnUse" cx="45" cy="45.1928" r="21.1587" fx="45" fy="45.1928">
<stop offset="72.56%" style="stop-color:rgb(191,201,191);stop-opacity: 1"/>
<stop offset="100%" style="stop-color:rgb(93,110,107);stop-opacity: 1"/>
</radialGradient>
<circle cx="44.998999999999995" cy="45.189" r="21.159" style="stroke: none; stroke-width: 1; stroke-dasharray: none; stroke-linecap: butt; stroke-linejoin: miter; stroke-miterlimit: 10; fill: url(#SVGID_1); fill-rule: nonzero; opacity: 1;" transform="  matrix(1 0 0 1 0 0) "/>
	<circle cx="44.998" cy="45.198" r="9.068" style="stroke: none; stroke-width: 1; stroke-dasharray: none; stroke-linecap: butt; stroke-linejoin: miter; stroke-miterlimit: 10; fill: rgb(30,23,29); fill-rule: nonzero; opacity: 1;" transform="  matrix(1 0 0 1 0 0) "/>
	<path d="M 0 45 c 30 36.09 60 36.09 90 0 C 60 68.864 30 68.864 0 45 z" style="stroke: none; stroke-width: 1; stroke-dasharray: none; stroke-linecap: butt; stroke-linejoin: miter; stroke-miterlimit: 10; fill: rgb(246,198,175); fill-rule: nonzero; opacity: 1;" transform=" matrix(1 0 0 1 0 0) " stroke-linecap="round" />
	<path d="M 90 45 C 60 8.91 30 8.91 0 45 C 30 32.172 60 32.172 90 45 z" style="stroke: none; stroke-width: 1; stroke-dasharray: none; stroke-linecap: butt; stroke-linejoin: miter; stroke-miterlimit: 10; fill: rgb(246,198,175); fill-rule: nonzero; opacity: 1;" transform=" matrix(1 0 0 1 0 0) " stroke-linecap="round" />
	<path d="M 90 45 c -7.346 -2.456 -14.748 -4.544 -22.265 -5.96 C 60.222 37.64 52.615 36.852 45 36.878 l -5.708 0.128 l -5.697 0.428 c -1.891 0.228 -3.79 0.413 -5.679 0.674 c -1.877 0.336 -3.77 0.598 -5.651 0.937 C 14.75 40.461 7.347 42.547 0 45 c 6.858 -3.603 14.191 -6.365 21.766 -8.243 c 1.893 -0.471 3.81 -0.847 5.724 -1.243 c 1.924 -0.338 3.862 -0.601 5.795 -0.904 c 1.943 -0.222 3.897 -0.352 5.846 -0.531 L 45 33.88 l 5.869 0.201 c 1.949 0.18 3.903 0.306 5.845 0.533 c 1.933 0.303 3.871 0.565 5.795 0.903 c 1.914 0.396 3.83 0.775 5.724 1.244 C 75.808 38.64 83.14 41.4 90 45 z" style="stroke: none; stroke-width: 1; stroke-dasharray: none; stroke-linecap: butt; stroke-linejoin: miter; stroke-miterlimit: 10; fill: rgb(30,23,29); fill-rule: nonzero; opacity: 1;" transform=" matrix(1 0 0 1 0 0) " stroke-linecap="round" />
	<path d="M 66.954 36.856 c 1.824 0.104 3.53 -0.082 5.123 -0.572 c 1.592 -0.49 3.056 -1.274 4.387 -2.25 c 1.326 -0.983 2.527 -2.155 3.569 -3.492 c 1.043 -1.34 1.928 -2.826 2.74 -4.462 c 0.001 1.831 -0.535 3.668 -1.431 5.312 c -0.896 1.647 -2.153 3.127 -3.695 4.254 c -1.533 1.132 -3.356 1.909 -5.25 2.16 C 70.512 38.066 68.548 37.763 66.954 36.856 z" style="stroke: none; stroke-width: 1; stroke-dasharray: none; stroke-linecap: butt; stroke-linejoin: miter; stroke-miterlimit: 10; fill: rgb(30,23,29); fill-rule: nonzero; opacity: 1;" transform=" matrix(1 0 0 1 0 0) " stroke-linecap="round" />
	<path d="M 76.199 39.83 c 2.335 -0.155 4.095 -0.894 5.681 -2.058 c 0.785 -0.581 1.512 -1.258 2.188 -2.027 c 0.686 -0.768 1.294 -1.629 1.955 -2.607 c 0.157 1.176 -0.117 2.378 -0.636 3.463 c -0.528 1.083 -1.328 2.053 -2.323 2.783 c -0.991 0.73 -2.187 1.22 -3.422 1.33 C 78.412 40.82 77.146 40.548 76.199 39.83 z" style="stroke: none; stroke-width: 1; stroke-dasharray: none; stroke-linecap: butt; stroke-linejoin: miter; stroke-miterlimit: 10; fill: rgb(30,23,29); fill-rule: nonzero; opacity: 1;" transform=" matrix(1 0 0 1 0 0) " stroke-linecap="round" />
	<path d="M 83.409 42.092 c 0.676 -0.083 1.238 -0.221 1.755 -0.428 c 0.511 -0.215 0.984 -0.473 1.415 -0.805 c 0.444 -0.314 0.843 -0.698 1.237 -1.116 c 0.389 -0.426 0.753 -0.897 1.16 -1.444 c 0.223 1.354 -0.496 2.767 -1.628 3.607 c -0.577 0.41 -1.26 0.702 -1.976 0.747 C 84.666 42.71 83.936 42.531 83.409 42.092 z" style="stroke: none; stroke-width: 1; stroke-dasharray: none; stroke-linecap: butt; stroke-linejoin: miter; stroke-miterlimit: 10; fill: rgb(30,23,29); fill-rule: nonzero; opacity: 1;" transform=" matrix(1 0 0 1 0 0) " stroke-linecap="round" />
	<path d="M 56.648 35.82 c 1.965 0.146 3.822 -0.036 5.56 -0.557 c 1.736 -0.52 3.336 -1.369 4.784 -2.432 c 1.444 -1.07 2.747 -2.351 3.869 -3.811 c 1.123 -1.463 2.067 -3.086 2.913 -4.866 c -0.033 1.975 -0.627 3.948 -1.603 5.715 c -0.976 1.77 -2.335 3.36 -3.995 4.573 c -1.651 1.219 -3.61 2.06 -5.647 2.342 C 60.498 37.076 58.384 36.769 56.648 35.82 z" style="stroke: none; stroke-width: 1; stroke-dasharray: none; stroke-linecap: butt; stroke-linejoin: miter; stroke-miterlimit: 10; fill: rgb(30,23,29); fill-rule: nonzero; opacity: 1;" transform=" matrix(1 0 0 1 0 0) " stroke-linecap="round" />
	<path d="M 53.015 34.37 c 2.308 -0.387 3.985 -1.298 5.448 -2.614 c 0.724 -0.656 1.379 -1.402 1.975 -2.235 c 0.606 -0.833 1.125 -1.75 1.685 -2.789 c 0.273 1.154 0.121 2.377 -0.287 3.509 c -0.417 1.13 -1.117 2.176 -2.034 3 c -0.913 0.825 -2.055 1.432 -3.272 1.665 C 55.316 35.134 54.029 34.99 53.015 34.37 z" style="stroke: none; stroke-width: 1; stroke-dasharray: none; stroke-linecap: butt; stroke-linejoin: miter; stroke-miterlimit: 10; fill: rgb(30,23,29); fill-rule: nonzero; opacity: 1;" transform=" matrix(1 0 0 1 0 0) " stroke-linecap="round" />
	<path d="M 47.449 34.068 c 0.643 -0.225 1.163 -0.479 1.625 -0.79 c 0.454 -0.319 0.862 -0.671 1.213 -1.087 c 0.368 -0.401 0.676 -0.861 0.973 -1.352 c 0.29 -0.499 0.545 -1.036 0.827 -1.657 c 0.505 1.276 0.102 2.81 -0.827 3.87 c -0.477 0.523 -1.083 0.953 -1.773 1.149 C 48.808 34.406 48.057 34.386 47.449 34.068 z" style="stroke: none; stroke-width: 1; stroke-dasharray: none; stroke-linecap: butt; stroke-linejoin: miter; stroke-miterlimit: 10; fill: rgb(30,23,29); fill-rule: nonzero; opacity: 1;" transform=" matrix(1 0 0 1 0 0) " stroke-linecap="round" />
</g>
</svg>