<svg xmlns="http://www.w3.org/2000/svg" xmlns:xlink="http://www.w3.org/1999/xlink" version="1.1" width="256" height="256" viewBox="0 0 256 256" xml:space="preserve">

<defs>
</defs>
<g style="stroke: none; stroke-width: 0; stroke-dasharray: none; stroke-linecap: butt; stroke-linejoin: miter; stroke-miterlimit: 10; fill: none; fill-rule: nonzero; opacity: 1;" transform="translate(1.4065934065934016 1.4065934065934016) scale(2.81 2.81)" >
	<path d="M 67.884 90 c -13.304 0.001 -30.268 -8.173 -44.983 -22.888 c -3.237 -3.236 -6.232 -6.673 -8.904 -10.217 c -0.997 -1.321 -0.733 -3.201 0.589 -4.198 c 1.323 -0.995 3.202 -0.733 4.198 0.589 c 2.504 3.321 5.315 6.547 8.355 9.587 c 18.846 18.846 42.95 26.581 52.641 16.895 c 4.042 -4.041 5.212 -10.871 3.299 -19.233 c -0.369 -1.614 0.64 -3.221 2.254 -3.591 c 1.607 -0.365 3.221 0.639 3.591 2.254 c 2.391 10.445 0.648 19.257 -4.905 24.809 C 79.962 88.065 74.355 90 67.884 90 z" style="stroke: none; stroke-width: 1; stroke-dasharray: none; stroke-linecap: butt; stroke-linejoin: miter; stroke-miterlimit: 10; fill: rgb(74,86,204); fill-rule: nonzero; opacity: 1;" transform=" matrix(1 0 0 1 0 0) " stroke-linecap="round" />
	<path d="M 73.213 37.348 c -0.901 0 -1.791 -0.404 -2.381 -1.174 c -2.4 -3.131 -5.073 -6.175 -7.946 -9.047 C 44.04 8.281 19.933 0.546 10.245 10.232 c -4.206 4.207 -5.298 11.37 -3.073 20.17 C 7.577 32.007 6.605 33.637 5 34.042 c -1.605 0.405 -3.235 -0.567 -3.641 -2.172 C -1.404 20.942 0.247 11.752 6.006 5.993 C 18.405 -6.405 45.252 1.015 67.125 22.888 c 3.058 3.057 5.906 6.3 8.465 9.639 c 1.007 1.314 0.758 3.196 -0.555 4.203 C 74.49 37.146 73.849 37.348 73.213 37.348 z" style="stroke: none; stroke-width: 1; stroke-dasharray: none; stroke-linecap: butt; stroke-linejoin: miter; stroke-miterlimit: 10; fill: rgb(74,86,204); fill-rule: nonzero; opacity: 1;" transform=" matrix(1 0 0 1 0 0) " stroke-linecap="round" />
	<path d="M 22.054 89.97 c -6.584 0 -12.099 -2.013 -16.048 -5.963 C -6.393 71.608 1.028 44.762 22.901 22.888 c 2.992 -2.992 6.16 -5.782 9.417 -8.293 c 1.31 -1.01 3.193 -0.769 4.204 0.543 c 1.011 1.311 0.768 3.193 -0.543 4.204 c -3.054 2.355 -6.028 4.975 -8.839 7.786 C 8.294 45.973 0.557 70.08 10.245 79.768 c 4.427 4.426 12.029 5.401 21.406 2.742 c 1.596 -0.449 3.25 0.474 3.702 2.067 c 0.452 1.592 -0.474 3.25 -2.066 3.702 C 29.295 89.41 25.525 89.97 22.054 89.97 z" style="stroke: none; stroke-width: 1; stroke-dasharray: none; stroke-linecap: butt; stroke-linejoin: miter; stroke-miterlimit: 10; fill: rgb(206,74,74); fill-rule: nonzero; opacity: 1;" transform=" matrix(1 0 0 1 0 0) " stroke-linecap="round" />
	<path d="M 53.733 77.636 c -0.929 0 -1.844 -0.429 -2.431 -1.239 c -0.971 -1.341 -0.671 -3.215 0.669 -4.186 c 3.794 -2.748 7.465 -5.889 10.915 -9.338 c 9.507 -9.507 16.422 -20.4 19.474 -30.673 c 2.863 -9.64 1.948 -17.442 -2.579 -21.968 c -4.314 -4.313 -11.69 -5.348 -20.772 -2.916 c -1.595 0.428 -3.243 -0.521 -3.671 -2.12 c -0.428 -1.599 0.52 -3.243 2.119 -3.671 C 68.691 -1.484 78.127 0.1 84.02 5.993 c 6.154 6.154 7.606 16.067 4.086 27.914 c -3.33 11.213 -10.782 23.005 -20.982 33.205 c -3.673 3.673 -7.587 7.022 -11.637 9.955 C 54.956 77.451 54.341 77.636 53.733 77.636 z" style="stroke: none; stroke-width: 1; stroke-dasharray: none; stroke-linecap: butt; stroke-linejoin: miter; stroke-miterlimit: 10; fill: rgb(206,74,74); fill-rule: nonzero; opacity: 1;" transform=" matrix(1 0 0 1 0 0) " stroke-linecap="round" />
	<path d="M 45.013 62.49 c -9.643 0 -17.489 -7.846 -17.489 -17.489 s 7.846 -17.489 17.489 -17.489 c 5.411 0 10.431 2.445 13.773 6.709 c 1.021 1.303 0.792 3.187 -0.51 4.208 s -3.188 0.792 -4.208 -0.51 c -2.197 -2.804 -5.497 -4.412 -9.054 -4.412 c -6.338 0 -11.494 5.156 -11.494 11.494 c 0 6.339 5.156 11.494 11.494 11.494 c 6.338 0 11.494 -5.156 11.494 -11.494 c 0 -1.655 1.342 -2.998 2.998 -2.998 s 2.998 1.342 2.998 2.998 C 62.503 54.644 54.657 62.49 45.013 62.49 z" style="stroke: none; stroke-width: 1; stroke-dasharray: none; stroke-linecap: butt; stroke-linejoin: miter; stroke-miterlimit: 10; fill: rgb(74,86,204); fill-rule: nonzero; opacity: 1;" transform=" matrix(1 0 0 1 0 0) " stroke-linecap="round" />
	<circle cx="45.016000000000005" cy="44.996" r="4.496" style="stroke: none; stroke-width: 1; stroke-dasharray: none; stroke-linecap: butt; stroke-linejoin: miter; stroke-miterlimit: 10; fill: rgb(206,74,74); fill-rule: nonzero; opacity: 1;" transform="  matrix(1 0 0 1 0 0) "/>
</g>
</svg>