<svg xmlns="http://www.w3.org/2000/svg" xmlns:xlink="http://www.w3.org/1999/xlink" version="1.1" width="256" height="256" viewBox="0 0 256 256" xml:space="preserve">

<defs>
</defs>
<g style="stroke: none; stroke-width: 0; stroke-dasharray: none; stroke-linecap: butt; stroke-linejoin: miter; stroke-miterlimit: 10; fill: none; fill-rule: nonzero; opacity: 1;" transform="translate(1.4065934065934016 1.4065934065934016) scale(2.81 2.81)" >
	<path d="M 49.719 26.678 h 6.43 c 2.514 0 4.551 -2.038 4.551 -4.551 v 0 c 0 -2.514 -2.038 -4.551 -4.551 -4.551 h -6.43 c -2.514 0 -4.551 2.038 -4.551 4.551 v 0 C 45.168 24.641 47.205 26.678 49.719 26.678 z" style="stroke: none; stroke-width: 1; stroke-dasharray: none; stroke-linecap: butt; stroke-linejoin: miter; stroke-miterlimit: 10; fill: rgb(248,218,127); fill-rule: nonzero; opacity: 1;" transform=" matrix(1 0 0 1 0 0) " stroke-linecap="round" />
	<path d="M 14.603 52.232 l 0.785 -2.448 l 2.448 -0.785 c 2.038 -0.654 4.195 -0.929 6.389 -0.87 v -7.243 c 0 -2.209 -1.791 -4 -4 -4 h -9.601 c -2.209 0 -4 1.791 -4 4 v 32.423 h 12.614 C 14.283 66.855 12.458 58.914 14.603 52.232 z" style="stroke: none; stroke-width: 1; stroke-dasharray: none; stroke-linecap: butt; stroke-linejoin: miter; stroke-miterlimit: 10; fill: rgb(248,218,127); fill-rule: nonzero; opacity: 1;" transform=" matrix(1 0 0 1 0 0) " stroke-linecap="round" />
	<path d="M 77.563 55.437 h -1.91 c 3.422 -2.218 5.697 -6.063 5.697 -10.437 c 0 -6.857 -5.579 -12.437 -12.437 -12.437 h -4.503 c 3.422 -2.218 5.697 -6.063 5.697 -10.437 c 0 -6.857 -5.579 -12.437 -12.437 -12.437 h -9.474 c -6.857 0 -12.436 5.579 -12.436 12.437 c 0 4.373 2.274 8.219 5.696 10.437 h -4.503 c -2.271 0 -4.432 0.606 -6.344 1.747 c -0.745 -2.674 -3.196 -4.644 -6.104 -4.644 h -8.082 V 27.19 c 2.073 -0.695 3.583 -3.515 3.583 -6.992 c 0 -2.894 -1.409 -10.508 -4.583 -10.508 c -3.173 0 -4.583 7.614 -4.583 10.508 c 0 3.476 1.51 6.296 3.583 6.992 v 2.476 H 6.342 C 2.845 29.667 0 32.512 0 36.009 v 43.3 c 0 0.553 0.448 1 1 1 h 14.771 h 12.534 h 1.543 h 36.333 h 11.382 C 84.421 80.31 90 74.73 90 67.873 S 84.421 55.437 77.563 55.437 z M 12.841 20.199 c 0 -3.738 1.709 -8.378 2.579 -8.508 c 0.877 0.129 2.586 4.769 2.586 8.508 c 0 3.041 -1.361 5.16 -2.583 5.16 S 12.841 23.24 12.841 20.199 z M 37.761 22.127 c 0 -5.755 4.682 -10.437 10.436 -10.437 h 9.474 c 5.755 0 10.437 4.682 10.437 10.437 s -4.682 10.437 -10.437 10.437 h -9.474 C 42.443 32.563 37.761 27.882 37.761 22.127 z M 48.197 34.563 h 9.474 h 11.243 c 5.755 0 10.437 4.682 10.437 10.437 s -4.682 10.437 -10.437 10.437 h -4.901 c -0.115 -0.673 -0.264 -1.338 -0.471 -1.983 c -0.099 -0.308 -0.34 -0.548 -0.646 -0.646 c -3.777 -1.21 -8.092 -0.815 -12.193 0.927 c -1.18 -6.172 -4.654 -11.363 -9.269 -13.736 c -0.286 -0.147 -0.628 -0.147 -0.914 0 c -4.615 2.373 -8.089 7.563 -9.269 13.734 c -0.134 -0.057 -0.268 -0.115 -0.402 -0.169 V 36.546 c 1.784 -1.293 3.882 -1.982 6.106 -1.982 H 48.197 z M 41.988 78.31 c -0.318 0 -0.634 -0.01 -0.949 -0.03 c -0.023 -0.001 -0.043 0.009 -0.065 0.01 c -0.023 -0.001 -0.042 -0.011 -0.065 -0.01 c -0.837 0.054 -1.689 0.028 -2.547 -0.062 c -1.447 -5.529 0.951 -12.74 5.996 -17.785 c 5.04 -5.04 11.976 -7.354 17.427 -5.869 c 1.486 5.456 -0.828 12.387 -5.869 17.428 c -3.999 3.999 -9.145 6.314 -13.924 6.318 H 41.988 z M 37.594 60.433 c 0.791 0.792 1.507 1.643 2.168 2.521 c -3.082 4.706 -4.433 10.232 -3.531 14.903 c -3.618 -0.854 -7.222 -2.893 -10.194 -5.865 c -5.041 -5.041 -7.354 -11.972 -5.869 -17.428 C 25.626 53.077 32.555 55.393 37.594 60.433 z M 40.971 61.251 c -0.612 -0.773 -1.256 -1.527 -1.962 -2.233 c -1.8 -1.8 -3.796 -3.276 -5.882 -4.395 c 0.932 -5.591 3.879 -10.328 7.85 -12.598 c 3.971 2.27 6.917 7.009 7.849 12.6 c -2.086 1.119 -4.082 2.594 -5.882 4.394 C 42.237 59.725 41.579 60.473 40.971 61.251 z M 28.305 78.31 H 15.771 H 2 v -42.3 c 0 -2.395 1.948 -4.343 4.342 -4.343 h 18.164 c 2.395 0 4.342 1.948 4.342 4.343 v 16.863 c -3.351 -0.973 -6.746 -1.043 -9.79 -0.065 c -0.308 0.099 -0.548 0.339 -0.647 0.646 c -2.028 6.319 0.41 14.151 6.211 19.952 c 2.077 2.077 4.447 3.732 6.931 4.904 h -1.705 H 28.305 z M 77.563 78.31 H 66.182 H 50.4 c 2.484 -1.172 4.854 -2.827 6.931 -4.904 c 4.631 -4.63 7.11 -10.553 6.894 -15.969 h 4.69 h 8.649 C 83.318 57.437 88 62.118 88 67.873 S 83.318 78.31 77.563 78.31 z" style="stroke: none; stroke-width: 1; stroke-dasharray: none; stroke-linecap: butt; stroke-linejoin: miter; stroke-miterlimit: 10; fill: rgb(0,0,0); fill-rule: nonzero; opacity: 1;" transform=" matrix(1 0 0 1 0 0) " stroke-linecap="round" />
	<path d="M 7.598 39.944 c -0.552 0 -1 0.448 -1 1 v 22.515 c 0 0.553 0.448 1 1 1 s 1 -0.447 1 -1 V 40.944 C 8.598 40.392 8.15 39.944 7.598 39.944 z" style="stroke: none; stroke-width: 1; stroke-dasharray: none; stroke-linecap: butt; stroke-linejoin: miter; stroke-miterlimit: 10; fill: rgb(0,0,0); fill-rule: nonzero; opacity: 1;" transform=" matrix(1 0 0 1 0 0) " stroke-linecap="round" />
	<path d="M 75.403 63.701 h -6.132 c -1.049 3.16 -2.942 6.291 -5.648 8.997 c -0.036 0.036 -0.074 0.069 -0.11 0.105 h 11.891 c 2.514 0 4.551 -2.038 4.551 -4.551 v 0 C 79.955 65.738 77.917 63.701 75.403 63.701 z" style="stroke: none; stroke-width: 1; stroke-dasharray: none; stroke-linecap: butt; stroke-linejoin: miter; stroke-miterlimit: 10; fill: rgb(248,218,127); fill-rule: nonzero; opacity: 1;" transform=" matrix(1 0 0 1 0 0) " stroke-linecap="round" />
	<path d="M 49.976 40.887 c 3.199 1.645 5.839 4.739 7.454 8.664 h 8.878 c 2.513 0 4.551 -2.038 4.551 -4.551 s -2.038 -4.551 -4.551 -4.551" style="stroke: none; stroke-width: 1; stroke-dasharray: none; stroke-linecap: butt; stroke-linejoin: miter; stroke-miterlimit: 10; fill: rgb(248,218,127); fill-rule: nonzero; opacity: 1;" transform=" matrix(1 0 0 1 0 0) " stroke-linecap="round" />
	<path d="M 31.782 70.948 c 0.431 -2.524 1.27 -5.053 2.479 -7.473 c -1.475 -1.445 -3.019 -2.521 -4.548 -3.294 c -0.067 -0.031 -0.129 -0.068 -0.194 -0.101 c -1.847 -0.903 -3.662 -1.367 -5.285 -1.451 c 0.159 3.068 1.625 6.819 4.985 10.179 C 30.018 69.608 30.883 70.322 31.782 70.948 z" style="stroke: none; stroke-width: 1; stroke-dasharray: none; stroke-linecap: butt; stroke-linejoin: miter; stroke-miterlimit: 10; fill: rgb(248,218,127); fill-rule: nonzero; opacity: 1;" transform=" matrix(1 0 0 1 0 0) " stroke-linecap="round" />
	<path d="M 38.277 52.546 c 0.928 0.656 1.831 1.37 2.698 2.147 c 0.868 -0.778 1.771 -1.492 2.699 -2.148 c -0.641 -1.854 -1.57 -3.495 -2.698 -4.763 C 39.848 49.05 38.919 50.692 38.277 52.546 z" style="stroke: none; stroke-width: 1; stroke-dasharray: none; stroke-linecap: butt; stroke-linejoin: miter; stroke-miterlimit: 10; fill: rgb(248,218,127); fill-rule: nonzero; opacity: 1;" transform=" matrix(1 0 0 1 0 0) " stroke-linecap="round" />
	<path d="M 57.72 58.629 c -1.605 0.083 -3.398 0.536 -5.223 1.418 c -0.087 0.046 -0.171 0.094 -0.261 0.135 c -1.579 0.799 -3.177 1.913 -4.696 3.432 c -3.142 3.142 -4.722 7 -5.029 10.182 c 3.438 -0.177 7.253 -2.018 10.222 -4.987 C 56.094 65.449 57.56 61.697 57.72 58.629 z" style="stroke: none; stroke-width: 1; stroke-dasharray: none; stroke-linecap: butt; stroke-linejoin: miter; stroke-miterlimit: 10; fill: rgb(248,218,127); fill-rule: nonzero; opacity: 1;" transform=" matrix(1 0 0 1 0 0) " stroke-linecap="round" />
</g>
</svg>