<svg xmlns="http://www.w3.org/2000/svg" xmlns:xlink="http://www.w3.org/1999/xlink" version="1.1" width="256" height="256" viewBox="0 0 256 256" xml:space="preserve">

<defs>
</defs>
<g style="stroke: none; stroke-width: 0; stroke-dasharray: none; stroke-linecap: butt; stroke-linejoin: miter; stroke-miterlimit: 10; fill: none; fill-rule: nonzero; opacity: 1;" transform="translate(1.4065934065934016 1.4065934065934016) scale(2.81 2.81)" >
	<path d="M 52.052 88.996 c -2.703 -1.92 -3.392 -3.212 -3.388 -6.911 c 0.113 -5.748 5.671 -16.117 9.303 -15.018 c 9.594 1.186 11.963 0.477 13.955 -1.861 c 1.141 -1.577 0.849 -3.732 0 -6.114 c -0.314 -1.022 2.323 -0.793 2.392 -1.994 c 0.091 -1.987 -2.523 -2.125 -4.12 -2.924 c 1.819 -0.099 5.106 -0.852 4.652 -2.259 c -0.463 -1.184 -2.229 -3.821 -0.665 -3.987 c 1.87 -0.251 4.421 -1.714 4.12 -3.057 c -0.369 -1.8 -6.946 -6.523 -7.044 -11.297 c -0.131 -10.016 -1.701 -16.164 -4.652 -21.132 C 54.99 -5.57 20.789 -2.217 12.742 21.851 c -3.13 8.873 0.525 30.38 12.265 37.507 c 2.262 1.396 -1.488 11.162 -4.929 18.474 c -2.573 4.913 -5.257 8.771 -8.096 11.164 H 52.052 z" style="stroke: none; stroke-width: 1; stroke-dasharray: none; stroke-linecap: butt; stroke-linejoin: miter; stroke-miterlimit: 10; fill: rgb(254,197,165); fill-rule: nonzero; opacity: 1;" transform=" matrix(1 0 0 1 0 0) " stroke-linecap="round" />
	<circle cx="59.189" cy="38.189" r="3.079" style="stroke: none; stroke-width: 1; stroke-dasharray: none; stroke-linecap: butt; stroke-linejoin: miter; stroke-miterlimit: 10; fill: rgb(96,163,208); fill-rule: nonzero; opacity: 1;" transform="  matrix(1 0 0 1 0 0) "/>
	<circle cx="23.919" cy="32.219" r="3.079" style="stroke: none; stroke-width: 1; stroke-dasharray: none; stroke-linecap: butt; stroke-linejoin: miter; stroke-miterlimit: 10; fill: rgb(96,163,208); fill-rule: nonzero; opacity: 1;" transform="  matrix(1 0 0 1 0 0) "/>
	<circle cx="41.629" cy="12.029" r="3.079" style="stroke: none; stroke-width: 1; stroke-dasharray: none; stroke-linecap: butt; stroke-linejoin: miter; stroke-miterlimit: 10; fill: rgb(96,163,208); fill-rule: nonzero; opacity: 1;" transform="  matrix(1 0 0 1 0 0) "/>
	<circle cx="57.189" cy="20.189" r="3.079" style="stroke: none; stroke-width: 1; stroke-dasharray: none; stroke-linecap: butt; stroke-linejoin: miter; stroke-miterlimit: 10; fill: rgb(96,163,208); fill-rule: nonzero; opacity: 1;" transform="  matrix(1 0 0 1 0 0) "/>
	<circle cx="27.519000000000002" cy="18.189" r="3.079" style="stroke: none; stroke-width: 1; stroke-dasharray: none; stroke-linecap: butt; stroke-linejoin: miter; stroke-miterlimit: 10; fill: rgb(96,163,208); fill-rule: nonzero; opacity: 1;" transform="  matrix(1 0 0 1 0 0) "/>
	<path d="M 52.052 89.995 h -40.07 c -0.42 0 -0.795 -0.263 -0.939 -0.657 c -0.144 -0.394 -0.026 -0.837 0.295 -1.107 c 2.572 -2.169 5.215 -5.824 7.855 -10.863 c 5.567 -11.832 5.965 -16.741 5.289 -17.159 c -12.525 -7.603 -15.764 -29.952 -12.682 -38.69 C 15.635 10.044 26.01 1.902 38.869 0.286 c 12.036 -1.509 22.982 2.939 28.577 11.616 c 3.251 5.472 4.684 11.94 4.811 21.66 c 0.056 2.707 2.7 5.63 4.63 7.764 c 1.33 1.47 2.208 2.442 2.393 3.345 c 0.09 0.4 0.094 1.055 -0.423 1.796 c -0.866 1.243 -2.786 2.139 -4.273 2.41 c 0.124 0.463 0.512 1.244 0.72 1.661 c 0.19 0.383 0.363 0.735 0.473 1.014 c 0.198 0.609 0.111 1.182 -0.225 1.672 c -0.39 0.567 -1.09 0.973 -1.855 1.261 c 0.929 0.51 1.679 1.289 1.615 2.661 c -0.073 1.283 -1.295 1.712 -2.025 1.968 c -0.08 0.028 -0.176 0.062 -0.268 0.097 c 0.639 1.91 1.188 4.543 -0.287 6.583 c -2.494 2.93 -5.683 3.408 -14.889 2.266 c -0.057 -0.007 -0.112 -0.019 -0.166 -0.035 c -0.514 -0.151 -1.142 0.197 -1.585 0.519 c -2.98 2.167 -6.344 9.265 -6.429 13.562 c -0.004 3.296 0.496 4.321 2.967 6.077 c 0.354 0.252 0.506 0.705 0.374 1.119 C 52.872 89.714 52.488 89.995 52.052 89.995 z M 14.468 87.996 h 34.889 c -1.305 -1.47 -1.696 -3.091 -1.693 -5.912 c 0.098 -4.977 3.758 -12.618 7.253 -15.159 c 1.142 -0.832 2.237 -1.111 3.249 -0.842 c 9.873 1.215 11.497 0.232 12.996 -1.525 c 0.736 -1.023 0.694 -2.674 -0.182 -5.129 c -0.452 -1.468 1.072 -2.002 1.645 -2.203 c 0.209 -0.073 0.539 -0.189 0.689 -0.284 c -0.035 -0.521 -0.567 -0.79 -2.012 -1.271 c -0.524 -0.175 -1.066 -0.355 -1.556 -0.601 c -0.406 -0.203 -0.624 -0.653 -0.532 -1.098 c 0.093 -0.444 0.472 -0.77 0.925 -0.795 c 1.752 -0.097 3.379 -0.666 3.722 -1.031 c -0.078 -0.18 -0.209 -0.438 -0.348 -0.719 c -0.648 -1.303 -1.318 -2.651 -0.759 -3.671 c 0.148 -0.27 0.518 -0.737 1.32 -0.822 c 1.174 -0.158 2.655 -0.913 3.142 -1.611 c 0.101 -0.144 0.11 -0.224 0.108 -0.233 c -0.096 -0.404 -1.151 -1.571 -1.922 -2.423 c -2.142 -2.368 -5.076 -5.611 -5.147 -9.072 c -0.122 -9.353 -1.472 -15.524 -4.511 -20.641 C 60.59 4.961 50.381 0.856 39.119 2.27 C 27.03 3.789 17.286 11.414 13.69 22.168 C 10.862 30.187 14 51.506 25.525 58.504 c 2.447 1.51 0.916 8.154 -4.543 19.754 C 18.783 82.458 16.64 85.664 14.468 87.996 z" style="stroke: none; stroke-width: 1; stroke-dasharray: none; stroke-linecap: butt; stroke-linejoin: miter; stroke-miterlimit: 10; fill: rgb(0,0,0); fill-rule: nonzero; opacity: 1;" transform=" matrix(1 0 0 1 0 0) " stroke-linecap="round" />
	<path d="M 34.234 74.528 c -0.125 0 -0.253 -0.023 -0.377 -0.074 c -0.511 -0.208 -0.757 -0.792 -0.549 -1.303 l 7.32 -17.968 V 15.109 c 0 -0.552 0.448 -1 1 -1 c 0.552 0 1 0.448 1 1 V 55.38 c 0 0.129 -0.025 0.258 -0.074 0.377 l -7.393 18.149 C 35.003 74.294 34.629 74.528 34.234 74.528 z" style="stroke: none; stroke-width: 1; stroke-dasharray: none; stroke-linecap: butt; stroke-linejoin: miter; stroke-miterlimit: 10; fill: rgb(0,0,0); fill-rule: nonzero; opacity: 1;" transform=" matrix(1 0 0 1 0 0) " stroke-linecap="round" />
	<path d="M 32.851 51.69 c -0.552 0 -1 -0.447 -1 -1 v -8.141 l -6.624 -7.377 c -0.369 -0.411 -0.335 -1.043 0.076 -1.412 c 0.411 -0.37 1.042 -0.335 1.412 0.076 l 6.88 7.661 c 0.165 0.183 0.256 0.421 0.256 0.668 v 8.525 C 33.851 51.243 33.404 51.69 32.851 51.69 z" style="stroke: none; stroke-width: 1; stroke-dasharray: none; stroke-linecap: butt; stroke-linejoin: miter; stroke-miterlimit: 10; fill: rgb(0,0,0); fill-rule: nonzero; opacity: 1;" transform=" matrix(1 0 0 1 0 0) " stroke-linecap="round" />
	<path d="M 50.334 58.689 c -0.553 0 -1 -0.447 -1 -1 v -9.524 c 0 -0.245 0.09 -0.48 0.252 -0.664 l 6.819 -7.68 c 0.368 -0.413 0.999 -0.451 1.412 -0.083 c 0.413 0.366 0.45 0.998 0.084 1.411 l -6.567 7.396 v 9.145 C 51.334 58.242 50.887 58.689 50.334 58.689 z" style="stroke: none; stroke-width: 1; stroke-dasharray: none; stroke-linecap: butt; stroke-linejoin: miter; stroke-miterlimit: 10; fill: rgb(0,0,0); fill-rule: nonzero; opacity: 1;" transform=" matrix(1 0 0 1 0 0) " stroke-linecap="round" />
	<path d="M 59.19 42.27 c -2.249 0 -4.079 -1.83 -4.079 -4.079 s 1.83 -4.079 4.079 -4.079 s 4.079 1.83 4.079 4.079 S 61.439 42.27 59.19 42.27 z M 59.19 36.113 c -1.146 0 -2.079 0.933 -2.079 2.079 c 0 1.146 0.933 2.079 2.079 2.079 c 1.146 0 2.079 -0.933 2.079 -2.079 C 61.269 37.045 60.336 36.113 59.19 36.113 z" style="stroke: none; stroke-width: 1; stroke-dasharray: none; stroke-linecap: butt; stroke-linejoin: miter; stroke-miterlimit: 10; fill: rgb(0,0,0); fill-rule: nonzero; opacity: 1;" transform=" matrix(1 0 0 1 0 0) " stroke-linecap="round" />
	<path d="M 23.92 36.299 c -2.249 0 -4.079 -1.83 -4.079 -4.079 s 1.83 -4.079 4.079 -4.079 s 4.079 1.83 4.079 4.079 S 26.169 36.299 23.92 36.299 z M 23.92 30.141 c -1.146 0 -2.079 0.933 -2.079 2.079 c 0 1.146 0.933 2.079 2.079 2.079 s 2.079 -0.933 2.079 -2.079 C 25.999 31.074 25.066 30.141 23.92 30.141 z" style="stroke: none; stroke-width: 1; stroke-dasharray: none; stroke-linecap: butt; stroke-linejoin: miter; stroke-miterlimit: 10; fill: rgb(0,0,0); fill-rule: nonzero; opacity: 1;" transform=" matrix(1 0 0 1 0 0) " stroke-linecap="round" />
	<path d="M 41.628 16.109 c -2.249 0 -4.079 -1.83 -4.079 -4.079 s 1.83 -4.079 4.079 -4.079 s 4.079 1.83 4.079 4.079 S 43.877 16.109 41.628 16.109 z M 41.628 9.951 c -1.146 0 -2.079 0.933 -2.079 2.079 s 0.933 2.079 2.079 2.079 c 1.146 0 2.079 -0.933 2.079 -2.079 S 42.775 9.951 41.628 9.951 z" style="stroke: none; stroke-width: 1; stroke-dasharray: none; stroke-linecap: butt; stroke-linejoin: miter; stroke-miterlimit: 10; fill: rgb(0,0,0); fill-rule: nonzero; opacity: 1;" transform=" matrix(1 0 0 1 0 0) " stroke-linecap="round" />
	<path d="M 48.38 31.116 c -0.236 0 -0.474 -0.083 -0.664 -0.252 c -0.413 -0.367 -0.45 -0.999 -0.084 -1.412 l 6.774 -7.63 c 0.367 -0.414 1 -0.451 1.412 -0.083 c 0.413 0.366 0.45 0.998 0.084 1.411 l -6.774 7.63 C 48.929 31.003 48.655 31.116 48.38 31.116 z" style="stroke: none; stroke-width: 1; stroke-dasharray: none; stroke-linecap: butt; stroke-linejoin: miter; stroke-miterlimit: 10; fill: rgb(0,0,0); fill-rule: nonzero; opacity: 1;" transform=" matrix(1 0 0 1 0 0) " stroke-linecap="round" />
	<path d="M 57.19 24.272 c -2.249 0 -4.079 -1.83 -4.079 -4.079 s 1.83 -4.079 4.079 -4.079 s 4.079 1.83 4.079 4.079 S 59.439 24.272 57.19 24.272 z M 57.19 18.115 c -1.146 0 -2.079 0.933 -2.079 2.079 s 0.933 2.079 2.079 2.079 c 1.146 0 2.079 -0.933 2.079 -2.079 S 58.337 18.115 57.19 18.115 z" style="stroke: none; stroke-width: 1; stroke-dasharray: none; stroke-linecap: butt; stroke-linejoin: miter; stroke-miterlimit: 10; fill: rgb(0,0,0); fill-rule: nonzero; opacity: 1;" transform=" matrix(1 0 0 1 0 0) " stroke-linecap="round" />
	<path d="M 33.46 25.884 c -0.276 0 -0.551 -0.113 -0.748 -0.336 l -3.904 -4.398 c -0.367 -0.413 -0.33 -1.045 0.083 -1.411 c 0.413 -0.367 1.045 -0.329 1.411 0.083 l 3.904 4.398 c 0.367 0.413 0.33 1.045 -0.083 1.411 C 33.933 25.801 33.695 25.884 33.46 25.884 z" style="stroke: none; stroke-width: 1; stroke-dasharray: none; stroke-linecap: butt; stroke-linejoin: miter; stroke-miterlimit: 10; fill: rgb(0,0,0); fill-rule: nonzero; opacity: 1;" transform=" matrix(1 0 0 1 0 0) " stroke-linecap="round" />
	<path d="M 27.519 22.272 c -2.249 0 -4.079 -1.83 -4.079 -4.079 s 1.83 -4.079 4.079 -4.079 s 4.079 1.83 4.079 4.079 S 29.768 22.272 27.519 22.272 z M 27.519 16.115 c -1.146 0 -2.079 0.933 -2.079 2.079 s 0.933 2.079 2.079 2.079 s 2.079 -0.933 2.079 -2.079 S 28.665 16.115 27.519 16.115 z" style="stroke: none; stroke-width: 1; stroke-dasharray: none; stroke-linecap: butt; stroke-linejoin: miter; stroke-miterlimit: 10; fill: rgb(0,0,0); fill-rule: nonzero; opacity: 1;" transform=" matrix(1 0 0 1 0 0) " stroke-linecap="round" />
</g>
</svg>