<svg xmlns="http://www.w3.org/2000/svg" xmlns:xlink="http://www.w3.org/1999/xlink" version="1.1" width="256" height="256" viewBox="0 0 256 256" xml:space="preserve">

<defs>
</defs>
<g style="stroke: none; stroke-width: 0; stroke-dasharray: none; stroke-linecap: butt; stroke-linejoin: miter; stroke-miterlimit: 10; fill: none; fill-rule: nonzero; opacity: 1;" transform="translate(1.454545454545439 1.454545454545439) scale(2.91 2.91)" >
	<path d="M 44.96 0 c -0.515 2.172 -0.692 4.047 -2.896 6.321 c -4.179 4.17 -5.192 7.071 -5.844 10.099 c -0.932 4.874 2.398 7.645 7.284 7.864 c 3.859 0 6.838 -2.269 6.826 -6.735 c 0.147 -4.816 -1.105 -8.497 -3.497 -11.228 c -0.121 1.081 -0.485 2.166 -1.14 3.256 C 45.992 5.624 45.87 2.262 44.96 0 z" style="stroke: none; stroke-width: 1; stroke-dasharray: none; stroke-linecap: butt; stroke-linejoin: miter; stroke-miterlimit: 10; fill: rgb(247,125,43); fill-rule: nonzero; opacity: 1;" transform=" matrix(1 0 0 1 0 0) " stroke-linecap="round" />
	<path d="M 46.025 86.147 h -5.643 c -3.898 0 -7.087 -3.189 -7.087 -7.087 V 33.129 c 0 -3.898 3.189 -7.087 7.087 -7.087 h 5.643 c 3.898 0 7.087 3.189 7.087 7.087 v 45.931 C 53.111 82.958 49.922 86.147 46.025 86.147 z" style="stroke: none; stroke-width: 1; stroke-dasharray: none; stroke-linecap: butt; stroke-linejoin: miter; stroke-miterlimit: 10; fill: rgb(248,220,176); fill-rule: nonzero; opacity: 1;" transform=" matrix(1 0 0 1 0 0) " stroke-linecap="round" />
	<path d="M 46.025 26.043 h -5.643 c -3.898 0 -7.087 3.189 -7.087 7.087 v 3.521 h 19.817 v -3.521 C 53.111 29.232 49.922 26.043 46.025 26.043 z" style="stroke: none; stroke-width: 1; stroke-dasharray: none; stroke-linecap: butt; stroke-linejoin: miter; stroke-miterlimit: 10; fill: rgb(235,205,158); fill-rule: nonzero; opacity: 1;" transform=" matrix(1 0 0 1 0 0) " stroke-linecap="round" />
	<path d="M 39.295 79.16 V 33.03 c 0 -3.784 3.093 -6.884 6.908 -6.979 c -0.06 -0.002 -0.118 -0.009 -0.178 -0.009 h -5.643 c -3.898 0 -7.087 3.144 -7.087 6.987 v 46.13 c 0 3.843 3.189 6.987 7.087 6.987 h 5.643 c 0.06 0 0.118 -0.007 0.178 -0.009 C 42.387 86.043 39.295 82.944 39.295 79.16 z" style="stroke: none; stroke-width: 1; stroke-dasharray: none; stroke-linecap: butt; stroke-linejoin: miter; stroke-miterlimit: 10; fill: rgb(235,205,158); fill-rule: nonzero; opacity: 1;" transform=" matrix(1 0 0 1 0 0) " stroke-linecap="round" />
	<path d="M 48.39 52.668 L 48.39 52.668 c -0.866 0 -1.574 -0.708 -1.574 -1.574 V 36.677 c 0 -0.866 0.708 -1.574 1.574 -1.574 h 0 c 0.866 0 1.574 0.708 1.574 1.574 v 14.417 C 49.964 51.96 49.256 52.668 48.39 52.668 z" style="stroke: none; stroke-width: 1; stroke-dasharray: none; stroke-linecap: butt; stroke-linejoin: miter; stroke-miterlimit: 10; fill: rgb(235,205,158); fill-rule: nonzero; opacity: 1;" transform=" matrix(1 0 0 1 0 0) " stroke-linecap="round" />
	<path d="M 51.537 48.912 L 51.537 48.912 c -0.866 0 -1.574 -0.708 -1.574 -1.574 V 32.92 c 0 -0.866 0.708 -1.574 1.574 -1.574 h 0 c 0.866 0 1.574 0.708 1.574 1.574 v 14.417 C 53.111 48.203 52.403 48.912 51.537 48.912 z" style="stroke: none; stroke-width: 1; stroke-dasharray: none; stroke-linecap: butt; stroke-linejoin: miter; stroke-miterlimit: 10; fill: rgb(235,205,158); fill-rule: nonzero; opacity: 1;" transform=" matrix(1 0 0 1 0 0) " stroke-linecap="round" />
	<path d="M 45.243 48.287 L 45.243 48.287 c -0.866 0 -1.574 -0.708 -1.574 -1.574 V 32.296 c 0 -0.866 0.708 -1.574 1.574 -1.574 h 0 c 0.866 0 1.574 0.708 1.574 1.574 v 14.417 C 46.816 47.579 46.108 48.287 45.243 48.287 z" style="stroke: none; stroke-width: 1; stroke-dasharray: none; stroke-linecap: butt; stroke-linejoin: miter; stroke-miterlimit: 10; fill: rgb(235,205,158); fill-rule: nonzero; opacity: 1;" transform=" matrix(1 0 0 1 0 0) " stroke-linecap="round" />
	<path d="M 42.095 44.226 L 42.095 44.226 c -0.866 0 -1.574 -0.708 -1.574 -1.574 V 28.235 c 0 -0.866 0.708 -1.574 1.574 -1.574 l 0 0 c 0.866 0 1.574 0.708 1.574 1.574 v 14.417 C 43.669 43.518 42.961 44.226 42.095 44.226 z" style="stroke: none; stroke-width: 1; stroke-dasharray: none; stroke-linecap: butt; stroke-linejoin: miter; stroke-miterlimit: 10; fill: rgb(235,205,158); fill-rule: nonzero; opacity: 1;" transform=" matrix(1 0 0 1 0 0) " stroke-linecap="round" />
	<path d="M 38.948 49.505 L 38.948 49.505 c -0.866 0 -1.574 -0.708 -1.574 -1.574 V 33.514 c 0 -0.866 0.708 -1.574 1.574 -1.574 h 0 c 0.866 0 1.574 0.708 1.574 1.574 v 14.417 C 40.521 48.797 39.813 49.505 38.948 49.505 z" style="stroke: none; stroke-width: 1; stroke-dasharray: none; stroke-linecap: butt; stroke-linejoin: miter; stroke-miterlimit: 10; fill: rgb(235,205,158); fill-rule: nonzero; opacity: 1;" transform=" matrix(1 0 0 1 0 0) " stroke-linecap="round" />
	<path d="M 64.854 87 H 22.146 c -2.02 0 -3.673 -1.653 -3.673 -3.673 l 0 0 c 0 -2.02 1.653 -3.673 3.673 -3.673 h 42.708 c 2.02 0 3.673 1.653 3.673 3.673 l 0 0 C 68.527 85.347 66.874 87 64.854 87 z" style="stroke: none; stroke-width: 1; stroke-dasharray: none; stroke-linecap: butt; stroke-linejoin: miter; stroke-miterlimit: 10; fill: rgb(185,121,28); fill-rule: nonzero; opacity: 1;" transform=" matrix(1 0 0 1 0 0) " stroke-linecap="round" />
	<path d="M 43.042 32.94 c -0.553 0 -1 -0.447 -1 -1 V 21.284 c 0 -0.552 0.447 -1 1 -1 s 1 0.448 1 1 V 31.94 C 44.042 32.493 43.594 32.94 43.042 32.94 z" style="stroke: none; stroke-width: 1; stroke-dasharray: none; stroke-linecap: butt; stroke-linejoin: miter; stroke-miterlimit: 10; fill: rgb(235,205,158); fill-rule: nonzero; opacity: 1;" transform=" matrix(1 0 0 1 0 0) " stroke-linecap="round" />
	<path d="M 44.139 11.35 c -0.274 1.157 -0.369 2.156 -1.543 3.367 c -2.226 2.221 -2.765 3.766 -3.113 5.379 c -0.496 2.596 1.277 4.072 3.88 4.189 c 2.055 0 3.642 -1.208 3.636 -3.587 c 0.078 -2.565 -0.589 -4.526 -1.863 -5.98 c -0.064 0.576 -0.258 1.154 -0.607 1.734 C 44.689 14.345 44.623 12.554 44.139 11.35 z" style="stroke: none; stroke-width: 1; stroke-dasharray: none; stroke-linecap: butt; stroke-linejoin: miter; stroke-miterlimit: 10; fill: rgb(247,178,57); fill-rule: nonzero; opacity: 1;" transform=" matrix(1 0 0 1 0 0) " stroke-linecap="round" />
	<path d="M 27.146 85.327 c -2.02 0 -3.673 -1.653 -3.673 -3.673 v -2 h -1.327 c -2.02 0 -3.673 1.653 -3.673 3.673 S 20.126 87 22.146 87 h 42.708 c 1.283 0 2.413 -0.669 3.071 -1.673 H 27.146 z" style="stroke: none; stroke-width: 1; stroke-dasharray: none; stroke-linecap: butt; stroke-linejoin: miter; stroke-miterlimit: 10; fill: rgb(153,99,19); fill-rule: nonzero; opacity: 1;" transform=" matrix(1 0 0 1 0 0) " stroke-linecap="round" />
</g>
</svg>