<svg xmlns="http://www.w3.org/2000/svg" xmlns:xlink="http://www.w3.org/1999/xlink" version="1.1" width="256" height="256" viewBox="0 0 256 256" xml:space="preserve">

<defs>
</defs>
<g style="stroke: none; stroke-width: 0; stroke-dasharray: none; stroke-linecap: butt; stroke-linejoin: miter; stroke-miterlimit: 10; fill: none; fill-rule: nonzero; opacity: 1;" transform="translate(1.4065934065934016 1.4065934065934016) scale(2.81 2.81)" >
	<path d="M 1 76.634 V 13.366 c 0 -3.183 6.174 -5.763 13.79 -5.763 s 13.79 2.58 13.79 5.763 v 63.268" style="stroke: none; stroke-width: 1; stroke-dasharray: none; stroke-linecap: butt; stroke-linejoin: miter; stroke-miterlimit: 10; fill: rgb(100,171,242); fill-rule: nonzero; opacity: 1;" transform=" matrix(1 0 0 1 0 0) " stroke-linecap="round" />
	<ellipse cx="14.79" cy="76.63300000000001" rx="13.79" ry="5.763" style="stroke: none; stroke-width: 1; stroke-dasharray: none; stroke-linecap: butt; stroke-linejoin: miter; stroke-miterlimit: 10; fill: rgb(85,149,214); fill-rule: nonzero; opacity: 1;" transform=" matrix(1 0 0 1 0 0) "/>
	<path d="M 22.011 8.463 v 68.171 h 6.568 V 13.366 C 28.58 11.291 25.947 9.478 22.011 8.463 z" style="stroke: none; stroke-width: 1; stroke-dasharray: none; stroke-linecap: butt; stroke-linejoin: miter; stroke-miterlimit: 10; fill: rgb(85,149,214); fill-rule: nonzero; opacity: 1;" transform=" matrix(1 0 0 1 0 0) " stroke-linecap="round" />
	<path d="M 14.79 83.397 C 6.358 83.397 0 80.489 0 76.634 s 6.358 -6.763 14.79 -6.763 s 14.79 2.907 14.79 6.763 S 23.221 83.397 14.79 83.397 z M 14.79 71.871 C 7.252 71.871 2 74.381 2 76.634 s 5.252 4.764 12.79 4.764 c 7.538 0 12.79 -2.511 12.79 -4.764 S 22.327 71.871 14.79 71.871 z" style="stroke: none; stroke-width: 1; stroke-dasharray: none; stroke-linecap: butt; stroke-linejoin: miter; stroke-miterlimit: 10; fill: rgb(0,0,0); fill-rule: nonzero; opacity: 1;" transform=" matrix(1 0 0 1 0 0) " stroke-linecap="round" />
	<path d="M 28.58 77.634 c -0.552 0 -1 -0.447 -1 -1 V 13.366 c 0 -2.253 -5.252 -4.763 -12.79 -4.763 C 7.252 8.603 2 11.113 2 13.366 v 63.268 c 0 0.553 -0.448 1 -1 1 s -1 -0.447 -1 -1 V 13.366 C 0 9.51 6.358 6.603 14.79 6.603 s 14.79 2.907 14.79 6.763 v 63.268 C 29.58 77.187 29.132 77.634 28.58 77.634 z" style="stroke: none; stroke-width: 1; stroke-dasharray: none; stroke-linecap: butt; stroke-linejoin: miter; stroke-miterlimit: 10; fill: rgb(0,0,0); fill-rule: nonzero; opacity: 1;" transform=" matrix(1 0 0 1 0 0) " stroke-linecap="round" />
	<path d="M 14.912 79.202 c -1.727 0 -7.36 -0.186 -7.36 -2.568 c 0 -2.382 5.634 -2.567 7.36 -2.567 c 0.552 0 1 0.447 1 1 s -0.448 1 -1 1 c -2.263 0 -3.886 0.288 -4.763 0.567 c 0.876 0.28 2.5 0.568 4.763 0.568 c 1.875 0 3.653 -0.213 4.756 -0.57 c 0.527 -0.171 1.089 0.117 1.259 0.644 c 0.17 0.525 -0.118 1.089 -0.643 1.259 C 18.974 78.959 17.015 79.202 14.912 79.202 z" style="stroke: none; stroke-width: 1; stroke-dasharray: none; stroke-linecap: butt; stroke-linejoin: miter; stroke-miterlimit: 10; fill: rgb(0,0,0); fill-rule: nonzero; opacity: 1;" transform=" matrix(1 0 0 1 0 0) " stroke-linecap="round" />
	<path d="M 28.58 76.634 V 13.366 c 0 -3.183 6.174 -5.763 13.79 -5.763 s 13.79 2.58 13.79 5.763 v 63.268" style="stroke: none; stroke-width: 1; stroke-dasharray: none; stroke-linecap: butt; stroke-linejoin: miter; stroke-miterlimit: 10; fill: rgb(255,104,214); fill-rule: nonzero; opacity: 1;" transform=" matrix(1 0 0 1 0 0) " stroke-linecap="round" />
	<polyline points="42.37,82.4 89,82.4 89,13.37 56.16,13.37 " style="stroke: none; stroke-width: 1; stroke-dasharray: none; stroke-linecap: butt; stroke-linejoin: miter; stroke-miterlimit: 10; fill: rgb(255,104,214); fill-rule: nonzero; opacity: 1;" transform="  matrix(1 0 0 1 0 0) "/>
	<ellipse cx="42.37" cy="76.63300000000001" rx="13.79" ry="5.763" style="stroke: none; stroke-width: 1; stroke-dasharray: none; stroke-linecap: butt; stroke-linejoin: miter; stroke-miterlimit: 10; fill: rgb(229,89,191); fill-rule: nonzero; opacity: 1;" transform=" matrix(1 0 0 1 0 0) "/>
	<path d="M 49.591 8.463 v 68.171 h 6.568 V 13.366 C 56.159 11.291 53.527 9.478 49.591 8.463 z" style="stroke: none; stroke-width: 1; stroke-dasharray: none; stroke-linecap: butt; stroke-linejoin: miter; stroke-miterlimit: 10; fill: rgb(229,89,191); fill-rule: nonzero; opacity: 1;" transform=" matrix(1 0 0 1 0 0) " stroke-linecap="round" />
	<path d="M 42.369 83.397 c -8.432 0 -14.79 -2.908 -14.79 -6.764 s 6.358 -6.763 14.79 -6.763 s 14.79 2.907 14.79 6.763 S 50.801 83.397 42.369 83.397 z M 42.369 71.871 c -7.537 0 -12.79 2.51 -12.79 4.763 s 5.252 4.764 12.79 4.764 s 12.79 -2.511 12.79 -4.764 S 49.906 71.871 42.369 71.871 z" style="stroke: none; stroke-width: 1; stroke-dasharray: none; stroke-linecap: butt; stroke-linejoin: miter; stroke-miterlimit: 10; fill: rgb(0,0,0); fill-rule: nonzero; opacity: 1;" transform=" matrix(1 0 0 1 0 0) " stroke-linecap="round" />
	<path d="M 56.159 77.634 c -0.553 0 -1 -0.447 -1 -1 V 13.366 c 0 -2.253 -5.253 -4.763 -12.79 -4.763 s -12.79 2.51 -12.79 4.763 v 63.268 c 0 0.553 -0.448 1 -1 1 s -1 -0.447 -1 -1 V 13.366 c 0 -3.855 6.358 -6.763 14.79 -6.763 s 14.79 2.907 14.79 6.763 v 63.268 C 57.159 77.187 56.712 77.634 56.159 77.634 z" style="stroke: none; stroke-width: 1; stroke-dasharray: none; stroke-linecap: butt; stroke-linejoin: miter; stroke-miterlimit: 10; fill: rgb(0,0,0); fill-rule: nonzero; opacity: 1;" transform=" matrix(1 0 0 1 0 0) " stroke-linecap="round" />
	<path d="M 89 83.397 H 42.369 c -0.552 0 -1 -0.447 -1 -1 s 0.448 -1 1 -1 H 88 V 14.366 H 56.159 c -0.553 0 -1 -0.448 -1 -1 s 0.447 -1 1 -1 H 89 c 0.553 0 1 0.448 1 1 v 69.032 C 90 82.95 89.553 83.397 89 83.397 z" style="stroke: none; stroke-width: 1; stroke-dasharray: none; stroke-linecap: butt; stroke-linejoin: miter; stroke-miterlimit: 10; fill: rgb(0,0,0); fill-rule: nonzero; opacity: 1;" transform=" matrix(1 0 0 1 0 0) " stroke-linecap="round" />
	<path d="M 42.492 79.202 c -1.727 0 -7.36 -0.186 -7.36 -2.568 c 0 -2.382 5.634 -2.567 7.36 -2.567 c 0.552 0 1 0.447 1 1 s -0.448 1 -1 1 c -2.263 0 -3.886 0.288 -4.763 0.567 c 0.876 0.28 2.5 0.568 4.763 0.568 c 1.875 0 3.653 -0.213 4.757 -0.57 c 0.528 -0.171 1.09 0.118 1.259 0.644 c 0.17 0.525 -0.118 1.089 -0.644 1.259 C 46.553 78.959 44.595 79.202 42.492 79.202 z" style="stroke: none; stroke-width: 1; stroke-dasharray: none; stroke-linecap: butt; stroke-linejoin: miter; stroke-miterlimit: 10; fill: rgb(0,0,0); fill-rule: nonzero; opacity: 1;" transform=" matrix(1 0 0 1 0 0) " stroke-linecap="round" />
</g>
</svg>