<svg xmlns="http://www.w3.org/2000/svg" xmlns:xlink="http://www.w3.org/1999/xlink" version="1.1" width="256" height="256" viewBox="0 0 256 256" xml:space="preserve">

<defs>
</defs>
<g style="stroke: none; stroke-width: 0; stroke-dasharray: none; stroke-linecap: butt; stroke-linejoin: miter; stroke-miterlimit: 10; fill: none; fill-rule: nonzero; opacity: 1;" transform="translate(1.4065934065934016 1.4065934065934016) scale(2.81 2.81)" >
	<path d="M 51.651 18.591 h 33.444 c 2.157 0 3.905 1.749 3.905 3.905 v 47.872 H 1 V 22.497 c 0 -2.157 1.749 -3.905 3.905 -3.905 h 4.898 H 51.651 z" style="stroke: none; stroke-width: 1; stroke-dasharray: none; stroke-linecap: butt; stroke-linejoin: miter; stroke-miterlimit: 10; fill: rgb(248,250,251); fill-rule: nonzero; opacity: 1;" transform=" matrix(1 0 0 1 0 0) " stroke-linecap="round" />
	<path d="M 85.095 87.773 H 4.905 C 2.749 87.773 1 86.024 1 83.867 V 70.369 h 88 v 13.498 C 89 86.024 87.251 87.773 85.095 87.773 z" style="stroke: none; stroke-width: 1; stroke-dasharray: none; stroke-linecap: butt; stroke-linejoin: miter; stroke-miterlimit: 10; fill: rgb(240,114,129); fill-rule: nonzero; opacity: 1;" transform=" matrix(1 0 0 1 0 0) " stroke-linecap="round" />
	<path d="M 37.721 41.23 l 0.037 1.631 c 0 2.283 1.771 4.24 4.208 4.65 l 6.296 1.061 c 3.317 0.559 5.727 3.222 5.727 6.329 v 15.469 H 30.665 H 7.341 V 54.9 c 0 -3.107 2.41 -5.77 5.727 -6.329 l 6.296 -1.061 c 2.437 -0.41 4.208 -2.367 4.208 -4.65 l 0.039 -1.631 H 37.721 z" style="stroke: none; stroke-width: 1; stroke-dasharray: none; stroke-linecap: butt; stroke-linejoin: miter; stroke-miterlimit: 10; fill: rgb(249,208,112); fill-rule: nonzero; opacity: 1;" transform=" matrix(1 0 0 1 0 0) " stroke-linecap="round" />
	<path d="M 43.184 23.546 l -0.496 7.719 h 0 c -0.49 5.862 -4.351 10.901 -9.883 12.9 l 0 0 c -0.691 0.25 -1.415 0.375 -2.139 0.375 h 0 c -0.724 0 -1.448 -0.125 -2.139 -0.375 l 0 0 c -5.532 -1.999 -9.393 -7.038 -9.883 -12.9 l -0.467 -7.719 V 15.03 l 25.008 -0.223 V 23.546 z" style="stroke: none; stroke-width: 1; stroke-dasharray: none; stroke-linecap: butt; stroke-linejoin: miter; stroke-miterlimit: 10; fill: rgb(236,190,155); fill-rule: nonzero; opacity: 1;" transform=" matrix(1 0 0 1 0 0) " stroke-linecap="round" />
	<path d="M 43.184 23.546 c 5.523 -8.22 3.017 -13.821 -5.876 -17.341 c 0.194 -0.812 1.314 -1.624 3.081 -2.436 c -7.313 -2.748 -16.01 -2.119 -19.989 4.306 c -5.451 1.838 -7.12 7.938 -2.225 15.471 c 0.546 -9.22 6.531 -8.471 13.758 -5.446 c 3.654 1.398 6.826 1.254 9.817 0.788 C 43.385 18.583 43.305 21.491 43.184 23.546 z" style="stroke: none; stroke-width: 1; stroke-dasharray: none; stroke-linecap: butt; stroke-linejoin: miter; stroke-miterlimit: 10; fill: rgb(63,110,144); fill-rule: nonzero; opacity: 1;" transform=" matrix(1 0 0 1 0 0) " stroke-linecap="round" />
	<path d="M 19.139 34.037 c -2.26 -0.657 -3.912 -2.744 -3.912 -5.216 v -2.519 c 0 -0.842 0.683 -1.524 1.524 -1.524 h 1.499 L 19.139 34.037 z" style="stroke: none; stroke-width: 1; stroke-dasharray: none; stroke-linecap: butt; stroke-linejoin: miter; stroke-miterlimit: 10; fill: rgb(233,190,169); fill-rule: nonzero; opacity: 1;" transform=" matrix(1 0 0 1 0 0) " stroke-linecap="round" />
	<path d="M 42.19 34.036 c 2.261 -0.657 3.913 -2.745 3.913 -5.218 v -2.518 c 0 -0.842 -0.683 -1.524 -1.524 -1.524 h -1.442 L 42.19 34.036 z" style="stroke: none; stroke-width: 1; stroke-dasharray: none; stroke-linecap: butt; stroke-linejoin: miter; stroke-miterlimit: 10; fill: rgb(233,190,169); fill-rule: nonzero; opacity: 1;" transform=" matrix(1 0 0 1 0 0) " stroke-linecap="round" />
	<path d="M 35.959 34.733 c -3.529 4.639 -7.058 4.671 -10.587 0 H 35.959 z" style="stroke: none; stroke-width: 1; stroke-dasharray: none; stroke-linecap: butt; stroke-linejoin: miter; stroke-miterlimit: 10; fill: rgb(255,255,255); fill-rule: nonzero; opacity: 1;" transform=" matrix(1 0 0 1 0 0) " stroke-linecap="round" />
	<path d="M 20.444 47.214 c 1.863 -0.727 3.128 -2.423 3.128 -4.353 l 0.039 -1.631 h 14.11 l 0.037 1.631 c 0 1.93 1.265 3.626 3.128 4.353 l 0.002 -0.004 c -6.794 6.714 -13.609 6.736 -20.446 0" style="stroke: none; stroke-width: 1; stroke-dasharray: none; stroke-linecap: butt; stroke-linejoin: miter; stroke-miterlimit: 10; fill: rgb(236,190,155); fill-rule: nonzero; opacity: 1;" transform=" matrix(1 0 0 1 0 0) " stroke-linecap="round" />
	<path d="M 78.476 33.227 H 64.443 c -0.553 0 -1 -0.448 -1 -1 s 0.447 -1 1 -1 h 14.032 c 0.553 0 1 0.448 1 1 S 79.028 33.227 78.476 33.227 z" style="stroke: none; stroke-width: 1; stroke-dasharray: none; stroke-linecap: butt; stroke-linejoin: miter; stroke-miterlimit: 10; fill: rgb(0,0,0); fill-rule: nonzero; opacity: 1;" transform=" matrix(1 0 0 1 0 0) " stroke-linecap="round" />
	<path d="M 78.476 38.227 H 64.443 c -0.553 0 -1 -0.448 -1 -1 s 0.447 -1 1 -1 h 14.032 c 0.553 0 1 0.448 1 1 S 79.028 38.227 78.476 38.227 z" style="stroke: none; stroke-width: 1; stroke-dasharray: none; stroke-linecap: butt; stroke-linejoin: miter; stroke-miterlimit: 10; fill: rgb(0,0,0); fill-rule: nonzero; opacity: 1;" transform=" matrix(1 0 0 1 0 0) " stroke-linecap="round" />
	<path d="M 72.476 43.227 h -8.032 c -0.553 0 -1 -0.448 -1 -1 s 0.447 -1 1 -1 h 8.032 c 0.553 0 1 0.448 1 1 S 73.028 43.227 72.476 43.227 z" style="stroke: none; stroke-width: 1; stroke-dasharray: none; stroke-linecap: butt; stroke-linejoin: miter; stroke-miterlimit: 10; fill: rgb(0,0,0); fill-rule: nonzero; opacity: 1;" transform=" matrix(1 0 0 1 0 0) " stroke-linecap="round" />
	<path d="M 60.26 41.435 l -6.271 -3.212 l 6.271 -3.212 v -5.592 c 0 -1.135 0.92 -2.056 2.056 -2.056 h 18.287 c 1.135 0 2.056 0.92 2.056 2.056 v 15.727 c 0 1.135 -0.92 2.056 -2.056 2.056 H 62.316 c -1.135 0 -2.056 -0.92 -2.056 -2.056 V 41.435 z" style="stroke: none; stroke-width: 1; stroke-dasharray: none; stroke-linecap: butt; stroke-linejoin: miter; stroke-miterlimit: 10; fill: rgb(179,218,254); fill-rule: nonzero; opacity: 1;" transform=" matrix(1 0 0 1 0 0) " stroke-linecap="round" />
	<polyline points="27.12,79.07 18.74,83.26 18.74,74.88 27.12,79.07 " style="stroke: none; stroke-width: 1; stroke-dasharray: none; stroke-linecap: butt; stroke-linejoin: miter; stroke-miterlimit: 10; fill: rgb(255,255,255); fill-rule: nonzero; opacity: 1;" transform="  matrix(1 0 0 1 0 0) "/>
	<path d="M 16.896 70.369 c -0.011 -0.257 -0.01 -3.208 -0.006 -5.704 c 0.003 -1.943 -1.706 -3.517 -3.814 -3.517 H 7.341 v 9.221 H 16.896 z" style="stroke: none; stroke-width: 1; stroke-dasharray: none; stroke-linecap: butt; stroke-linejoin: miter; stroke-miterlimit: 10; fill: rgb(236,190,155); fill-rule: nonzero; opacity: 1;" transform=" matrix(1 0 0 1 0 0) " stroke-linecap="round" />
	<path d="M 44.385 70.369 c 0.011 -0.257 0.01 -3.208 0.006 -5.704 c -0.003 -1.943 1.706 -3.517 3.814 -3.517 h 5.735 v 9.221 H 44.385 z" style="stroke: none; stroke-width: 1; stroke-dasharray: none; stroke-linecap: butt; stroke-linejoin: miter; stroke-miterlimit: 10; fill: rgb(236,190,155); fill-rule: nonzero; opacity: 1;" transform=" matrix(1 0 0 1 0 0) " stroke-linecap="round" />
	<path d="M 85.095 17.591 H 51.65 c -0.553 0 -1 0.448 -1 1 s 0.447 1 1 1 h 33.444 c 1.602 0 2.905 1.303 2.905 2.905 v 46.873 H 54.989 V 54.9 c 0 -3.599 -2.759 -6.675 -6.561 -7.315 l -6.296 -1.061 c -1.955 -0.329 -3.374 -1.87 -3.374 -3.687 l -0.028 -1.198 c 1.968 -1.873 3.451 -4.227 4.274 -6.849 c 2.434 -0.955 4.099 -3.322 4.099 -5.973 v -2.518 c 0 -1.392 -1.132 -2.524 -2.524 -2.524 h -0.361 c 2.6 -3.991 3.453 -7.564 2.505 -10.617 c -0.928 -2.987 -3.567 -5.467 -7.852 -7.381 c 0.369 -0.285 0.966 -0.655 1.936 -1.1 c 0.367 -0.168 0.596 -0.541 0.582 -0.944 c -0.015 -0.403 -0.27 -0.758 -0.648 -0.9 c -7.274 -2.732 -16.525 -2.399 -20.999 4.416 c -2.421 0.914 -4.182 2.66 -4.978 4.948 c -1.131 3.252 -0.274 7.353 2.386 11.58 h -0.399 c -1.392 0 -2.524 1.132 -2.524 2.524 v 2.52 c 0 2.649 1.664 5.015 4.096 5.971 c 0.822 2.621 2.307 4.976 4.278 6.851 l -0.029 1.219 c 0 1.794 -1.419 3.334 -3.374 3.664 l -6.296 1.061 C 9.1 48.226 6.341 51.302 6.341 54.9 v 6.248 v 8.221 H 2 V 22.497 c 0 -1.602 1.303 -2.905 2.905 -2.905 h 4.898 c 0.552 0 1 -0.448 1 -1 s -0.448 -1 -1 -1 H 4.905 C 2.201 17.591 0 19.792 0 22.497 v 47.873 v 13.498 c 0 2.705 2.201 4.905 4.905 4.905 h 80.189 c 2.705 0 4.905 -2.2 4.905 -4.905 V 70.369 V 22.497 C 90 19.792 87.8 17.591 85.095 17.591 z M 45.392 64.664 c -0.001 -0.618 0.252 -1.212 0.714 -1.674 c 0.534 -0.535 1.3 -0.842 2.1 -0.842 h 4.735 v 7.221 h -7.548 C 45.395 68.582 45.395 67.181 45.392 64.664 z M 45.104 26.301 v 2.518 c 0 1.297 -0.582 2.493 -1.515 3.319 c 0.036 -0.268 0.075 -0.536 0.097 -0.808 l 0.357 -5.552 h 0.537 C 44.868 25.777 45.104 26.012 45.104 26.301 z M 16.653 12.854 c 0.634 -1.823 2.041 -3.148 4.067 -3.831 c 0.221 -0.075 0.408 -0.224 0.531 -0.421 c 2.379 -3.842 6.547 -5.374 10.955 -5.374 c 1.892 0 3.828 0.282 5.685 0.785 c -0.892 0.629 -1.389 1.264 -1.555 1.96 c -0.116 0.484 0.142 0.979 0.604 1.162 c 4.401 1.742 7.05 3.968 7.873 6.617 c 0.555 1.788 0.305 3.864 -0.742 6.197 c -0.15 -0.699 -0.413 -1.239 -0.838 -1.614 c -0.447 -0.395 -1.039 -0.548 -1.637 -0.435 c -2.726 0.424 -5.74 0.63 -9.276 -0.722 c -3.813 -1.596 -8.599 -3.174 -11.784 -1.186 c -1.437 0.896 -2.406 2.379 -2.931 4.5 C 16.255 17.63 15.914 14.98 16.653 12.854 z M 16.227 28.821 v -2.52 c 0 -0.289 0.235 -0.524 0.524 -0.524 h 0.558 l 0.337 5.572 c 0.022 0.265 0.06 0.527 0.095 0.789 C 16.809 31.313 16.227 30.117 16.227 28.821 z M 19.641 31.205 l -0.462 -7.647 c 0.186 -3.008 0.998 -4.984 2.416 -5.868 c 2.436 -1.519 6.847 0.033 9.982 1.346 c 4.013 1.536 7.473 1.287 10.334 0.801 c 0.14 0.13 0.446 0.747 0.276 3.646 h 0 l -0.495 7.699 c -0.456 5.456 -4.078 10.183 -9.227 12.043 c -1.158 0.419 -2.44 0.419 -3.599 0 C 23.717 41.364 20.096 36.637 19.641 31.205 z M 24.54 43.215 c 1.117 0.772 2.335 1.417 3.646 1.89 c 0.797 0.289 1.631 0.435 2.479 0.435 s 1.682 -0.146 2.479 -0.435 c 1.312 -0.474 2.531 -1.119 3.648 -1.892 c 0.113 1.702 1.015 3.214 2.407 4.2 C 33.477 52.5 27.873 52.5 22.133 47.413 C 23.53 46.425 24.433 44.911 24.54 43.215 z M 13.233 49.558 l 6.296 -1.061 c 0.226 -0.038 0.437 -0.107 0.652 -0.167 c 3.485 3.292 6.989 4.956 10.491 4.956 c 3.502 0 7.001 -1.664 10.475 -4.956 c 0.215 0.06 0.426 0.129 0.652 0.167 l 6.296 1.061 c 2.835 0.478 4.893 2.725 4.893 5.343 v 5.248 h -4.784 c -1.327 0 -2.608 0.521 -3.515 1.429 c -0.839 0.84 -1.3 1.937 -1.298 3.089 c 0.004 2.522 0.003 3.922 0.001 4.703 H 17.889 c -0.002 -0.781 -0.003 -2.181 0.001 -4.702 c 0.002 -1.152 -0.459 -2.25 -1.298 -3.09 c -0.907 -0.908 -2.188 -1.429 -3.516 -1.429 H 8.341 V 54.9 C 8.341 52.282 10.398 50.035 13.233 49.558 z M 8.341 62.148 h 4.735 c 0.801 0 1.566 0.307 2.101 0.842 c 0.46 0.462 0.714 1.056 0.713 1.674 c -0.003 2.517 -0.003 3.918 -0.001 4.705 H 8.341 V 62.148 z M 88 83.867 c 0 1.602 -1.304 2.905 -2.905 2.905 H 4.905 C 3.303 86.772 2 85.469 2 83.867 V 71.369 h 5.341 h 9.555 h 27.489 h 9.555 h 0.049 H 88 V 83.867 z" style="stroke: none; stroke-width: 1; stroke-dasharray: none; stroke-linecap: butt; stroke-linejoin: miter; stroke-miterlimit: 10; fill: rgb(7,42,56); fill-rule: nonzero; opacity: 1;" transform=" matrix(1 0 0 1 0 0) " stroke-linecap="round" />
	<path d="M 24.434 26.785 c 1.242 -0.647 2.448 -0.647 3.69 0 c 0.147 0.077 0.306 0.113 0.461 0.113 c 0.361 0 0.709 -0.196 0.888 -0.538 c 0.255 -0.49 0.065 -1.094 -0.424 -1.349 c -1.838 -0.958 -3.702 -0.958 -5.54 0 c -0.49 0.255 -0.68 0.859 -0.424 1.349 C 23.34 26.85 23.943 27.041 24.434 26.785 z" style="stroke: none; stroke-width: 1; stroke-dasharray: none; stroke-linecap: butt; stroke-linejoin: miter; stroke-miterlimit: 10; fill: rgb(7,42,56); fill-rule: nonzero; opacity: 1;" transform=" matrix(1 0 0 1 0 0) " stroke-linecap="round" />
	<path d="M 32.745 26.898 c 0.156 0 0.314 -0.036 0.461 -0.113 c 1.242 -0.647 2.449 -0.647 3.69 0 c 0.491 0.257 1.094 0.065 1.349 -0.424 c 0.255 -0.49 0.065 -1.094 -0.424 -1.349 c -1.838 -0.958 -3.702 -0.958 -5.54 0 c -0.49 0.255 -0.68 0.859 -0.424 1.349 C 32.035 26.703 32.384 26.898 32.745 26.898 z" style="stroke: none; stroke-width: 1; stroke-dasharray: none; stroke-linecap: butt; stroke-linejoin: miter; stroke-miterlimit: 10; fill: rgb(7,42,56); fill-rule: nonzero; opacity: 1;" transform=" matrix(1 0 0 1 0 0) " stroke-linecap="round" />
	<path d="M 24.477 34.287 c -0.169 0.34 -0.131 0.746 0.097 1.049 c 1.947 2.576 3.99 3.884 6.074 3.888 c 0.002 0 0.005 0 0.008 0 c 2.085 0 4.137 -1.307 6.099 -3.885 c 0.23 -0.302 0.269 -0.709 0.1 -1.05 c -0.169 -0.34 -0.516 -0.556 -0.896 -0.556 H 25.372 C 24.992 33.732 24.646 33.947 24.477 34.287 z M 33.737 35.732 c -1.061 0.991 -2.092 1.491 -3.082 1.491 c -0.001 0 -0.003 0 -0.005 0 c -0.987 -0.001 -2.014 -0.501 -3.067 -1.491 H 33.737 z" style="stroke: none; stroke-width: 1; stroke-dasharray: none; stroke-linecap: butt; stroke-linejoin: miter; stroke-miterlimit: 10; fill: rgb(7,42,56); fill-rule: nonzero; opacity: 1;" transform=" matrix(1 0 0 1 0 0) " stroke-linecap="round" />
	<path d="M 32.122 79.07 c 0 0.553 0.448 1 1 1 h 49.538 c 0.553 0 1 -0.447 1 -1 s -0.447 -1 -1 -1 H 33.122 C 32.569 78.07 32.122 78.518 32.122 79.07 z" style="stroke: none; stroke-width: 1; stroke-dasharray: none; stroke-linecap: butt; stroke-linejoin: miter; stroke-miterlimit: 10; fill: rgb(7,42,56); fill-rule: nonzero; opacity: 1;" transform=" matrix(1 0 0 1 0 0) " stroke-linecap="round" />
	<path d="M 13.736 78.07 H 7.341 c -0.552 0 -1 0.447 -1 1 s 0.448 1 1 1 h 6.396 c 0.552 0 1 -0.447 1 -1 S 14.289 78.07 13.736 78.07 z" style="stroke: none; stroke-width: 1; stroke-dasharray: none; stroke-linecap: butt; stroke-linejoin: miter; stroke-miterlimit: 10; fill: rgb(7,42,56); fill-rule: nonzero; opacity: 1;" transform=" matrix(1 0 0 1 0 0) " stroke-linecap="round" />
	<path d="M 62.316 48.202 h 18.287 c 1.685 0 3.056 -1.371 3.056 -3.056 V 29.419 c 0 -1.685 -1.371 -3.056 -3.056 -3.056 H 62.316 c -1.686 0 -3.057 1.371 -3.057 3.056 V 34.4 l -5.727 2.933 c -0.334 0.171 -0.544 0.515 -0.544 0.89 s 0.21 0.719 0.544 0.89 l 5.727 2.933 v 3.099 C 59.26 46.831 60.631 48.202 62.316 48.202 z M 56.183 38.224 l 4.533 -2.322 c 0.334 -0.171 0.544 -0.515 0.544 -0.89 v -5.592 c 0 -0.583 0.474 -1.056 1.057 -1.056 h 18.287 c 0.582 0 1.056 0.474 1.056 1.056 v 15.727 c 0 0.583 -0.474 1.056 -1.056 1.056 H 62.316 c -0.583 0 -1.057 -0.474 -1.057 -1.056 v -3.71 c 0 -0.375 -0.21 -0.719 -0.544 -0.89 L 56.183 38.224 z" style="stroke: none; stroke-width: 1; stroke-dasharray: none; stroke-linecap: butt; stroke-linejoin: miter; stroke-miterlimit: 10; fill: rgb(7,42,56); fill-rule: nonzero; opacity: 1;" transform=" matrix(1 0 0 1 0 0) " stroke-linecap="round" />
	<path d="M 27.569 78.176 l -8.385 -4.192 c -0.31 -0.154 -0.678 -0.14 -0.973 0.044 c -0.294 0.183 -0.474 0.504 -0.474 0.851 v 8.386 c 0 0.347 0.18 0.669 0.474 0.851 c 0.161 0.1 0.343 0.149 0.526 0.149 c 0.153 0 0.306 -0.035 0.447 -0.105 l 8.385 -4.193 c 0.339 -0.17 0.553 -0.516 0.553 -0.895 S 27.908 78.346 27.569 78.176 z M 19.736 81.646 v -5.149 l 5.149 2.574 L 19.736 81.646 z" style="stroke: none; stroke-width: 1; stroke-dasharray: none; stroke-linecap: butt; stroke-linejoin: miter; stroke-miterlimit: 10; fill: rgb(7,42,56); fill-rule: nonzero; opacity: 1;" transform=" matrix(1 0 0 1 0 0) " stroke-linecap="round" />
</g>
</svg>