<svg xmlns="http://www.w3.org/2000/svg" version="1.1" xmlns:xlink="http://www.w3.org/1999/xlink" xmlns:svgjs="http://svgjs.dev/svgjs" viewBox="0 0 800 800" opacity="0.16"><defs><linearGradient x1="50%" y1="0%" x2="50%" y2="100%" id="rrreflection-grad"><stop stop-color="hsl(206, 75%, 49%)" stop-opacity="1" offset="45%"></stop><stop stop-color="hsl(331, 90%, 56%)" stop-opacity="1" offset="100%"></stop></linearGradient><linearGradient x1="50%" y1="0%" x2="50%" y2="100%" id="rrreflection-grad-2"><stop stop-color="hsl(331, 90%, 56%)" stop-opacity="1" offset="0%"></stop><stop stop-color="hsl(206, 75%, 49%)" stop-opacity="1" offset="45%"></stop></linearGradient><linearGradient gradientTransform="rotate(270)" x1="50%" y1="0%" x2="50%" y2="100%" id="rrreflection-grad-3"><stop stop-color="hsl(206, 75%, 49%)" stop-opacity="1" offset="45%"></stop><stop stop-color="hsl(331, 90%, 56%)" stop-opacity="1" offset="100%"></stop></linearGradient><linearGradient gradientTransform="rotate(270)" x1="50%" y1="0%" x2="50%" y2="100%" id="rrreflection-grad-4"><stop stop-color="hsl(331, 90%, 56%)" stop-opacity="1" offset="0%"></stop><stop stop-color="hsl(206, 75%, 49%)" stop-opacity="1" offset="45%"></stop></linearGradient></defs><g stroke-width="0.5" stroke="hsl(305, 77%, 40%)" fill="none"><circle r="1452" cx="50%" cy="0"></circle><circle r="1435.5" cx="50%" cy="0"></circle><circle r="1419" cx="50%" cy="0"></circle><circle r="1402.5" cx="50%" cy="0"></circle><circle r="1386" cx="50%" cy="0"></circle><circle r="1369.5" cx="50%" cy="0"></circle><circle r="1353" cx="50%" cy="0"></circle><circle r="1336.5" cx="50%" cy="0"></circle><circle r="1320" cx="50%" cy="0"></circle><circle r="1303.5" cx="50%" cy="0"></circle><circle r="1287" cx="50%" cy="0"></circle><circle r="1270.5" cx="50%" cy="0"></circle><circle r="1254" cx="50%" cy="0"></circle><circle r="1237.5" cx="50%" cy="0"></circle><circle r="1221" cx="50%" cy="0"></circle><circle r="1204.5" cx="50%" cy="0"></circle><circle r="1188" cx="50%" cy="0"></circle><circle r="1171.5" cx="50%" cy="0"></circle><circle r="1155" cx="50%" cy="0"></circle><circle r="1138.5" cx="50%" cy="0"></circle><circle r="1122" cx="50%" cy="0"></circle><circle r="1105.5" cx="50%" cy="0"></circle><circle r="1089" cx="50%" cy="0"></circle><circle r="1072.5" cx="50%" cy="0"></circle><circle r="1056" cx="50%" cy="0"></circle><circle r="1039.5" cx="50%" cy="0"></circle><circle r="1023" cx="50%" cy="0"></circle><circle r="1006.5" cx="50%" cy="0"></circle><circle r="990" cx="50%" cy="0"></circle><circle r="973.5" cx="50%" cy="0"></circle><circle r="957" cx="50%" cy="0"></circle><circle r="940.5" cx="50%" cy="0"></circle><circle r="924" cx="50%" cy="0"></circle><circle r="907.5" cx="50%" cy="0"></circle><circle r="891" cx="50%" cy="0"></circle><circle r="874.5" cx="50%" cy="0"></circle><circle r="858" cx="50%" cy="0"></circle><circle r="841.5" cx="50%" cy="0"></circle><circle r="825" cx="50%" cy="0"></circle><circle r="808.5" cx="50%" cy="0"></circle><circle r="792" cx="50%" cy="0"></circle><circle r="775.5" cx="50%" cy="0"></circle><circle r="759" cx="50%" cy="0"></circle><circle r="742.5" cx="50%" cy="0"></circle><circle r="726" cx="50%" cy="0"></circle><circle r="709.5" cx="50%" cy="0"></circle><circle r="693" cx="50%" cy="0"></circle><circle r="676.5" cx="50%" cy="0"></circle><circle r="660" cx="50%" cy="0"></circle><circle r="643.5" cx="50%" cy="0"></circle><circle r="627" cx="50%" cy="0"></circle><circle r="610.5" cx="50%" cy="0"></circle><circle r="594" cx="50%" cy="0"></circle><circle r="577.5" cx="50%" cy="0"></circle><circle r="561" cx="50%" cy="0"></circle><circle r="544.5" cx="50%" cy="0"></circle><circle r="528" cx="50%" cy="0"></circle><circle r="511.5" cx="50%" cy="0"></circle><circle r="495" cx="50%" cy="0"></circle><circle r="478.5" cx="50%" cy="0"></circle><circle r="462" cx="50%" cy="0"></circle><circle r="445.5" cx="50%" cy="0"></circle><circle r="429" cx="50%" cy="0"></circle><circle r="412.5" cx="50%" cy="0"></circle><circle r="396" cx="50%" cy="0"></circle><circle r="379.5" cx="50%" cy="0"></circle><circle r="363" cx="50%" cy="0"></circle><circle r="346.5" cx="50%" cy="0"></circle><circle r="330" cx="50%" cy="0"></circle><circle r="313.5" cx="50%" cy="0"></circle><circle r="297" cx="50%" cy="0"></circle><circle r="280.5" cx="50%" cy="0"></circle><circle r="264" cx="50%" cy="0"></circle><circle r="247.5" cx="50%" cy="0"></circle><circle r="231" cx="50%" cy="0"></circle><circle r="214.5" cx="50%" cy="0"></circle><circle r="198" cx="50%" cy="0"></circle><circle r="181.5" cx="50%" cy="0"></circle><circle r="165" cx="50%" cy="0"></circle><circle r="148.5" cx="50%" cy="0"></circle><circle r="132" cx="50%" cy="0"></circle><circle r="115.5" cx="50%" cy="0"></circle><circle r="99" cx="50%" cy="0"></circle><circle r="82.5" cx="50%" cy="0"></circle><circle r="66" cx="50%" cy="0"></circle><circle r="49.5" cx="50%" cy="0"></circle><circle r="33" cx="50%" cy="0"></circle><circle r="16.5" cx="50%" cy="0"></circle></g><g stroke-width="0.5" stroke="hsl(305, 77%, 40%)" fill="none"><circle r="1452" cx="50%" cy="100%"></circle><circle r="1435.5" cx="50%" cy="100%"></circle><circle r="1419" cx="50%" cy="100%"></circle><circle r="1402.5" cx="50%" cy="100%"></circle><circle r="1386" cx="50%" cy="100%"></circle><circle r="1369.5" cx="50%" cy="100%"></circle><circle r="1353" cx="50%" cy="100%"></circle><circle r="1336.5" cx="50%" cy="100%"></circle><circle r="1320" cx="50%" cy="100%"></circle><circle r="1303.5" cx="50%" cy="100%"></circle><circle r="1287" cx="50%" cy="100%"></circle><circle r="1270.5" cx="50%" cy="100%"></circle><circle r="1254" cx="50%" cy="100%"></circle><circle r="1237.5" cx="50%" cy="100%"></circle><circle r="1221" cx="50%" cy="100%"></circle><circle r="1204.5" cx="50%" cy="100%"></circle><circle r="1188" cx="50%" cy="100%"></circle><circle r="1171.5" cx="50%" cy="100%"></circle><circle r="1155" cx="50%" cy="100%"></circle><circle r="1138.5" cx="50%" cy="100%"></circle><circle r="1122" cx="50%" cy="100%"></circle><circle r="1105.5" cx="50%" cy="100%"></circle><circle r="1089" cx="50%" cy="100%"></circle><circle r="1072.5" cx="50%" cy="100%"></circle><circle r="1056" cx="50%" cy="100%"></circle><circle r="1039.5" cx="50%" cy="100%"></circle><circle r="1023" cx="50%" cy="100%"></circle><circle r="1006.5" cx="50%" cy="100%"></circle><circle r="990" cx="50%" cy="100%"></circle><circle r="973.5" cx="50%" cy="100%"></circle><circle r="957" cx="50%" cy="100%"></circle><circle r="940.5" cx="50%" cy="100%"></circle><circle r="924" cx="50%" cy="100%"></circle><circle r="907.5" cx="50%" cy="100%"></circle><circle r="891" cx="50%" cy="100%"></circle><circle r="874.5" cx="50%" cy="100%"></circle><circle r="858" cx="50%" cy="100%"></circle><circle r="841.5" cx="50%" cy="100%"></circle><circle r="825" cx="50%" cy="100%"></circle><circle r="808.5" cx="50%" cy="100%"></circle><circle r="792" cx="50%" cy="100%"></circle><circle r="775.5" cx="50%" cy="100%"></circle><circle r="759" cx="50%" cy="100%"></circle><circle r="742.5" cx="50%" cy="100%"></circle><circle r="726" cx="50%" cy="100%"></circle><circle r="709.5" cx="50%" cy="100%"></circle><circle r="693" cx="50%" cy="100%"></circle><circle r="676.5" cx="50%" cy="100%"></circle><circle r="660" cx="50%" cy="100%"></circle><circle r="643.5" cx="50%" cy="100%"></circle><circle r="627" cx="50%" cy="100%"></circle><circle r="610.5" cx="50%" cy="100%"></circle><circle r="594" cx="50%" cy="100%"></circle><circle r="577.5" cx="50%" cy="100%"></circle><circle r="561" cx="50%" cy="100%"></circle><circle r="544.5" cx="50%" cy="100%"></circle><circle r="528" cx="50%" cy="100%"></circle><circle r="511.5" cx="50%" cy="100%"></circle><circle r="495" cx="50%" cy="100%"></circle><circle r="478.5" cx="50%" cy="100%"></circle><circle r="462" cx="50%" cy="100%"></circle><circle r="445.5" cx="50%" cy="100%"></circle><circle r="429" cx="50%" cy="100%"></circle><circle r="412.5" cx="50%" cy="100%"></circle><circle r="396" cx="50%" cy="100%"></circle><circle r="379.5" cx="50%" cy="100%"></circle><circle r="363" cx="50%" cy="100%"></circle><circle r="346.5" cx="50%" cy="100%"></circle><circle r="330" cx="50%" cy="100%"></circle><circle r="313.5" cx="50%" cy="100%"></circle><circle r="297" cx="50%" cy="100%"></circle><circle r="280.5" cx="50%" cy="100%"></circle><circle r="264" cx="50%" cy="100%"></circle><circle r="247.5" cx="50%" cy="100%"></circle><circle r="231" cx="50%" cy="100%"></circle><circle r="214.5" cx="50%" cy="100%"></circle><circle r="198" cx="50%" cy="100%"></circle><circle r="181.5" cx="50%" cy="100%"></circle><circle r="165" cx="50%" cy="100%"></circle><circle r="148.5" cx="50%" cy="100%"></circle><circle r="132" cx="50%" cy="100%"></circle><circle r="115.5" cx="50%" cy="100%"></circle><circle r="99" cx="50%" cy="100%"></circle><circle r="82.5" cx="50%" cy="100%"></circle><circle r="66" cx="50%" cy="100%"></circle><circle r="49.5" cx="50%" cy="100%"></circle><circle r="33" cx="50%" cy="100%"></circle><circle r="16.5" cx="50%" cy="100%"></circle></g><g stroke-width="0.5" stroke="hsl(305, 77%, 40%)" fill="none"><circle r="1452" cx="0" cy="50%"></circle><circle r="1435.5" cx="0" cy="50%"></circle><circle r="1419" cx="0" cy="50%"></circle><circle r="1402.5" cx="0" cy="50%"></circle><circle r="1386" cx="0" cy="50%"></circle><circle r="1369.5" cx="0" cy="50%"></circle><circle r="1353" cx="0" cy="50%"></circle><circle r="1336.5" cx="0" cy="50%"></circle><circle r="1320" cx="0" cy="50%"></circle><circle r="1303.5" cx="0" cy="50%"></circle><circle r="1287" cx="0" cy="50%"></circle><circle r="1270.5" cx="0" cy="50%"></circle><circle r="1254" cx="0" cy="50%"></circle><circle r="1237.5" cx="0" cy="50%"></circle><circle r="1221" cx="0" cy="50%"></circle><circle r="1204.5" cx="0" cy="50%"></circle><circle r="1188" cx="0" cy="50%"></circle><circle r="1171.5" cx="0" cy="50%"></circle><circle r="1155" cx="0" cy="50%"></circle><circle r="1138.5" cx="0" cy="50%"></circle><circle r="1122" cx="0" cy="50%"></circle><circle r="1105.5" cx="0" cy="50%"></circle><circle r="1089" cx="0" cy="50%"></circle><circle r="1072.5" cx="0" cy="50%"></circle><circle r="1056" cx="0" cy="50%"></circle><circle r="1039.5" cx="0" cy="50%"></circle><circle r="1023" cx="0" cy="50%"></circle><circle r="1006.5" cx="0" cy="50%"></circle><circle r="990" cx="0" cy="50%"></circle><circle r="973.5" cx="0" cy="50%"></circle><circle r="957" cx="0" cy="50%"></circle><circle r="940.5" cx="0" cy="50%"></circle><circle r="924" cx="0" cy="50%"></circle><circle r="907.5" cx="0" cy="50%"></circle><circle r="891" cx="0" cy="50%"></circle><circle r="874.5" cx="0" cy="50%"></circle><circle r="858" cx="0" cy="50%"></circle><circle r="841.5" cx="0" cy="50%"></circle><circle r="825" cx="0" cy="50%"></circle><circle r="808.5" cx="0" cy="50%"></circle><circle r="792" cx="0" cy="50%"></circle><circle r="775.5" cx="0" cy="50%"></circle><circle r="759" cx="0" cy="50%"></circle><circle r="742.5" cx="0" cy="50%"></circle><circle r="726" cx="0" cy="50%"></circle><circle r="709.5" cx="0" cy="50%"></circle><circle r="693" cx="0" cy="50%"></circle><circle r="676.5" cx="0" cy="50%"></circle><circle r="660" cx="0" cy="50%"></circle><circle r="643.5" cx="0" cy="50%"></circle><circle r="627" cx="0" cy="50%"></circle><circle r="610.5" cx="0" cy="50%"></circle><circle r="594" cx="0" cy="50%"></circle><circle r="577.5" cx="0" cy="50%"></circle><circle r="561" cx="0" cy="50%"></circle><circle r="544.5" cx="0" cy="50%"></circle><circle r="528" cx="0" cy="50%"></circle><circle r="511.5" cx="0" cy="50%"></circle><circle r="495" cx="0" cy="50%"></circle><circle r="478.5" cx="0" cy="50%"></circle><circle r="462" cx="0" cy="50%"></circle><circle r="445.5" cx="0" cy="50%"></circle><circle r="429" cx="0" cy="50%"></circle><circle r="412.5" cx="0" cy="50%"></circle><circle r="396" cx="0" cy="50%"></circle><circle r="379.5" cx="0" cy="50%"></circle><circle r="363" cx="0" cy="50%"></circle><circle r="346.5" cx="0" cy="50%"></circle><circle r="330" cx="0" cy="50%"></circle><circle r="313.5" cx="0" cy="50%"></circle><circle r="297" cx="0" cy="50%"></circle><circle r="280.5" cx="0" cy="50%"></circle><circle r="264" cx="0" cy="50%"></circle><circle r="247.5" cx="0" cy="50%"></circle><circle r="231" cx="0" cy="50%"></circle><circle r="214.5" cx="0" cy="50%"></circle><circle r="198" cx="0" cy="50%"></circle><circle r="181.5" cx="0" cy="50%"></circle><circle r="165" cx="0" cy="50%"></circle><circle r="148.5" cx="0" cy="50%"></circle><circle r="132" cx="0" cy="50%"></circle><circle r="115.5" cx="0" cy="50%"></circle><circle r="99" cx="0" cy="50%"></circle><circle r="82.5" cx="0" cy="50%"></circle><circle r="66" cx="0" cy="50%"></circle><circle r="49.5" cx="0" cy="50%"></circle><circle r="33" cx="0" cy="50%"></circle><circle r="16.5" cx="0" cy="50%"></circle></g><g stroke-width="0.5" stroke="hsl(305, 77%, 40%)" fill="none"><circle r="1452" cx="100%" cy="50%"></circle><circle r="1435.5" cx="100%" cy="50%"></circle><circle r="1419" cx="100%" cy="50%"></circle><circle r="1402.5" cx="100%" cy="50%"></circle><circle r="1386" cx="100%" cy="50%"></circle><circle r="1369.5" cx="100%" cy="50%"></circle><circle r="1353" cx="100%" cy="50%"></circle><circle r="1336.5" cx="100%" cy="50%"></circle><circle r="1320" cx="100%" cy="50%"></circle><circle r="1303.5" cx="100%" cy="50%"></circle><circle r="1287" cx="100%" cy="50%"></circle><circle r="1270.5" cx="100%" cy="50%"></circle><circle r="1254" cx="100%" cy="50%"></circle><circle r="1237.5" cx="100%" cy="50%"></circle><circle r="1221" cx="100%" cy="50%"></circle><circle r="1204.5" cx="100%" cy="50%"></circle><circle r="1188" cx="100%" cy="50%"></circle><circle r="1171.5" cx="100%" cy="50%"></circle><circle r="1155" cx="100%" cy="50%"></circle><circle r="1138.5" cx="100%" cy="50%"></circle><circle r="1122" cx="100%" cy="50%"></circle><circle r="1105.5" cx="100%" cy="50%"></circle><circle r="1089" cx="100%" cy="50%"></circle><circle r="1072.5" cx="100%" cy="50%"></circle><circle r="1056" cx="100%" cy="50%"></circle><circle r="1039.5" cx="100%" cy="50%"></circle><circle r="1023" cx="100%" cy="50%"></circle><circle r="1006.5" cx="100%" cy="50%"></circle><circle r="990" cx="100%" cy="50%"></circle><circle r="973.5" cx="100%" cy="50%"></circle><circle r="957" cx="100%" cy="50%"></circle><circle r="940.5" cx="100%" cy="50%"></circle><circle r="924" cx="100%" cy="50%"></circle><circle r="907.5" cx="100%" cy="50%"></circle><circle r="891" cx="100%" cy="50%"></circle><circle r="874.5" cx="100%" cy="50%"></circle><circle r="858" cx="100%" cy="50%"></circle><circle r="841.5" cx="100%" cy="50%"></circle><circle r="825" cx="100%" cy="50%"></circle><circle r="808.5" cx="100%" cy="50%"></circle><circle r="792" cx="100%" cy="50%"></circle><circle r="775.5" cx="100%" cy="50%"></circle><circle r="759" cx="100%" cy="50%"></circle><circle r="742.5" cx="100%" cy="50%"></circle><circle r="726" cx="100%" cy="50%"></circle><circle r="709.5" cx="100%" cy="50%"></circle><circle r="693" cx="100%" cy="50%"></circle><circle r="676.5" cx="100%" cy="50%"></circle><circle r="660" cx="100%" cy="50%"></circle><circle r="643.5" cx="100%" cy="50%"></circle><circle r="627" cx="100%" cy="50%"></circle><circle r="610.5" cx="100%" cy="50%"></circle><circle r="594" cx="100%" cy="50%"></circle><circle r="577.5" cx="100%" cy="50%"></circle><circle r="561" cx="100%" cy="50%"></circle><circle r="544.5" cx="100%" cy="50%"></circle><circle r="528" cx="100%" cy="50%"></circle><circle r="511.5" cx="100%" cy="50%"></circle><circle r="495" cx="100%" cy="50%"></circle><circle r="478.5" cx="100%" cy="50%"></circle><circle r="462" cx="100%" cy="50%"></circle><circle r="445.5" cx="100%" cy="50%"></circle><circle r="429" cx="100%" cy="50%"></circle><circle r="412.5" cx="100%" cy="50%"></circle><circle r="396" cx="100%" cy="50%"></circle><circle r="379.5" cx="100%" cy="50%"></circle><circle r="363" cx="100%" cy="50%"></circle><circle r="346.5" cx="100%" cy="50%"></circle><circle r="330" cx="100%" cy="50%"></circle><circle r="313.5" cx="100%" cy="50%"></circle><circle r="297" cx="100%" cy="50%"></circle><circle r="280.5" cx="100%" cy="50%"></circle><circle r="264" cx="100%" cy="50%"></circle><circle r="247.5" cx="100%" cy="50%"></circle><circle r="231" cx="100%" cy="50%"></circle><circle r="214.5" cx="100%" cy="50%"></circle><circle r="198" cx="100%" cy="50%"></circle><circle r="181.5" cx="100%" cy="50%"></circle><circle r="165" cx="100%" cy="50%"></circle><circle r="148.5" cx="100%" cy="50%"></circle><circle r="132" cx="100%" cy="50%"></circle><circle r="115.5" cx="100%" cy="50%"></circle><circle r="99" cx="100%" cy="50%"></circle><circle r="82.5" cx="100%" cy="50%"></circle><circle r="66" cx="100%" cy="50%"></circle><circle r="49.5" cx="100%" cy="50%"></circle><circle r="33" cx="100%" cy="50%"></circle><circle r="16.5" cx="100%" cy="50%"></circle></g></svg>